<?xml version="1.0" encoding="utf-8"?>
<!-- Generator: Adobe Illustrator 15.0.2, SVG Export Plug-In . SVG Version: 6.00 Build 0)  -->
<!DOCTYPE svg PUBLIC "-//W3C//DTD SVG 1.1//EN" "http://www.w3.org/Graphics/SVG/1.1/DTD/svg11.dtd">
<svg version="1.1" id="Layer_1" xmlns="http://www.w3.org/2000/svg" xmlns:xlink="http://www.w3.org/1999/xlink" x="0px" y="0px"
	 width="400px" height="400px" viewBox="0 0 400 400" enable-background="new 0 0 400 400" xml:space="preserve">
<circle fill="#5759A2" cx="200.227" cy="199.591" r="193.864"/>
<g>
	<path fill="#EBF2F4" d="M155.088,122.618c6.802,0,12.924,0.579,18.517,1.795c5.578,1.187,10.321,3.162,14.344,5.859
		c3.955,2.704,7.046,6.294,9.262,10.832c2.17,4.455,3.256,10.043,3.256,16.646c0,7.151-1.634,13.116-4.871,17.886
		c-3.268,4.762-8.06,8.676-14.483,11.711c8.737,2.509,15.208,6.925,19.5,13.213c4.305,6.332,6.416,13.912,6.416,22.789
		c0,7.189-1.368,13.396-4.125,18.607c-2.794,5.273-6.568,9.547-11.229,12.846c-4.703,3.334-10.107,5.77-16.154,7.368
		c-5.968,1.593-12.192,2.39-18.546,2.39H88.178V122.618H155.088z M151.051,179.97c5.532,0,10.123-1.322,13.747-3.981
		c3.598-2.629,5.352-6.971,5.352-12.913c0-3.297-0.574-6.032-1.754-8.15c-1.199-2.118-2.798-3.778-4.816-4.936
		c-1.99-1.209-4.244-2.043-6.873-2.494c-2.58-0.503-5.277-0.699-8.033-0.699H119.43v33.172h31.621V179.97z M152.783,240.379
		c3.076,0,6.005-0.271,8.77-0.886c2.79-0.609,5.262-1.577,7.361-3.004c2.077-1.384,3.816-3.269,5.074-5.673
		c1.254-2.375,1.871-5.469,1.871-9.188c0-7.332-2.062-12.521-6.152-15.677c-4.109-3.109-9.578-4.657-16.301-4.657H119.43v39.083
		L152.783,240.379L152.783,240.379z"/>
	<path fill="#EBF2F4" d="M251.588,239.913c4.223,4.125,10.321,6.205,18.239,6.205c5.7,0,10.621-1.441,14.745-4.312
		c4.094-2.863,6.596-5.928,7.557-9.111h24.856c-3.996,12.379-10.051,21.205-18.337,26.522c-8.18,5.341-18.142,8-29.754,8
		c-8.104,0-15.384-1.308-21.918-3.891c-6.552-2.614-12.004-6.281-16.609-11.052c-4.477-4.799-7.954-10.471-10.434-17.125
		c-2.449-6.625-3.695-13.965-3.695-21.911c0-7.687,1.291-14.866,3.8-21.492c2.569-6.663,6.108-12.41,10.772-17.225
		c4.664-4.853,10.215-8.676,16.646-11.47c6.446-2.779,13.573-4.177,21.438-4.177c8.698,0,16.301,1.675,22.836,5.078
		c6.514,3.365,11.838,7.925,16.03,13.626c4.191,5.686,7.165,12.199,9.036,19.508c1.841,7.287,2.486,14.903,1.96,22.874h-74.155
		C244.602,228.09,247.337,235.782,251.588,239.913 M284.023,185.912c-3.357-3.71-9.045-5.716-15.971-5.716
		c-4.521,0-8.24,0.743-11.236,2.298c-2.914,1.532-5.326,3.426-7.151,5.671c-1.817,2.269-3.049,4.673-3.786,7.234
		c-0.736,2.501-1.156,4.77-1.277,6.776h45.928C289.854,194.979,287.382,189.652,284.023,185.912"/>
	<rect x="238.811" y="132.143" fill="#EBF2F4" width="57.541" height="14.002"/>
</g>
</svg>
