<?xml version="1.0" encoding="utf-8"?>
<!-- Generator: Adobe Illustrator 15.0.2, SVG Export Plug-In . SVG Version: 6.00 Build 0)  -->
<!DOCTYPE svg PUBLIC "-//W3C//DTD SVG 1.1//EN" "http://www.w3.org/Graphics/SVG/1.1/DTD/svg11.dtd">
<svg version="1.1" id="Layer_1" xmlns="http://www.w3.org/2000/svg" xmlns:xlink="http://www.w3.org/1999/xlink" x="0px" y="0px"
	 width="400px" height="400px" viewBox="0 0 400 400" enable-background="new 0 0 400 400" xml:space="preserve">
<circle fill="#5759A2" cx="200.227" cy="199.591" r="193.864"/>
<g>
	<path fill="#EBF2F4" d="M121.911,111.619c52.265,0.103,104.935-0.206,156.94,0.154c0.36,51.387,0.053,103.448,0.155,155.09
		c-0.032,0.738,0.153,1.695-0.309,2.006c-35.029,0.359-70.73,0.052-106.018,0.154c-2.356,1.039-48.936,28.943-49.382,29.32
		c-0.529,0.094-1.068,0.98-1.697,0.463c-0.36-61.934-0.052-124.536-0.154-186.726C121.535,111.859,121.689,111.705,121.911,111.619z
		 M236.416,153.285c-1.146-0.913-2.25-1.866-3.704-2.47c-1.089-0.968-2.644-1.471-3.858-2.314c-1.549-0.509-2.629-1.485-4.319-1.852
		c-1.304-0.755-3.147-0.967-4.63-1.543c-1.571-0.487-3.473-0.645-5.094-1.081c-3.604-0.563-7.621-0.711-11.881-0.617
		c-0.199,0.009-0.215,0.198-0.465,0.154c-7.162,0.399-13.063,2.06-18.209,4.476c-2.389,1.366-5.033,2.478-7.099,4.166
		c-2.193,1.613-4.252,3.361-6.173,5.247c-0.729,1.122-1.76,1.943-2.624,2.932c-0.713,1.19-1.738,2.069-2.314,3.396
		c-0.837,1.066-1.479,2.328-2.161,3.55c-0.894,1.009-1.271,2.535-1.852,3.857c-1.157,2.648-2.099,5.515-2.623,8.796
		c-0.425,1.479-0.643,3.164-0.926,4.784c-0.263,1.641-0.118,3.689-0.309,5.401c0.083,5.37,0.909,9.997,2.161,14.197
		c1.153,4.3,2.854,8.051,5.092,11.266c0.954,1.772,2.051,3.401,3.396,4.783c0.426,0.911,1.498,1.177,1.852,2.161
		c0.675,0.714,1.335,1.441,2.161,2.006c0.588,0.749,1.338,1.336,2.16,1.852c0.86,0.529,1.459,1.318,2.315,1.853
		c1.483,1.243,3.426,2.026,5.092,3.087c1,0.338,1.76,0.915,2.778,1.234c0.965,0.424,1.77,1.008,2.932,1.233
		c1.896,0.831,4.199,1.254,6.327,1.853c4.438,0.857,9.766,1.481,14.969,1.08c9.751-0.592,19.211-3.783,27.095-9.572
		c1.64-1.204,4.448-2.707,5.157-4.778c-0.417-1.437-1.135-2.569-1.543-4.013c-0.387-0.54-0.51-1.344-0.771-2.008
		c-0.32-0.604-0.426-1.426-0.926-1.852c-1.059-2.695-2.131-5.379-3.24-8.023c-0.471-0.357-0.666,0.591-1.234,0.617
		c-0.305,0.416-0.702,0.737-1.234,0.926c-0.574,0.865-1.611,1.269-2.314,2.007c-1.769,1.11-3.486,2.272-5.246,3.396
		c-14.709,9.377-39.31,5.817-44.018-12.854c-3.662-14.525-0.37-31.497,15.004-36.99c5.907-2.11,13.804-2.029,19.75-0.187
		c4.877,1.513,9.389,3.299,13.274,6.668c0.799,0.692,1.379,1.605,2.469,2.006c3.349-6.353,2.709-5.11,4.013-7.716
		c0.606-1.349,1.291-2.62,1.854-4.013c0.752-1.253,1.588-2.423,2.006-4.012C238.822,154.992,237.282,154.476,236.416,153.285z"/>
</g>
</svg>
