<?xml version="1.0" encoding="utf-8"?>
<!-- Generator: Adobe Illustrator 15.0.2, SVG Export Plug-In . SVG Version: 6.00 Build 0)  -->
<!DOCTYPE svg PUBLIC "-//W3C//DTD SVG 1.1//EN" "http://www.w3.org/Graphics/SVG/1.1/DTD/svg11.dtd">
<svg version="1.1" id="Layer_1" xmlns="http://www.w3.org/2000/svg" xmlns:xlink="http://www.w3.org/1999/xlink" x="0px" y="0px"
	 width="400px" height="400px" viewBox="0 0 400 400" enable-background="new 0 0 400 400" xml:space="preserve">
<circle fill="#5759A2" cx="200.227" cy="199.591" r="193.864"/>
<path fill="#EBF2F4" d="M166.047,151.583c-0.745,0.127-1.414,0.296-2.177,0.432l-12.519-25.58l-37.116,4.252l15.127,31.127
	c-78.272,32.51-43.587,109.174-43.587,109.174l119.438-34.575l-32.83-67.017c58.918-17.042,108.09,17.787,108.09,17.787
	l-40.549,11.012l-11.662-21.819c-10.971-2.042-23.488-2.668-36.813-0.433l27.604,56.438l119.27-34.559
	C338.323,197.822,295.064,129.485,166.047,151.583 M118.08,231.288c0,0-11.502-25.571,21.989-47.459l17.813,36.66L118.08,231.288z"
	/>
</svg>
