<?xml version="1.0" encoding="utf-8"?>
<!-- Generator: Adobe Illustrator 15.0.2, SVG Export Plug-In . SVG Version: 6.00 Build 0)  -->
<!DOCTYPE svg PUBLIC "-//W3C//DTD SVG 1.1//EN" "http://www.w3.org/Graphics/SVG/1.1/DTD/svg11.dtd">
<svg version="1.1" id="Layer_1" xmlns="http://www.w3.org/2000/svg" xmlns:xlink="http://www.w3.org/1999/xlink" x="0px" y="0px"
	 width="400px" height="400px" viewBox="0 0 400 400" enable-background="new 0 0 400 400" xml:space="preserve">
<circle fill="#5759A2" cx="200.227" cy="199.591" r="193.864"/>
<g>
	<path fill="#EBF2F4" d="M199.999,106.331c30.401,0,34.002,0.116,46.009,0.664c11.101,0.507,17.13,2.361,21.142,3.92
		c5.314,2.065,9.107,4.533,13.092,8.518c3.985,3.984,6.452,7.777,8.518,13.091c1.559,4.012,3.414,10.042,3.92,21.142
		c0.548,12.006,0.664,15.607,0.664,46.008c0,30.402-0.116,34.004-0.664,46.008c-0.506,11.103-2.361,17.131-3.92,21.144
		c-2.065,5.314-4.532,9.107-8.518,13.092c-3.984,3.984-7.777,6.451-13.092,8.517c-4.012,1.56-10.041,3.414-21.142,3.921
		c-12.004,0.547-15.605,0.664-46.009,0.664c-30.403,0-34.003-0.117-46.008-0.664c-11.101-0.507-17.13-2.361-21.142-3.921
		c-5.315-2.065-9.108-4.532-13.092-8.517c-3.984-3.984-6.452-7.777-8.518-13.092c-1.559-4.013-3.413-10.041-3.92-21.142
		c-0.548-12.006-0.664-15.607-0.664-46.01c0-30.401,0.116-34.002,0.664-46.008c0.507-11.101,2.361-17.13,3.92-21.142
		c2.066-5.314,4.533-9.107,8.518-13.091c3.984-3.984,7.777-6.452,13.092-8.518c4.012-1.559,10.041-3.413,21.142-3.92
		C165.997,106.447,169.598,106.331,199.999,106.331 M199.999,85.816c-30.922,0-34.799,0.13-46.943,0.685
		c-12.12,0.553-20.396,2.478-27.639,5.292c-7.487,2.91-13.836,6.803-20.166,13.133c-6.331,6.33-10.224,12.679-13.133,20.167
		c-2.815,7.243-4.739,15.519-5.293,27.638c-0.554,12.144-0.685,16.021-0.685,46.943c0,30.923,0.131,34.8,0.685,46.944
		c0.554,12.119,2.478,20.396,5.293,27.638c2.909,7.486,6.802,13.836,13.133,20.167c6.33,6.33,12.679,10.223,20.166,13.133
		c7.243,2.814,15.519,4.738,27.639,5.292c12.144,0.554,16.021,0.686,46.943,0.686c30.923,0,34.8-0.132,46.944-0.686
		c12.118-0.554,20.396-2.478,27.639-5.292c7.486-2.91,13.836-6.803,20.166-13.133c6.329-6.331,10.223-12.679,13.133-20.167
		c2.814-7.242,4.739-15.519,5.292-27.638c0.555-12.145,0.686-16.021,0.686-46.944c0-30.921-0.131-34.799-0.686-46.943
		c-0.553-12.119-2.478-20.396-5.292-27.638c-2.91-7.487-6.804-13.837-13.133-20.167c-6.33-6.33-12.68-10.223-20.166-13.133
		c-7.243-2.815-15.521-4.739-27.639-5.292C234.799,85.947,230.922,85.816,199.999,85.816L199.999,85.816z"/>
	<path fill="#EBF2F4" d="M199.999,141.207c-32.291,0-58.468,26.177-58.468,58.467c0,32.292,26.177,58.469,58.468,58.469
		c32.291,0,58.469-26.177,58.469-58.469C258.468,167.383,232.29,141.207,199.999,141.207z M199.999,237.627
		c-20.96,0-37.953-16.992-37.953-37.953c0-20.96,16.992-37.952,37.953-37.952c20.962,0,37.953,16.992,37.953,37.952
		C237.952,220.635,220.961,237.627,199.999,237.627z"/>
	<circle fill="#EBF2F4" cx="260.778" cy="138.896" r="13.663"/>
</g>
</svg>
