<?xml version="1.0" encoding="utf-8"?>
<!-- Generator: Adobe Illustrator 15.0.2, SVG Export Plug-In . SVG Version: 6.00 Build 0)  -->
<!DOCTYPE svg PUBLIC "-//W3C//DTD SVG 1.1//EN" "http://www.w3.org/Graphics/SVG/1.1/DTD/svg11.dtd">
<svg version="1.1" id="Layer_1" xmlns="http://www.w3.org/2000/svg" xmlns:xlink="http://www.w3.org/1999/xlink" x="0px" y="0px"
	 width="400px" height="400px" viewBox="0 0 400 400" enable-background="new 0 0 400 400" xml:space="preserve">
<circle fill="#5759A2" cx="200.227" cy="199.591" r="193.864"/>
<g>
	<path fill="#EBF2F4" d="M110.508,140.212h40.533v130.349h-40.533V140.212z M130.777,75.411c12.952,0,23.477,10.518,23.477,23.479
		c0,12.968-10.524,23.499-23.477,23.499c-12.986,0-23.482-10.531-23.482-23.499C107.294,85.929,117.791,75.411,130.777,75.411"/>
	<path fill="#EBF2F4" d="M176.452,140.212h38.853v17.804h0.553c5.416-10.251,18.625-21.049,38.332-21.049
		c41.004,0,48.576,26.986,48.576,62.097v71.495h-40.471V207.17c0-15.118-0.292-34.57-21.061-34.57
		c-21.082,0-24.295,16.474-24.295,33.476v64.482h-40.488L176.452,140.212L176.452,140.212z"/>
</g>
</svg>
