<?xml version="1.0" encoding="utf-8"?>
<!-- Generator: Adobe Illustrator 15.0.2, SVG Export Plug-In . SVG Version: 6.00 Build 0)  -->
<!DOCTYPE svg PUBLIC "-//W3C//DTD SVG 1.1//EN" "http://www.w3.org/Graphics/SVG/1.1/DTD/svg11.dtd">
<svg version="1.1" id="Layer_1" xmlns="http://www.w3.org/2000/svg" xmlns:xlink="http://www.w3.org/1999/xlink" x="0px" y="0px"
	 width="400px" height="400px" viewBox="0 0 400 400" enable-background="new 0 0 400 400" xml:space="preserve">
<circle fill="#5759A2" cx="200.227" cy="199.591" r="193.864"/>
<g>
	<path fill="#EBF2F4" d="M98.923,127.49c-0.591,0.195-1.142,0.466-1.616,0.837c-1.353,1.061-1.081,3.256-1.191,4.802
		c-0.581,8.051,0,89.566,0,108.053c0,5.307-0.579,14.465,0.803,16.067c1.351,1.567,8.076,1.207,12.854,1.207
		c29.801,0,54.75,0,84.354,0c4.891,0,10.32,0.515,11.248-2.813c0.697-2.506-0.918-4.666-2.471-6.451
		c-1.516-1.746-26.877-34.582-28.062-36.127c-2.016-2.642-3.681-4.813-3.213-6.429c0.523-1.806,2.841-2.28,4.22-3.249
		c7.625-5.369,11.718-9.158,14.341-15.955c0.767-1.988,1.388-4.038,1.928-6.101c1.558-5.966,2.326-13.261,1.348-19.376
		c-0.795-4.953-2.386-10.379-5.091-14.671c-2.322-3.684-4.769-7.649-8.401-10.191c-5.128-3.589-11.549-6.906-17.768-8.134
		c-3.506-0.692-7.092-1.584-10.659-1.855c-6.04-0.457-12.153-0.245-18.205-0.26c-8.006-0.019-16.022,0.288-24.028,0.169
		c-1.752-0.026-3.509,0.206-5.256,0.086C102.5,126.993,100.553,126.954,98.923,127.49z"/>
	<path fill="#EBF2F4" d="M222.646,127.506c-4.262,1.105-3.215,9.404-3.215,13.658c0,19.719,0,29.402,0,50.612
		c0,18.615,0,32.126,0,50.208c0,5.255-0.785,13.18,1.606,15.266c2.084,1.816,10.546,1.775,16.14,1.775
		c20.245,0,40.663,2.244,60.182-4.646c5.273-1.865,10.359-4.846,14.24-8.945c10.801-11.401,12.976-30.533,5.488-44.23
		c-3.186-5.828-8.132-9.515-13.304-13.443c-2.576-1.954-0.181-3.725,1.207-6.027c1.062-1.76,2.004-3.705,2.41-4.818
		c4.479-12.297,2.908-30.925-7.388-40.049c-3.084-2.73-6.933-4.535-10.688-6.144c-2.7-1.156-5.491-1.706-8.839-2.411
		c-8.883-1.869-20.114-1.205-31.334-1.205c-4.014,0-8.285,0-12.449,0c-3.91,0-10.633-0.371-13.256,0.402
		C223.203,127.58,222.896,127.441,222.646,127.506z"/>
</g>
</svg>
