<?xml version="1.0" encoding="utf-8"?>
<!-- Generator: Adobe Illustrator 15.0.2, SVG Export Plug-In . SVG Version: 6.00 Build 0)  -->
<!DOCTYPE svg PUBLIC "-//W3C//DTD SVG 1.1//EN" "http://www.w3.org/Graphics/SVG/1.1/DTD/svg11.dtd">
<svg version="1.1" id="Layer_1" xmlns="http://www.w3.org/2000/svg" xmlns:xlink="http://www.w3.org/1999/xlink" x="0px" y="0px"
	 width="310.667px" height="164.666px" viewBox="0 0 310.667 164.666" enable-background="new 0 0 310.667 164.666"
	 xml:space="preserve">
<g id="Layer_3_copy">
	<g>
		<path d="M115.9,75.025c-1.058-1.565-2.986-1.62-4.306-0.313c-1.516,1.501-2.039,4.023-2.604,5.999
			c-0.709,2.478-1.282,4.991-1.979,7.472c-0.578,2.059-1.373,4.789-3.126,6.211c-0.33,0.518-0.919,0.879-1.678,0.744
			c-0.035-0.006-0.064-0.021-0.099-0.027c-0.04,0.002-0.075,0.014-0.115,0.015c-0.044-0.022-0.079-0.06-0.122-0.084
			c-2.51-0.717-3.535-4.106-3.019-6.838c0.548-1.09,0.997-2.074,1.33-2.828c1.627-3.69,3.93-11.387,0.258-14.599
			c-2.294-2.007-5.046-0.706-6.407,1.474c-0.517,0.828-0.912,1.804-1.2,2.687c-1.458,4.463-0.913,9.128,0.508,13.49
			c-0.285,0.446-0.569,0.879-0.847,1.276c-2.536,3.633-5.862,3.769-6.012-0.96c-0.194-6.131,1.717-11.781,2.808-18.01
			c0.003-0.018,0-0.037,0.002-0.055c0.016-0.199,1.863-1.266,2.095-1.462c4.406-3.737,7.436-8.545,8.433-14.293
			c0.294-1.693,0.485-3.508,0.429-5.229c-0.101-3.057-1.872-6.591-5.352-6.353c-3.584,0.245-5.542,3.704-6.561,6.738
			c-0.584,1.741-0.999,3.532-1.482,5.301c-1.225,4.483-2.381,9.005-3.276,13.571c-0.081,0.046-0.164,0.098-0.245,0.144
			c-1.496,0.845-3.053,1.543-4.639,2.168c0.468-3.245,0.942-6.429,1.284-9.477c0.722-6.442,1.491-12.878,2.232-19.317
			c0.7-6.086,1.74-12.171,1.625-18.317c-0.006-0.333-0.217-1.074-0.693-1.001c-1.438,0.219-2.66,0.704-3.795,1.392
			c-1.407,0.853-2.984,1.623-3.981,2.983c-0.686,0.936-1.146,2.034-1.469,3.143c-0.657,2.258-0.767,4.633-0.991,6.96
			c-0.752,7.8-3.938,15.207-6.855,22.421c-2.94,7.271-5.28,14.821-9.369,21.561c-2.93,4.83-8.065,10.303-13.399,12.324
			c-7.15,2.707-13.163-2.25-14.62-9.23c-0.946-4.533-0.328-9.542,0.626-14.029c1.554-7.311,7.431-15.78,16.126-12.093
			c1.837,0.779,3.322,2.29,4.187,4.078c2.544,5.262-0.844,9.868-4.602,13.51c-0.302,0.293-0.163,0.863,0.333,0.5
			c4.333-3.167,7.417-7,7.323-10.916c-0.267-11.126-14.857-13.815-21.99-6.084c-5.282,5.725-7.214,13.477-8.048,20.98
			c-0.918,8.262,0.363,23.275,11.045,24.653c14.833,1.914,21.375-11.278,27.66-22.114c0.39-0.672,0.749-1.36,1.114-2.045
			c1.204-0.448,2.416-0.924,3.616-1.437c1.469-0.357,2.947-0.918,4.229-1.453c0.511-0.07,1.021-0.161,1.532-0.285
			c-0.388,2.05-0.74,4.096-0.971,6.135c-0.745,6.598-0.363,13.824,1.451,20.381c-1.683,0.521-3.777,3.107-4.782,4.473
			c-1.423,1.932-2.343,4.202-2.847,6.539c-2.417,11.197,6.284,22.021,17.445,22.988c2.629,0.229,5.98,0.058,8.489-0.83
			c6.51-2.303,10.37-8.041,12.537-14.327c0.783-2.272,1.415-4.601,2.057-6.915c5.999,4.773,10.087,11.535,7.51,19.007
			c-0.151,0.438,0.321,1.133,0.596,0.504c1.044-2.394,1.482-5.026,1.158-7.624c-0.576-4.611-2.83-8.871-5.675-12.484
			c-0.281-0.355-2.682-2.646-2.619-2.875c1.861-6.724,3.978-13.336,5.616-20.123c0.479-1.989,0.958-3.979,1.468-5.961
			c0.468-1.82,0.989-3.629,1.64-5.394c0.759-2.056,2.487-4.045,1.097-6.307C115.955,75.108,115.929,75.066,115.9,75.025z
			 M93.365,54.179c0.629-0.85,1.869-2.304,2.828-1.03c2.564,3.405-1.845,8.016-4.269,10.087c-0.289,0.247-1.561,0.991-1.627,1.33
			C90.998,61.013,91.828,57.505,93.365,54.179z M95.979,78.132c0.023-0.589,0.063-1.192,0.146-1.788
			c0.121-0.316,0.245-0.636,0.364-0.938c0.186-0.396,0.407-0.77,0.652-1.126c-0.021,1.226-0.459,3.833-0.536,4.133
			c-0.219,0.848-0.423,1.7-0.629,2.552C95.95,80.021,95.942,79.079,95.979,78.132z M64.892,76.321
			c0.502-1.056,0.995-2.111,1.466-3.163c2.595-5.789,4.919-11.719,7.187-17.666c0.014,0.624,0.018,1.25,0.022,1.876
			c-0.392,3.316-0.536,6.614-0.576,9.951c-0.18,2.043-0.365,4.086-0.551,6.129C69.877,74.297,67.324,75.168,64.892,76.321z
			 M98.667,118.875c-2.403,5.621-5.42,12.142-11.042,15c-8.969,4.56-18.404-4.901-15.417-13.987
			c1.334-4.063,3.564-8.095,7.731-9.699c3.646-1.402,7.971-1.236,11.733-0.388c2.804,0.634,6.156,2.066,9.077,3.699
			C100.75,113.5,99.912,115.962,98.667,118.875z M104.271,102.134c-0.673,2.247-1.466,4.475-2.265,6.701
			c-2.72-2.391-5.854-4.081-9.687-5.125c-4.047-1.104-8.956-1.784-13.231-1.271c-2.902-8.482-2.172-18.095-0.923-27.393
			c1.605-0.647,3.182-1.335,4.71-2.079c-0.443,2.826-0.775,5.668-0.921,8.532c-0.262,5.135-1.07,11.583,2.871,15.596
			c3.25,3.312,7.736,0.316,10.022-2.478c0.722,3.218,2.435,6.146,5.827,6.329c1.448,0.078,2.864-0.303,4.178-0.981
			C104.644,100.683,104.46,101.41,104.271,102.134z"/>
		<path d="M179.281,91.873c-0.443,0.711-1.012,1.319-1.601,1.91c-0.649,0.653-1.315,1.37-2.231,1.634
			c-0.808,0.232-1.609,0.002-2.232-0.541c-1.452-1.266-1.738-3.124-1.707-4.962c0.009-0.442,0.033-0.883,0.058-1.324
			c0.22-3.934,0.481-6.914,0.931-10.828c0.08-0.695,0.61-2.047-0.106-2.553c-0.793-0.559-1.613-1.171-2.606-1.279
			c-1.156-0.126-1.207,1.097-1.49,1.956c-0.219-0.641-1.438-1.677-1.84-1.971c-4.808-3.513-9.668,1.367-11.756,5.564
			c-0.685,1.376-1.191,2.918-1.525,4.417c-0.146,0.657-0.804,2.398-0.571,3.013c-0.258-0.681-0.584-1.36-1.011-2.063
			c-0.987-1.623-2.086-3.161-3.155-4.719c-1.06-1.859-2.048-3.75-2.655-5.816c-0.752-2.56-2.879-3-4.675-1.168
			c-1.488,1.517-2.257,3.771-2.897,5.749c-0.495,1.525-1.03,3.007-1.639,4.491c-0.713,1.741-1.578,3.401-2.529,5.021
			c-0.125,0.213-0.224,0.43-0.328,0.646c-0.143-0.575-0.303-1.147-0.508-1.692c-0.44-1.174-0.989-2.299-1.584-3.4
			c-1.715-3.173-3.815-6.161-4.84-9.646c-0.265-0.9-0.233-1.853-1.341-2.089c-0.94-0.201-2.093,0.128-2.764,0.817
			c-0.988,1.018-1.451,2.552-1.958,3.843c-1.344,3.421-2.787,6.793-4.317,10.134c-0.884,1.93-1.724,3.881-2.492,5.861
			c-0.539,1.393-1.065,2.84-1.184,4.339c-0.058,0.726-0.314,2.248,0.722,2.298c1.586,0.073,3.385-3.164,3.999-4.3
			c1.041-1.927,1.598-4.028,2.498-6.01c0.484-1.065,0.916-2.146,1.31-3.235c0.998-2.21,2.273-4.373,2.748-6.73
			c0.462,1.865,1.169,3.66,2.157,5.335c1.585,2.688,3.784,5.771,3.025,9.09c-0.633,2.77-4.156,4.613-6.727,3.124
			c-1.126-0.652-2.256-2.474-2.321-3.791c-0.012-0.231-0.314-0.503-0.408-0.157c-1.147,4.262,3.145,8.657,7.371,8.37
			c1.204-0.082,2.75-0.534,3.772-1.187c3.786-2.41,5.402-6.89,7.061-10.805c1.259-2.972,2.498-5.953,3.836-8.893
			c0.34-0.75,0.678-1.5,1.016-2.25c0.461,3.671,2.972,6.098,4.647,9.471c0.992,1.996,0.803,4.581,0.256,6.676
			c-0.179,0.682-0.463,1.204-0.8,1.663c-2.668,2.181-7.524,1.673-7.751-2.89c-0.012-0.23-0.314-0.503-0.408-0.157
			c-0.778,2.869,1.204,6.063,3.579,7.452c2.272,1.329,5.122,0.911,7.311-0.329c1.061-0.603,2.029-1.411,2.674-2.458
			c0.448-0.729,1.185-2.318,0.976-3.207c0.08,0.339,0.205,0.692,0.34,1.042c0.376,1.582,1.608,3.265,2.873,4.241
			c1.321,1.021,2.948,1.576,4.622,1.479c2.197-0.127,4.206-0.957,6.023-2.17c0.347-0.23,0.678-0.486,0.974-0.781
			c0.131-0.131,0.735-0.666,0.721-0.854c0.123,1.43,0.849,3.362,2.312,3.88c2.932,1.038,5.66-2.448,6.986-4.592
			c0.506-0.815,0.971-1.72,1.283-2.628c0.325-0.943,0.577-2.002,0.576-3.007c0-0.076-0.001-0.146-0.04-0.208
			c-0.169,0.104-0.247,0.415-0.33,0.588C179.507,91.487,179.399,91.685,179.281,91.873z M167.117,89.313
			c-0.455,2.572-1.33,5.461-4.048,6.437c-2.092,0.751-4.04-0.05-5.269-1.794c-1.355-1.928-1.346-4.04-1.207-6.305
			c0.093-1.517,0.48-2.975,0.949-4.414c0.797-2.445,2.688-5.258,5.398-5.71c3.277-0.546,4.689,2.697,4.662,5.469
			C167.589,84.563,167.528,86.979,167.117,89.313z"/>
		<g>
			<path d="M247.083,31.75c-0.765-0.588-1.643-1.51-2.416-1.807c-2.435-0.934-3.766,1.682-4.26,3.667
				c-0.951,3.811-2.939,7.385-4.689,10.874c-1.87,3.726-3.828,7.408-5.834,11.063c-2.291,4.18-4.549,8.435-7.23,12.391
				c0.014-0.111,0.03-0.228,0.043-0.339c0.723-6.442,1.491-12.878,2.23-19.317c0.648-5.644,1.51-11.236,1.609-16.924
				c0.012-0.682,0.276-1.89-0.453-2.281c-1-0.536-3.192,0.778-4.02,1.278c-1.406,0.853-2.982,1.623-3.98,2.983
				c-0.687,0.936-1.146,2.034-1.469,3.143c-0.658,2.258-0.646,4.648-0.992,6.96c-0.521,3.477-0.938,4.352-4.732,16.93
				c-1.855,6.149-3.368,10.926-6.153,18.258c-2.323,6.116-6.207,12.999-11.235,17.619c-3.332,3.06-7.803,5.344-12.168,3.612
				c-2.108-0.836-3.416-2.676-4.182-4.745c-1.727-4.664-1.318-10.163-0.055-14.884c1.281-4.786,3.408-9.286,6.359-13.287
				c2.912-3.948,8.369-6.7,13.053-3.79C200.48,65.626,200.395,70,199.375,74c-0.381,1.498-1.244,2.888-2.375,3.956
				c-1.006,0.951-2.053,1.554-2.586,2.902c4.088-2.234,6.662-4.827,7.442-9.753c0.704-4.439-1.252-9.333-5.756-10.804
				c-5.181-1.691-10.437-0.26-14.168,3.618c-4.159,4.322-6.988,10.167-8.628,15.887c-0.961,3.354-1.637,6.876-2.045,10.341
				c-0.791,6.719,0.462,15.746,6.697,19.73c2.834,1.811,8.117,2.119,11.264,1.24c6.938-1.938,11.352-8.902,14.458-14.816
				c5.329-10.142,8.044-21.175,11.448-32.033c0.252-0.803,1.154-2.134,1.136-2.962c0.015,0.624,0.019,1.25,0.022,1.876
				c0.02,3.121-0.466,6.241-0.64,9.355c-0.229,4.122-0.511,8.391-0.146,12.51c0.193,2.172,0.291,4.36,0.646,6.514
				c0.191,1.157,0.955,5.209,2.184,3.85c0.91-1.01,2.934-7.561,4.295-11.037c1.383-3.535,2.598-6.292,4.125-9.125
				c1.312-2.435,3-5.638,4.291-8.297c-0.195,2.213-0.455,2.749-0.654,4.138c-0.086,0.557-0.162,1.116-0.229,1.679
				c-0.729,6.176-1.111,12.361-0.797,18.58c0.314,6.236,1.352,12.371,3.18,18.342c0.518,1.692,1.041,3.397,1.733,5.029
				c0.313,0.735,0.962,2.795,1.825,2.988c0.904,0.202,1.066-2.256,1.203-2.758c0.682-2.501,4.715-3.152,2.18-6.182
				c-2.338-2.791-3.039-7.117-3.66-10.571c-0.715-3.984-0.931-8.025-0.781-12.068c0.082-2.218,0.295-4.438,0.621-6.634
				c0.385-2.604,0.957-5.196,1.639-7.738c2.472-9.236,5.476-18.266,8.824-27.217c0.604-1.612,1.205-3.225,1.791-4.843
				c0.523-1.441,1.281-2.984,1.36-4.537C249.355,33.615,248.36,32.734,247.083,31.75z"/>
			<path d="M283.335,86.685c0.469-1.82,0.99-3.629,1.641-5.394c0.76-2.056,2.488-4.045,1.098-6.307
				c-0.027-0.043-0.055-0.085-0.082-0.126c-1.059-1.565-2.986-1.62-4.307-0.313c-1.516,1.501-2.038,4.023-2.604,5.999
				c-0.709,2.479-1.283,4.991-1.979,7.473c-0.46,1.637-1.009,3.229-1.824,4.729c-0.812,1.489-2.385,2.935-4.129,1.813
				c-1.028-0.66-2.005-2.373-2.192-3.565c-0.146-0.927-0.188-2.034-0.013-2.959c0.548-1.091,0.996-2.074,1.329-2.828
				c1.628-3.69,3.93-11.387,0.258-14.599c-2.294-2.007-5.046-0.706-6.406,1.474c-0.517,0.828-0.912,1.804-1.199,2.687
				c-1.459,4.463-0.914,9.128,0.508,13.49c-0.057,0.699-0.904,2.719-1.182,3.116c-1.301,1.86-1.774,3.013-3.205,3.084
				c0.022,1.276,0.058,2.372,0.127,3.649c0.089,0.156,0.179,0.313,0.271,0.469c0.286,0.445,0.573,0.892,0.859,1.337
				c0.066,0.084,0.119,0.168,0.169,0.253c1.909-0.639,3.267-4.254,4.463-5.717c0.724,3.218,2.437,6.146,5.827,6.328
				c1.447,0.078,2.863-0.301,4.179-0.98c-0.209,0.719-0.392,1.445-0.582,2.169c-0.673,2.247-1.466,4.474-2.265,6.701
				c-2.721-2.392-5.854-4.081-9.688-5.125c-10.783-2.937-24.888-1.024-27.654,11.782c-2.416,11.197,6.285,22.021,17.445,22.988
				c2.629,0.229,5.98,0.058,8.489-0.83c6.511-2.303,10.37-8.041,12.536-14.327c0.783-2.272,1.416-4.601,2.057-6.915
				c6,4.773,10.088,11.535,7.51,19.007c-0.149,0.438,0.322,1.133,0.597,0.504c1.045-2.394,1.481-5.026,1.157-7.624
				c-0.574-4.611-2.828-8.871-5.674-12.484c-0.281-0.355-2.684-2.646-2.619-2.875c1.859-6.724,3.978-13.336,5.615-20.123
				C282.347,90.655,282.826,88.666,283.335,86.685z M266.695,78.244c-0.219,0.848-0.423,1.7-0.63,2.552
				c0.108-0.445-0.022-1.077-0.021-1.539c0-0.434,0.006-0.867,0.021-1.3c0.05-1.427,0.354-2.661,1.166-3.846
				C267.21,75.337,266.772,77.944,266.695,78.244z M268.75,118.583c-2.445,5.604-6.008,12.186-11.629,15.043
				c-8.97,4.559-17.81-4.818-14.822-13.906c1.334-4.062,3.563-8.094,7.731-9.697c3.646-1.403,7.972-1.237,11.732-0.389
				c2.805,0.633,6.231,2.066,9.153,3.699C270.917,113.333,269.73,116.338,268.75,118.583z"/>
			<path d="M266.185,90.699c-0.169,0.104-0.247,0.415-0.33,0.588c-0.098,0.2-0.205,0.396-0.322,0.586
				c-0.445,0.711-1.013,1.319-1.602,1.91c-0.65,0.653-1.316,1.37-2.232,1.634c-0.807,0.232-1.607,0.002-2.232-0.541
				c-1.451-1.266-1.737-3.124-1.705-4.962c0.008-0.442,0.031-0.883,0.057-1.324c0.221-3.934,0.482-6.914,0.932-10.828
				c0.08-0.695,0.609-2.047-0.107-2.553c-0.793-0.559-1.613-1.171-2.607-1.279c-1.156-0.126-1.205,1.097-1.49,1.956
				c-0.219-0.641-1.437-1.677-1.838-1.971c-1.265-0.923-3.771-1.191-5.25-0.846c-1.847,0.432-4.068,2.003-5.463,3.248
				c-1.563,1.395-2.668,3.183-3.416,5.127c-1.931,5.017-2.043,12.069,1.821,16.275c2.054,2.235,5.073,3.837,8.169,3.274
				c1.715-0.313,3.371-1.146,4.809-2.104c0.347-0.231,0.678-0.486,0.974-0.781c0.131-0.131,0.735-0.668,0.722-0.854
				c0.122,1.429,0.848,3.362,2.311,3.88c2.932,1.038,5.66-2.449,6.986-4.592c0.506-0.814,0.971-1.72,1.283-2.628
				c0.325-0.942,0.577-2.002,0.576-3.007C266.225,90.831,266.224,90.763,266.185,90.699z M253.367,89.313
				c-0.455,2.572-1.33,5.461-4.048,6.437c-2.092,0.751-4.04-0.05-5.269-1.794c-1.355-1.928-1.346-4.04-1.207-6.305
				c0.093-1.517,0.48-2.975,0.949-4.414c0.797-2.445,2.688-5.258,5.398-5.71c3.277-0.546,4.689,2.697,4.662,5.469
				C253.839,84.563,253.778,86.979,253.367,89.313z"/>
		</g>
	</g>
</g>
</svg>
