<?xml version="1.0" encoding="UTF-8" standalone="no"?>
<!DOCTYPE svg PUBLIC "-//W3C//DTD SVG 1.1//EN" "http://www.w3.org/Graphics/SVG/1.1/DTD/svg11.dtd">
<svg width="100%" height="100%" viewBox="0 0 311 165" version="1.1" xmlns="http://www.w3.org/2000/svg" xmlns:xlink="http://www.w3.org/1999/xlink" xml:space="preserve" xmlns:serif="http://www.serif.com/" style="fill-rule:evenodd;clip-rule:evenodd;stroke-linejoin:round;stroke-miterlimit:2;">
    <g id="Layer_3_copy">
        <path d="M172.052,101.318C171.75,101.302 171.444,101.243 171.136,101.134C169.673,100.616 168.947,98.684 168.824,97.254C168.838,97.442 168.234,97.977 168.103,98.108C167.807,98.403 167.476,98.659 167.129,98.889C165.312,100.102 163.303,100.932 161.106,101.059C159.432,101.156 157.805,100.601 156.484,99.58C155.219,98.604 153.987,96.921 153.611,95.339C153.476,94.989 153.351,94.636 153.271,94.297C153.48,95.186 152.743,96.775 152.295,97.504C151.65,98.551 150.682,99.359 149.621,99.962C147.432,101.202 144.582,101.62 142.31,100.291C139.935,98.902 137.953,95.708 138.731,92.839C138.825,92.493 139.127,92.766 139.139,92.996C139.366,97.559 144.222,98.067 146.89,95.886C147.227,95.427 147.511,94.905 147.69,94.223C148.237,92.128 148.426,89.543 147.434,87.547C145.759,84.174 143.248,81.747 142.787,78.076C142.449,78.826 142.111,79.576 141.771,80.326C140.433,83.266 139.194,86.247 137.935,89.219C136.276,93.134 134.66,97.614 130.874,100.024C129.852,100.677 128.306,101.129 127.102,101.211C122.876,101.498 118.584,97.103 119.731,92.841C119.825,92.495 120.127,92.767 120.139,92.998C120.204,94.315 121.334,96.137 122.46,96.789C125.031,98.278 128.554,96.435 129.187,93.665C129.946,90.346 127.747,87.263 126.162,84.575C125.174,82.9 124.467,81.105 124.005,79.24C123.53,81.597 122.255,83.76 121.257,85.97C120.863,87.059 120.431,88.14 119.947,89.205C119.047,91.187 118.49,93.288 117.449,95.215C116.835,96.351 115.036,99.588 113.45,99.515C112.414,99.465 112.67,97.943 112.728,97.217C112.847,95.718 113.373,94.271 113.912,92.878C114.68,90.898 115.52,88.947 116.404,87.017C117.934,83.676 119.377,80.304 120.721,76.883C121.228,75.592 121.691,74.058 122.679,73.04C123.35,72.351 124.503,72.022 125.443,72.223C126.551,72.459 126.519,73.412 126.784,74.312C127.809,77.797 129.909,80.785 131.624,83.958C132.219,85.059 132.768,86.184 133.208,87.358C133.413,87.903 133.573,88.475 133.716,89.05C133.82,88.834 133.919,88.617 134.044,88.404C134.995,86.784 135.86,85.124 136.573,83.383C137.182,81.899 137.717,80.417 138.212,78.892C138.852,76.914 139.621,74.66 141.109,73.143C142.905,71.311 145.032,71.751 145.784,74.311C146.391,76.377 147.379,78.268 148.439,80.127C149.508,81.685 150.607,83.223 151.594,84.846C152.021,85.549 152.347,86.228 152.605,86.909C152.372,86.294 153.03,84.553 153.176,83.896C153.51,82.397 154.016,80.855 154.701,79.479C156.789,75.282 161.649,70.402 166.457,73.915C166.859,74.209 168.078,75.245 168.297,75.886C168.58,75.027 168.631,73.804 169.787,73.93C170.78,74.038 171.6,74.65 172.393,75.209C173.109,75.715 172.579,77.067 172.499,77.762C172.095,81.272 171.844,84.031 171.638,87.401C172.043,84.838 172.596,82.276 173.304,79.806C174.944,74.086 177.773,68.241 181.932,63.919C185.663,60.041 190.919,58.61 196.1,60.301C200.604,61.772 202.56,66.666 201.856,71.105C201.076,76.031 198.502,78.624 194.414,80.858C194.947,79.51 195.994,78.907 197,77.956C198.131,76.888 198.994,75.498 199.375,74C200.395,70 200.48,65.626 196.509,63.154C191.825,60.244 186.368,62.996 183.456,66.944C180.505,70.945 178.378,75.445 177.097,80.231C175.888,84.749 175.462,89.979 176.941,94.508C177.197,94.275 177.44,94.025 177.68,93.783C178.269,93.192 178.838,92.584 179.281,91.873C179.399,91.685 179.507,91.487 179.611,91.287C179.694,91.114 179.772,90.803 179.941,90.699C179.98,90.761 179.981,90.831 179.981,90.907C179.982,91.912 179.73,92.971 179.405,93.914C179.093,94.822 178.628,95.727 178.122,96.542C178.067,96.631 178.009,96.723 177.949,96.817C178.732,98.155 179.829,99.263 181.334,99.86C185.699,101.592 190.17,99.308 193.502,96.248C198.53,91.628 202.414,84.745 204.737,78.629C207.522,71.297 209.035,66.52 210.89,60.371C214.684,47.793 215.101,46.918 215.622,43.441C215.968,41.129 215.956,38.739 216.614,36.481C216.937,35.372 217.396,34.274 218.083,33.338C219.081,31.978 220.657,31.208 222.063,30.355C222.891,29.855 225.083,28.541 226.083,29.077C226.812,29.468 226.548,30.676 226.536,31.358C226.437,37.046 225.575,42.638 224.927,48.282C224.188,54.721 223.42,61.157 222.697,67.599C222.684,67.71 222.668,67.827 222.654,67.938C225.335,63.982 227.593,59.727 229.884,55.547C231.89,51.892 233.848,48.21 235.718,44.484C237.468,40.995 239.456,37.421 240.407,33.61C240.901,31.625 242.232,29.009 244.667,29.943C245.44,30.24 246.318,31.162 247.083,31.75C248.36,32.734 249.355,33.615 249.274,35.16C249.195,36.713 248.437,38.256 247.914,39.697C247.328,41.315 246.727,42.928 246.123,44.54C242.775,53.491 239.771,62.521 237.299,71.757C236.617,74.299 236.045,76.891 235.66,79.495C235.334,81.691 235.121,83.911 235.039,86.129C234.889,90.172 235.105,94.213 235.82,98.197C236.366,101.233 236.974,104.944 238.701,107.693C244.336,101.867 254.309,101.337 262.407,103.543C266.241,104.587 269.374,106.276 272.095,108.668C272.894,106.441 273.687,104.214 274.36,101.967C274.55,101.243 274.733,100.517 274.942,99.798C273.626,100.477 272.21,100.856 270.763,100.778C267.635,100.61 265.935,98.104 265.122,95.19C264.894,95.658 264.639,96.113 264.372,96.542C263.046,98.685 260.318,102.172 257.386,101.134C255.923,100.616 255.197,98.683 255.075,97.254C255.088,97.44 254.484,97.977 254.353,98.108C254.057,98.403 253.726,98.658 253.379,98.889C251.941,99.847 250.285,100.68 248.57,100.993C245.474,101.556 242.455,99.954 240.401,97.719C236.537,93.513 236.649,86.461 238.58,81.444C239.328,79.5 240.433,77.712 241.996,76.317C243.391,75.072 245.612,73.501 247.459,73.069C248.938,72.724 251.444,72.992 252.709,73.915C253.11,74.209 254.328,75.245 254.547,75.886C254.832,75.027 254.881,73.804 256.037,73.93C257.031,74.038 257.851,74.65 258.644,75.209C259.36,75.715 258.831,77.067 258.751,77.762C258.301,81.676 258.04,84.656 257.819,88.59C257.793,89.031 257.77,89.472 257.762,89.914C257.733,91.559 257.959,93.22 259.047,94.459C260.478,94.388 260.951,93.235 262.252,91.375C262.53,90.978 263.377,88.958 263.434,88.259C262.012,83.897 261.467,79.232 262.926,74.769C263.213,73.886 263.608,72.91 264.125,72.082C265.485,69.902 268.237,68.601 270.531,70.608C274.203,73.82 271.901,81.517 270.273,85.207C269.94,85.961 269.492,86.944 268.944,88.035C268.769,88.96 268.811,90.067 268.957,90.994C269.144,92.186 270.121,93.899 271.149,94.559C272.893,95.681 274.466,94.235 275.278,92.746C276.093,91.246 276.642,89.654 277.102,88.017C277.798,85.535 278.372,83.023 279.081,80.544C279.647,78.568 280.169,76.046 281.685,74.545C283.006,73.238 284.933,73.293 285.992,74.858C286.019,74.899 286.047,74.941 286.074,74.984C287.464,77.246 285.736,79.235 284.976,81.291C284.325,83.056 283.804,84.865 283.335,86.685C282.826,88.666 282.347,90.655 281.866,92.646C280.229,99.433 278.11,106.045 276.251,112.769C276.186,112.998 278.589,115.289 278.87,115.644C281.716,119.257 283.97,123.517 284.544,128.128C284.868,130.726 284.432,133.358 283.387,135.752C283.112,136.381 282.641,135.686 282.79,135.248C285.368,127.776 281.28,121.014 275.28,116.241C274.639,118.555 274.006,120.884 273.223,123.156C271.057,129.442 267.198,135.18 260.687,137.483C258.178,138.371 254.827,138.542 252.198,138.313C241.171,137.358 232.545,126.779 234.671,115.727C234.506,115.325 234.372,114.955 234.272,114.72C233.58,113.088 233.057,111.383 232.539,109.691C230.711,103.72 229.673,97.585 229.359,91.349C229.045,85.13 229.427,78.945 230.156,72.769C230.223,72.206 230.299,71.647 230.385,71.09C230.584,69.701 230.844,69.165 231.039,66.952C229.748,69.611 228.06,72.814 226.748,75.249C225.221,78.082 224.006,80.839 222.623,84.374C221.262,87.85 219.238,94.401 218.328,95.411C217.099,96.77 216.335,92.718 216.144,91.561C215.789,89.407 215.691,87.219 215.498,85.047C215.133,80.928 215.415,76.659 215.644,72.537C215.818,69.423 216.304,66.303 216.284,63.182C216.281,62.556 216.277,61.93 216.262,61.306C216.28,62.134 215.378,63.465 215.126,64.268C211.722,75.126 209.007,86.159 203.678,96.301C200.572,102.215 196.158,109.179 189.22,111.117C186.073,111.996 180.79,111.688 177.956,109.877C174.92,107.937 173.065,104.801 172.052,101.318ZM266.695,78.244C266.772,77.944 267.21,75.337 267.231,74.111C266.419,75.296 266.115,76.53 266.065,77.957C266.05,78.39 266.044,78.823 266.044,79.257C266.043,79.719 266.173,80.351 266.065,80.796C266.272,79.944 266.476,79.092 266.695,78.244ZM253.367,89.313C253.778,86.979 253.839,84.563 253.852,82.996C253.879,80.224 252.467,76.981 249.19,77.527C246.48,77.979 244.589,80.792 243.792,83.237C243.323,84.676 242.936,86.134 242.843,87.651C242.704,89.916 242.695,92.028 244.05,93.956C245.279,95.7 247.227,96.501 249.319,95.75C252.037,94.774 252.912,91.885 253.367,89.313ZM268.75,118.583C269.73,116.338 270.917,113.333 270.915,113.333C267.993,111.7 264.567,110.267 261.762,109.634C258.002,108.786 253.676,108.62 250.03,110.023C245.862,111.626 243.633,115.658 242.299,119.72C239.311,128.808 248.151,138.185 257.121,133.626C262.742,130.769 266.305,124.187 268.75,118.583ZM167.117,89.313C167.528,86.979 167.589,84.563 167.602,82.996C167.629,80.224 166.217,76.981 162.94,77.527C160.23,77.979 158.339,80.792 157.542,83.237C157.073,84.676 156.686,86.134 156.593,87.651C156.454,89.916 156.445,92.028 157.8,93.956C159.029,95.7 160.977,96.501 163.069,95.75C165.787,94.774 166.662,91.885 167.117,89.313ZM115.9,75.025C115.929,75.066 115.955,75.108 115.984,75.158C117.374,77.42 115.646,79.409 114.887,81.465C114.236,83.23 113.715,85.039 113.247,86.859C112.737,88.841 112.258,90.831 111.779,92.82C110.141,99.607 108.024,106.219 106.163,112.943C106.1,113.172 108.501,115.463 108.782,115.818C111.627,119.431 113.881,123.691 114.457,128.302C114.781,130.9 114.343,133.532 113.299,135.926C113.024,136.555 112.552,135.86 112.703,135.422C115.28,127.95 111.192,121.188 105.193,116.415C104.551,118.729 103.919,121.058 103.136,123.33C100.969,129.616 97.109,135.354 90.599,137.657C88.09,138.545 84.739,138.716 82.11,138.487C70.949,137.52 62.248,126.696 64.665,115.499C65.169,113.162 66.089,110.892 67.512,108.96C68.517,107.594 70.611,105.008 72.294,104.487C70.48,97.93 70.098,90.704 70.843,84.106C71.074,82.067 71.426,80.021 71.814,77.971C71.303,78.095 70.793,78.186 70.282,78.256C69,78.791 67.522,79.352 66.053,79.709C64.853,80.222 63.641,80.698 62.437,81.146C62.072,81.831 61.713,82.519 61.323,83.191C55.038,94.027 48.496,107.219 33.663,105.305C22.981,103.927 21.7,88.914 22.618,80.652C23.452,73.149 25.384,65.397 30.666,59.672C37.799,51.941 52.389,54.63 52.656,65.756C52.75,69.672 49.666,73.505 45.333,76.672C44.837,77.035 44.698,76.465 45,76.172C48.758,72.53 52.146,67.924 49.602,62.662C48.737,60.874 47.252,59.363 45.415,58.584C36.72,54.897 30.843,63.366 29.289,70.677C28.335,75.164 27.717,80.173 28.663,84.706C30.12,91.686 36.133,96.643 43.283,93.936C48.617,91.915 53.752,86.442 56.682,81.612C60.771,74.872 63.111,67.322 66.051,60.051C68.968,52.837 72.154,45.43 72.906,37.63C73.13,35.303 73.24,32.928 73.897,30.67C74.22,29.561 74.68,28.463 75.366,27.527C76.363,26.167 77.94,25.397 79.347,24.544C80.482,23.856 81.704,23.371 83.142,23.152C83.618,23.079 83.829,23.82 83.835,24.153C83.95,30.299 82.91,36.384 82.21,42.47C81.469,48.909 80.7,55.345 79.978,61.787C79.636,64.835 79.162,68.019 78.694,71.264C80.28,70.639 81.837,69.941 83.333,69.096C83.414,69.05 83.497,68.998 83.578,68.952C84.473,64.386 85.629,59.864 86.854,55.381C87.337,53.612 87.752,51.821 88.336,50.08C89.355,47.046 91.313,43.587 94.897,43.342C98.377,43.104 100.148,46.638 100.249,49.695C100.305,51.416 100.114,53.231 99.82,54.924C98.823,60.672 95.793,65.48 91.387,69.217C91.155,69.413 89.308,70.48 89.292,70.679C89.29,70.697 89.293,70.716 89.29,70.734C88.199,76.963 86.288,82.613 86.482,88.744C86.632,93.473 89.958,93.337 92.494,89.704C92.772,89.307 93.056,88.874 93.341,88.428C91.92,84.066 91.375,79.401 92.833,74.938C93.121,74.055 93.516,73.079 94.033,72.251C95.394,70.071 98.146,68.77 100.44,70.777C104.112,73.989 101.809,81.686 100.182,85.376C99.849,86.13 99.4,87.114 98.852,88.204C98.336,90.936 99.361,94.325 101.871,95.042C101.914,95.066 101.949,95.104 101.993,95.126C102.033,95.125 102.068,95.113 102.108,95.111C102.143,95.117 102.172,95.132 102.207,95.138C102.966,95.273 103.555,94.912 103.885,94.394C105.638,92.972 106.433,90.242 107.011,88.183C107.708,85.702 108.281,83.189 108.99,80.711C109.555,78.735 110.078,76.213 111.594,74.712C112.914,73.405 114.842,73.46 115.9,75.025ZM95.979,78.132C95.942,79.079 95.95,80.021 95.976,80.965C96.182,80.113 96.386,79.261 96.605,78.413C96.682,78.113 97.12,75.506 97.141,74.28C96.896,74.636 96.675,75.01 96.489,75.406C96.37,75.708 96.246,76.028 96.125,76.344C96.042,76.94 96.002,77.543 95.979,78.132ZM104.271,102.134C104.46,101.41 104.644,100.683 104.852,99.965C103.538,100.643 102.122,101.024 100.674,100.946C97.282,100.763 95.569,97.835 94.847,94.617C92.561,97.411 88.075,100.407 84.825,97.095C80.884,93.082 81.692,86.634 81.954,81.499C82.1,78.635 82.432,75.793 82.875,72.967C81.347,73.711 79.77,74.399 78.165,75.046C76.916,84.344 76.186,93.957 79.088,102.439C83.363,101.926 88.272,102.606 92.319,103.71C96.152,104.754 99.286,106.444 102.006,108.835C102.805,106.609 103.598,104.381 104.271,102.134ZM98.667,118.875C99.912,115.962 100.75,113.5 100.749,113.5C97.828,111.867 94.476,110.435 91.672,109.801C87.91,108.953 83.585,108.787 79.939,110.189C75.772,111.793 73.542,115.825 72.208,119.888C69.221,128.974 78.656,138.435 87.625,133.875C93.247,131.017 96.264,124.496 98.667,118.875ZM93.365,54.179C91.828,57.505 90.998,61.013 90.297,64.566C90.363,64.227 91.635,63.483 91.924,63.236C94.348,61.165 98.757,56.554 96.193,53.149C95.234,51.875 93.994,53.329 93.365,54.179ZM64.892,76.321C67.324,75.168 69.877,74.297 72.44,73.448C72.626,71.405 72.811,69.362 72.991,67.319C73.031,63.982 73.175,60.684 73.567,57.368C73.563,56.742 73.559,56.116 73.545,55.492C71.277,61.439 68.953,67.369 66.358,73.158C65.887,74.21 65.394,75.265 64.892,76.321Z" style="fill:white;"/>
        <path d="M133.887,87.476C134.682,86.078 135.407,84.647 136.018,83.155C136.621,81.685 137.151,80.217 137.641,78.707C138.308,76.645 139.129,74.305 140.681,72.723C141.759,71.623 142.955,71.255 143.976,71.496C144.999,71.738 145.907,72.602 146.36,74.142C146.951,76.155 147.916,77.997 148.949,79.81C150.019,81.369 151.119,82.91 152.107,84.534C152.169,84.637 152.229,84.738 152.287,84.84C152.411,84.407 152.536,84.012 152.59,83.766C152.935,82.22 153.458,80.63 154.164,79.212C155.253,77.022 157.072,74.66 159.24,73.298C161.519,71.865 164.172,71.503 166.811,73.431C167.061,73.613 167.605,74.063 168.064,74.543C168.097,74.451 168.134,74.361 168.175,74.277C168.475,73.657 168.95,73.235 169.852,73.334C170.947,73.453 171.864,74.102 172.739,74.719C173.186,75.035 173.369,75.543 173.363,76.132C173.357,76.719 173.145,77.398 173.095,77.831C173.059,78.144 173.024,78.452 172.99,78.755C174.689,73.231 177.489,67.671 181.5,63.503C185.393,59.456 190.879,57.966 196.286,59.731C201.076,61.295 203.197,66.478 202.449,71.199C201.635,76.337 198.966,79.054 194.702,81.385C194.48,81.506 194.206,81.475 194.017,81.308C193.827,81.14 193.763,80.872 193.856,80.637C194.424,79.2 195.515,78.534 196.588,77.52C197.637,76.529 198.44,75.241 198.794,73.852C199.75,70.103 199.914,65.981 196.192,63.664C191.787,60.927 186.677,63.588 183.939,67.3C181.033,71.241 178.938,75.673 177.677,80.386C176.58,84.486 176.132,89.187 177.234,93.38L177.255,93.359C177.812,92.801 178.353,92.228 178.772,91.556L178.773,91.554C178.88,91.383 178.979,91.202 179.076,91.015C179.14,90.877 179.207,90.673 179.302,90.522C179.392,90.378 179.503,90.264 179.627,90.188C179.907,90.016 180.274,90.101 180.449,90.38C180.549,90.539 180.581,90.712 180.581,90.907C180.582,91.977 180.318,93.105 179.972,94.109C179.651,95.045 179.175,95.978 178.655,96.821C179.355,97.907 180.296,98.803 181.555,99.302C185.702,100.948 189.931,98.713 193.096,95.806C198.058,91.247 201.884,84.451 204.176,78.416C206.955,71.1 208.465,66.333 210.316,60.198C214.091,47.682 214.51,46.812 215.029,43.352C215.379,41.014 215.372,38.597 216.038,36.313C216.38,35.137 216.871,33.975 217.599,32.983C218.644,31.559 220.281,30.735 221.752,29.842C222.367,29.47 223.696,28.685 224.798,28.437C225.405,28.3 225.958,28.329 226.367,28.548C226.828,28.796 227.068,29.231 227.153,29.757C227.239,30.29 227.144,30.931 227.136,31.368C227.037,37.076 226.173,42.687 225.523,48.35C224.868,54.06 224.19,59.768 223.54,65.48C225.626,62.16 227.48,58.684 229.358,55.258C231.36,51.61 233.315,47.934 235.182,44.215C236.912,40.765 238.884,37.233 239.825,33.465C240.094,32.385 240.6,31.138 241.361,30.283C242.221,29.316 243.383,28.808 244.882,29.383C245.699,29.697 246.641,30.653 247.449,31.275C248.9,32.393 249.965,33.436 249.873,35.191C249.791,36.802 249.02,38.407 248.478,39.901C247.891,41.521 247.29,43.136 246.685,44.75C243.344,53.683 240.346,62.695 237.879,71.912C237.203,74.432 236.635,77.002 236.254,79.583C235.931,81.757 235.72,83.955 235.639,86.151C235.49,90.151 235.703,94.149 236.411,98.091C236.902,100.825 237.431,104.122 238.832,106.724C244.692,101.268 254.524,100.774 262.565,102.964C266.183,103.949 269.191,105.497 271.822,107.65C272.516,105.708 273.195,103.764 273.782,101.805C273.865,101.488 273.947,101.171 274.03,100.854C272.966,101.244 271.857,101.438 270.731,101.377C267.818,101.221 266.006,99.239 264.99,96.682C264.954,96.741 264.918,96.8 264.882,96.858C264.047,98.207 262.674,100.055 261.052,101.089C259.862,101.848 258.54,102.179 257.186,101.7C256.48,101.45 255.908,100.937 255.476,100.289C255.137,99.779 254.885,99.185 254.716,98.592C254.408,98.89 254.068,99.151 253.712,99.388C252.207,100.391 250.472,101.256 248.678,101.583C245.378,102.183 242.148,100.507 239.959,98.125C235.946,93.757 236.015,86.439 238.02,81.228C238.802,79.195 239.962,77.328 241.596,75.869C243.056,74.566 245.39,72.937 247.323,72.485C248.94,72.107 251.679,72.421 253.063,73.431C253.312,73.613 253.856,74.064 254.315,74.544C254.348,74.451 254.385,74.361 254.425,74.277C254.726,73.657 255.2,73.235 256.102,73.334C257.198,73.453 258.115,74.102 258.99,74.719C259.437,75.035 259.62,75.543 259.614,76.132C259.608,76.719 259.397,77.398 259.347,77.831C258.899,81.732 258.638,84.702 258.418,88.624L258.418,88.625C258.392,89.058 258.37,89.491 258.362,89.925C258.338,91.315 258.486,92.726 259.303,93.821C259.685,93.735 259.967,93.515 260.245,93.194C260.694,92.677 261.125,91.939 261.76,91.031C261.999,90.69 262.705,89.031 262.823,88.319C261.392,83.873 260.871,79.126 262.355,74.583C262.657,73.657 263.073,72.633 263.616,71.764C265.165,69.282 268.314,67.871 270.926,70.156C272.521,71.552 273.114,73.713 273.095,76.077C273.069,79.426 271.824,83.178 270.822,85.449C270.494,86.193 270.054,87.157 269.519,88.23C269.374,89.073 269.418,90.066 269.55,90.901C269.715,91.953 270.566,93.472 271.473,94.054C272.883,94.961 274.095,93.663 274.751,92.459C275.544,90.999 276.077,89.448 276.524,87.855C277.221,85.372 277.795,82.859 278.504,80.379C279.096,78.312 279.677,75.689 281.263,74.119C282.866,72.532 285.204,72.622 286.489,74.522C286.49,74.524 286.492,74.526 286.493,74.528C286.522,74.573 286.553,74.618 286.582,74.665L286.585,74.67C287.39,75.979 287.308,77.208 286.899,78.408C286.544,79.45 285.921,80.466 285.539,81.499C284.895,83.245 284.38,85.034 283.916,86.835C283.408,88.813 282.93,90.799 282.449,92.787C280.832,99.493 278.744,106.029 276.901,112.671C277.332,113.122 279.122,114.996 279.341,115.272C282.254,118.97 284.552,123.335 285.139,128.054C285.477,130.759 285.025,133.5 283.937,135.992C283.703,136.527 283.337,136.621 283.065,136.602C282.856,136.587 282.636,136.483 282.464,136.279C282.219,135.99 282.083,135.463 282.222,135.055L282.223,135.052C284.611,128.129 281.023,121.859 275.612,117.289C275.05,119.322 274.477,121.358 273.79,123.352C271.565,129.809 267.576,135.683 260.887,138.049C258.303,138.963 254.853,139.147 252.146,138.911C240.834,137.931 231.981,127.122 234.05,115.79C233.916,115.456 233.805,115.155 233.72,114.955C233.02,113.304 232.489,111.578 231.965,109.867C230.123,103.848 229.076,97.665 228.76,91.379C228.444,85.127 228.827,78.908 229.56,72.698C229.628,72.129 229.705,71.564 229.792,71.001C229.808,70.886 229.825,70.777 229.843,70.672C228.962,72.38 228.053,74.091 227.276,75.534C225.76,78.346 224.555,81.083 223.182,84.593C222.229,87.027 220.95,90.968 219.957,93.461C219.495,94.621 219.07,95.484 218.773,95.813C218.425,96.198 218.072,96.306 217.764,96.284C217.458,96.262 217.152,96.1 216.887,95.779C216.586,95.414 216.316,94.793 216.106,94.112C215.823,93.19 215.635,92.161 215.552,91.659C215.195,89.49 215.095,87.287 214.9,85.1C214.533,80.953 214.814,76.654 215.045,72.504C215.193,69.86 215.567,67.212 215.662,64.563C212.264,75.418 209.536,86.442 204.209,96.58C201.032,102.629 196.478,109.713 189.381,111.695C186.098,112.612 180.589,112.272 177.633,110.383C174.586,108.435 172.67,105.339 171.592,101.87C171.374,101.833 171.156,101.777 170.936,101.7C170.23,101.45 169.658,100.937 169.226,100.289C168.886,99.779 168.634,99.185 168.466,98.592C168.158,98.891 167.817,99.153 167.462,99.388C165.556,100.661 163.446,101.525 161.141,101.658C159.322,101.763 157.553,101.164 156.117,100.055C155.054,99.234 154.016,97.947 153.419,96.611C153.218,97.086 152.99,97.52 152.806,97.818C152.108,98.951 151.065,99.831 149.917,100.484C147.549,101.825 144.465,102.246 142.007,100.809C139.423,99.298 137.305,95.804 138.152,92.682C138.235,92.378 138.403,92.233 138.548,92.157C138.707,92.073 138.878,92.053 139.052,92.095C139.199,92.13 139.357,92.22 139.484,92.362C139.628,92.524 139.727,92.754 139.738,92.965C139.797,94.149 140.201,95.024 140.821,95.608C142.272,96.976 144.808,96.767 146.453,95.467C146.728,95.079 146.961,94.638 147.11,94.071C147.622,92.108 147.826,89.684 146.897,87.814C146.067,86.143 145.028,84.706 144.141,83.233C143.514,82.191 142.962,81.13 142.593,79.966C142.501,80.168 142.409,80.371 142.317,80.574C140.981,83.509 139.744,86.486 138.487,89.453C136.783,93.475 135.086,98.054 131.197,100.53C130.098,101.232 128.437,101.721 127.143,101.81C124.853,101.965 122.539,100.866 120.959,99.137C119.461,97.497 118.629,95.303 119.053,93.111C118.737,93.923 118.395,94.726 117.977,95.5C117.527,96.332 116.461,98.235 115.298,99.28C114.687,99.829 114.032,100.142 113.422,100.114C112.701,100.08 112.321,99.656 112.154,99.055C111.991,98.471 112.091,97.659 112.13,97.17C112.253,95.613 112.793,94.108 113.353,92.661C114.125,90.67 114.97,88.708 115.858,86.767C117.384,83.436 118.823,80.074 120.163,76.664C120.697,75.302 121.207,73.695 122.249,72.622C123.055,71.794 124.439,71.395 125.568,71.636C126.363,71.806 126.746,72.236 126.981,72.781C127.153,73.182 127.22,73.669 127.36,74.143C128.373,77.587 130.457,80.537 132.152,83.673C132.76,84.798 133.32,85.947 133.77,87.147C133.811,87.256 133.85,87.365 133.887,87.476ZM119.365,92.294C119.424,92.234 119.488,92.191 119.547,92.159C119.706,92.075 119.877,92.055 120.051,92.097C120.198,92.132 120.357,92.221 120.484,92.364C120.628,92.525 120.727,92.754 120.738,92.967L120.738,92.968C120.795,94.115 121.78,95.702 122.761,96.27C123.869,96.912 125.184,96.82 126.289,96.284C127.408,95.742 128.326,94.742 128.602,93.531C128.952,92 128.605,90.524 128.002,89.12C127.359,87.622 126.425,86.203 125.645,84.88C124.981,83.754 124.44,82.576 124.012,81.36C123.403,83.008 122.539,84.591 121.816,86.189C121.418,87.288 120.982,88.379 120.493,89.453C120.071,90.384 119.722,91.341 119.365,92.294ZM152.687,94.435C152.611,94.112 152.811,93.789 153.133,93.713C153.456,93.637 153.779,93.837 153.855,94.159C153.929,94.473 154.046,94.799 154.171,95.123C154.181,95.148 154.189,95.174 154.195,95.2C154.541,96.659 155.685,98.205 156.851,99.105C158.057,100.038 159.542,100.549 161.071,100.46C163.16,100.339 165.068,99.543 166.796,98.39L166.798,98.389C167.111,98.181 167.411,97.95 167.679,97.683C167.761,97.602 168.159,97.187 168.245,97.097C168.309,96.859 168.517,96.677 168.776,96.656C169.105,96.63 169.394,96.874 169.422,97.203C169.422,97.205 169.422,97.207 169.422,97.209C169.489,97.976 169.746,98.904 170.225,99.624C170.509,100.05 170.872,100.404 171.336,100.568C171.588,100.657 171.837,100.706 172.084,100.719C172.339,100.732 172.557,100.906 172.628,101.151C173.6,104.492 175.366,107.51 178.279,109.371C180.991,111.104 186.047,111.38 189.059,110.539C195.838,108.645 200.112,101.801 203.147,96.022C208.459,85.912 211.16,74.912 214.554,64.088C214.686,63.666 214.985,63.103 215.253,62.539C215.463,62.097 215.67,61.661 215.662,61.32C215.655,60.989 215.917,60.714 216.248,60.706C216.579,60.699 216.854,60.961 216.862,61.292C216.877,61.92 216.881,62.549 216.884,63.178C216.904,66.312 216.418,69.444 216.243,72.57C216.016,76.664 215.733,80.903 216.096,84.994C216.287,87.151 216.383,89.324 216.736,91.463C216.845,92.121 217.14,93.77 217.617,94.703C217.681,94.827 217.788,94.966 217.849,95.042C217.861,95.031 217.873,95.02 217.883,95.009C218.132,94.732 218.454,93.991 218.842,93.016C219.835,90.526 221.112,86.588 222.064,84.155C223.457,80.595 224.682,77.818 226.22,74.964C227.528,72.536 229.212,69.342 230.499,66.69C230.626,66.43 230.92,66.297 231.199,66.374C231.478,66.451 231.662,66.716 231.637,67.005C231.44,69.235 231.179,69.775 230.979,71.175C230.979,71.177 230.978,71.179 230.978,71.182C230.893,71.732 230.818,72.284 230.752,72.84C230.027,78.982 229.646,85.134 229.958,91.319C230.27,97.505 231.299,103.592 233.113,109.515C233.625,111.188 234.141,112.873 234.824,114.485C234.925,114.722 235.06,115.094 235.226,115.499C235.27,115.607 235.282,115.725 235.26,115.84C233.201,126.548 241.567,136.79 252.25,137.715C254.801,137.937 258.053,137.779 260.487,136.917C266.82,134.677 270.549,129.075 272.656,122.961C273.435,120.7 274.064,118.383 274.702,116.081C274.756,115.887 274.903,115.733 275.095,115.67C275.286,115.608 275.496,115.646 275.654,115.771C279.789,119.061 283.02,123.276 283.923,128.009C283.325,123.581 281.138,119.494 278.399,116.016C278.175,115.733 276.598,114.216 276.009,113.504C275.821,113.277 275.716,113.089 275.684,112.99C275.632,112.83 275.647,112.7 275.673,112.609C277.53,105.891 279.647,99.286 281.283,92.505C281.764,90.511 282.244,88.519 282.754,86.535C283.228,84.696 283.755,82.867 284.413,81.083C284.791,80.06 285.412,79.054 285.763,78.021C286.061,77.148 286.148,76.253 285.565,75.301C285.541,75.264 285.517,75.228 285.494,75.192C284.661,73.964 283.145,73.944 282.107,74.971C280.661,76.403 280.198,78.824 279.658,80.709C278.949,83.187 278.375,85.698 277.68,88.179C277.208,89.859 276.642,91.493 275.805,93.033C274.837,94.809 272.905,96.402 270.825,95.064C269.676,94.326 268.573,92.419 268.364,91.087C268.208,90.096 268.167,88.912 268.354,87.923C268.365,87.869 268.383,87.816 268.408,87.766C268.951,86.685 269.394,85.712 269.724,84.965C270.676,82.808 271.87,79.247 271.895,76.067C271.911,74.077 271.479,72.234 270.136,71.06C268.16,69.331 265.806,70.522 264.634,72.4C264.143,73.187 263.769,74.116 263.496,74.955C262.078,79.295 262.622,83.831 264.004,88.073C264.029,88.149 264.038,88.228 264.032,88.308C263.97,89.073 263.048,91.285 262.744,91.719C262.078,92.67 261.622,93.439 261.152,93.981C260.576,94.644 259.973,95.014 259.077,95.058C258.894,95.067 258.717,94.992 258.597,94.855C257.409,93.503 257.131,91.699 257.162,89.903C257.17,89.454 257.194,89.005 257.22,88.556C257.442,84.609 257.704,81.62 258.155,77.693C258.195,77.347 258.347,76.837 258.399,76.35C258.415,76.206 258.422,76.064 258.404,75.934C258.391,75.842 258.373,75.752 258.298,75.699C257.587,75.198 256.864,74.623 255.972,74.526C255.853,74.514 255.759,74.519 255.687,74.563C255.547,74.647 255.489,74.816 255.427,74.991C255.304,75.337 255.229,75.735 255.116,76.075C255.035,76.319 254.807,76.485 254.55,76.486C254.292,76.487 254.063,76.324 253.979,76.08C253.912,75.883 253.707,75.649 253.483,75.411C253.077,74.978 252.579,74.564 252.355,74.399C251.209,73.563 248.935,73.341 247.595,73.653C245.834,74.065 243.726,75.578 242.395,76.765C240.904,78.096 239.854,79.805 239.14,81.659C237.283,86.483 237.128,93.269 240.843,97.313C242.762,99.401 245.57,100.929 248.462,100.403C250.098,100.104 251.675,99.303 253.046,98.39C253.361,98.18 253.661,97.95 253.929,97.683C254.011,97.602 254.411,97.184 254.496,97.094C254.562,96.857 254.77,96.676 255.029,96.656C255.357,96.63 255.645,96.875 255.673,97.203C255.673,97.206 255.673,97.209 255.674,97.212C255.74,97.978 255.996,98.905 256.475,99.623C256.759,100.05 257.122,100.404 257.586,100.568C258.577,100.919 259.536,100.633 260.407,100.077C261.878,99.14 263.106,97.448 263.862,96.226C264.118,95.814 264.364,95.376 264.583,94.928C264.692,94.703 264.928,94.57 265.176,94.593C265.425,94.615 265.633,94.789 265.7,95.029C266.442,97.688 267.941,100.026 270.795,100.179C272.136,100.251 273.447,99.894 274.667,99.265C274.88,99.155 275.138,99.182 275.323,99.335C275.508,99.487 275.585,99.735 275.518,99.965C275.311,100.679 275.129,101.4 274.94,102.119C274.939,102.126 274.937,102.133 274.935,102.139C274.259,104.396 273.462,106.634 272.66,108.871C272.593,109.058 272.437,109.199 272.245,109.249C272.053,109.299 271.848,109.25 271.699,109.119C269.045,106.786 265.989,105.14 262.249,104.122C254.355,101.972 244.625,102.431 239.132,108.11C239.004,108.242 238.822,108.309 238.639,108.289C238.455,108.27 238.291,108.168 238.193,108.012C236.426,105.2 235.788,101.409 235.229,98.303C234.507,94.277 234.288,90.193 234.439,86.107C234.522,83.867 234.737,81.625 235.066,79.407C235.455,76.78 236.032,74.166 236.719,71.602C239.196,62.347 242.206,53.299 245.561,44.33C246.164,42.72 246.765,41.108 247.35,39.492C247.853,38.105 248.599,36.624 248.675,35.129C248.745,33.794 247.82,33.075 246.717,32.226C245.996,31.671 245.181,30.783 244.452,30.503C243.516,30.144 242.795,30.477 242.257,31.081C241.62,31.797 241.214,32.85 240.989,33.755C240.028,37.608 238.024,41.225 236.254,44.753C234.381,48.486 232.42,52.174 230.41,55.835C228.11,60.032 225.842,64.303 223.151,68.275C222.995,68.504 222.702,68.597 222.442,68.499C222.183,68.402 222.024,68.138 222.059,67.863C222.072,67.754 222.088,67.639 222.101,67.53C222.824,61.088 223.592,54.652 224.331,48.214C224.977,42.589 225.837,37.016 225.936,31.348C225.942,31.018 226.011,30.562 225.988,30.141C225.977,29.925 225.98,29.702 225.799,29.606C225.69,29.547 225.553,29.544 225.403,29.555C225.174,29.571 224.923,29.634 224.665,29.72C223.784,30.016 222.846,30.583 222.374,30.868C221.034,31.681 219.518,32.397 218.567,33.693C217.921,34.573 217.494,35.607 217.19,36.649C216.54,38.881 216.557,41.244 216.215,43.53C215.692,47.024 215.277,47.905 211.464,60.544C209.605,66.707 208.089,71.494 205.298,78.842C202.944,85.039 199.002,92.009 193.908,96.69C190.409,99.903 185.696,102.236 181.113,100.418C179.479,99.77 178.282,98.573 177.431,97.12C177.317,96.925 177.322,96.683 177.444,96.493C177.502,96.402 177.558,96.313 177.612,96.226C178.095,95.448 178.54,94.585 178.838,93.719C178.888,93.573 178.937,93.424 178.983,93.272C178.704,93.595 178.408,93.903 178.106,94.206C177.858,94.455 177.608,94.712 177.344,94.952C177.193,95.089 176.984,95.14 176.787,95.088C176.59,95.036 176.433,94.888 176.37,94.694C174.856,90.057 175.28,84.702 176.517,80.076C177.818,75.217 179.977,70.649 182.973,66.588C186.059,62.404 191.862,59.561 196.826,62.644C201.046,65.271 201.04,69.897 199.956,74.148C199.724,75.06 199.326,75.936 198.804,76.732C200.049,75.24 200.882,73.419 201.263,71.011C201.923,66.854 200.132,62.249 195.914,60.871C190.959,59.254 185.933,60.626 182.364,64.335C178.272,68.588 175.495,74.343 173.881,79.971C173.18,82.418 172.632,84.956 172.23,87.494C172.18,87.811 171.891,88.032 171.572,87.997C171.254,87.962 171.019,87.684 171.039,87.364C171.246,83.983 171.498,81.215 171.903,77.693C171.943,77.347 172.095,76.837 172.148,76.35C172.164,76.206 172.17,76.064 172.152,75.934C172.14,75.842 172.122,75.752 172.047,75.699C171.336,75.198 170.613,74.623 169.722,74.526C169.603,74.513 169.509,74.519 169.437,74.563C169.296,74.647 169.238,74.816 169.176,74.991C169.053,75.337 168.979,75.734 168.867,76.074C168.786,76.319 168.558,76.485 168.3,76.486C168.042,76.487 167.813,76.324 167.729,76.08C167.662,75.883 167.457,75.649 167.233,75.411C166.826,74.978 166.328,74.564 166.103,74.399C163.934,72.814 161.752,73.136 159.878,74.314C157.892,75.563 156.237,77.739 155.238,79.746C154.574,81.08 154.085,82.574 153.762,84.026C153.674,84.42 153.402,85.204 153.249,85.901C153.205,86.102 153.171,86.295 153.159,86.464C153.153,86.557 153.144,86.638 153.166,86.696C153.283,87.006 153.127,87.353 152.818,87.47C152.508,87.587 152.161,87.431 152.044,87.122C151.798,86.473 151.488,85.827 151.081,85.158C150.1,83.544 149.007,82.015 147.944,80.466C147.935,80.453 147.926,80.439 147.918,80.424C146.835,78.525 145.829,76.591 145.208,74.48C144.908,73.459 144.378,72.824 143.7,72.664C143.02,72.503 142.255,72.831 141.537,73.563C140.113,75.015 139.396,77.183 138.783,79.077C138.283,80.616 137.743,82.113 137.128,83.611C136.404,85.378 135.527,87.063 134.561,88.708C134.445,88.906 134.354,89.109 134.257,89.31C134.147,89.538 133.906,89.673 133.655,89.647C133.403,89.621 133.195,89.44 133.134,89.195C132.996,88.642 132.843,88.092 132.646,87.569C132.216,86.421 131.678,85.32 131.096,84.243C129.361,81.034 127.245,78.007 126.208,74.481C126.103,74.125 126.046,73.76 125.944,73.436C125.852,73.144 125.713,72.894 125.318,72.81C124.567,72.649 123.645,72.908 123.109,73.458C122.175,74.421 121.759,75.882 121.279,77.102C119.931,80.534 118.484,83.916 116.95,87.267C116.07,89.186 115.235,91.126 114.471,93.095C113.953,94.434 113.441,95.823 113.326,97.265C113.3,97.597 113.221,98.11 113.274,98.547C113.295,98.717 113.294,98.906 113.478,98.916C113.682,98.925 113.885,98.832 114.092,98.7C114.374,98.519 114.652,98.258 114.919,97.96C115.805,96.972 116.566,95.586 116.921,94.93C117.956,93.015 118.506,90.926 119.401,88.957C119.878,87.906 120.304,86.84 120.693,85.766C120.698,85.751 120.704,85.737 120.71,85.723C121.69,83.554 122.951,81.435 123.417,79.121C123.472,78.846 123.711,78.646 123.992,78.64C124.272,78.634 124.52,78.823 124.587,79.096C125.035,80.905 125.721,82.646 126.679,84.27C127.484,85.635 128.442,87.102 129.105,88.647C129.808,90.286 130.181,92.011 129.772,93.799C129.415,95.358 128.255,96.665 126.812,97.364C125.354,98.07 123.622,98.155 122.159,97.308C121.44,96.892 120.719,96.052 120.216,95.131C120.417,96.309 121.015,97.419 121.845,98.327C123.18,99.789 125.125,100.744 127.061,100.612C128.175,100.537 129.606,100.122 130.551,99.518C134.234,97.174 135.769,92.793 137.383,88.985C138.643,86.008 139.885,83.023 141.225,80.078C141.564,79.329 141.902,78.579 142.24,77.829C142.35,77.584 142.61,77.443 142.876,77.483C143.142,77.523 143.349,77.735 143.382,78.001C143.602,79.749 144.317,81.198 145.169,82.614C146.072,84.114 147.126,85.578 147.971,87.28C149.026,89.401 148.852,92.148 148.27,94.375C148.07,95.14 147.752,95.726 147.374,96.241C147.344,96.282 147.309,96.319 147.27,96.351C145.174,98.063 141.875,98.251 139.998,96.481C139.79,96.286 139.599,96.066 139.427,95.822C139.962,97.474 141.222,98.959 142.613,99.773C144.699,100.993 147.315,100.579 149.325,99.44C150.299,98.887 151.192,98.15 151.784,97.19C152.032,96.786 152.377,96.096 152.571,95.432C152.678,95.064 152.751,94.707 152.687,94.435ZM261.894,109.049C264.748,109.693 271.435,112.566 271.529,113.352C271.64,114.281 270.185,116.795 269.3,118.823C266.803,124.546 263.133,131.243 257.393,134.161C247.934,138.968 238.578,129.116 241.729,119.533C243.118,115.303 245.474,111.132 249.815,109.463C253.569,108.018 258.023,108.176 261.894,109.049ZM270.163,113.604C267.397,112.105 264.24,110.808 261.63,110.219C257.981,109.396 253.783,109.222 250.245,110.583C246.25,112.12 244.148,116.013 242.869,119.907C240.044,128.5 248.368,137.402 256.849,133.091C262.351,130.295 265.807,123.828 268.2,118.343C268.935,116.659 269.788,114.544 270.163,113.604ZM266.648,80.938C266.57,81.26 266.245,81.457 265.923,81.379C265.601,81.301 265.404,80.976 265.482,80.654C265.58,80.25 265.443,79.676 265.444,79.256C265.444,78.815 265.45,78.376 265.465,77.936C265.52,76.39 265.856,75.056 266.736,73.772C266.886,73.553 267.161,73.459 267.413,73.539C267.666,73.62 267.835,73.856 267.831,74.121C267.809,75.389 267.356,78.084 267.276,78.394C267.058,79.239 266.854,80.088 266.648,80.938ZM167.708,89.417C167.217,92.191 166.203,95.262 163.272,96.315C160.907,97.164 158.699,96.273 157.309,94.301C155.871,92.255 155.847,90.019 155.994,87.614C156.09,86.046 156.487,84.538 156.972,83.051C157.831,80.413 159.918,77.423 162.841,76.935C166.533,76.32 168.232,79.879 168.202,83.002C168.189,84.593 168.125,87.047 167.708,89.417ZM166.526,89.209C166.931,86.911 166.989,84.533 167.002,82.991C167.026,80.568 165.902,77.642 163.039,78.119C160.542,78.535 158.847,81.17 158.112,83.423C157.659,84.814 157.282,86.222 157.192,87.688C157.061,89.813 157.019,91.801 158.291,93.611C159.359,95.127 161.048,95.838 162.866,95.185C165.371,94.286 166.107,91.579 166.526,89.209ZM253.958,89.417C253.467,92.191 252.453,95.262 249.522,96.315C247.157,97.164 244.949,96.273 243.559,94.301C242.121,92.255 242.097,90.019 242.244,87.614C242.34,86.046 242.737,84.538 243.222,83.051C244.081,80.413 246.168,77.423 249.091,76.935C252.783,76.32 254.482,79.879 254.452,83.002C254.439,84.593 254.375,87.047 253.958,89.417ZM252.776,89.209C253.181,86.911 253.239,84.533 253.252,82.991C253.276,80.568 252.152,77.642 249.289,78.119C246.792,78.535 245.097,81.17 244.362,83.423C243.909,84.814 243.532,86.222 243.442,87.688C243.311,89.813 243.269,91.801 244.541,93.611C245.609,95.127 247.298,95.838 249.116,95.185C251.621,94.286 252.357,91.579 252.776,89.209ZM89.859,70.961C88.772,77.099 86.89,82.676 87.082,88.725C87.132,90.312 87.517,91.283 88.207,91.637C88.667,91.874 89.23,91.779 89.824,91.463C90.552,91.075 91.306,90.358 92.002,89.36C92.226,89.041 92.454,88.697 92.683,88.342C91.289,83.939 90.795,79.245 92.263,74.752C92.565,73.825 92.982,72.802 93.524,71.933C95.074,69.451 98.223,68.04 100.835,70.325C102.43,71.721 103.023,73.882 103.004,76.246C102.977,79.595 101.732,83.347 100.731,85.618C100.403,86.362 99.963,87.327 99.426,88.399C99.166,89.882 99.389,91.563 100.098,92.817C100.543,93.605 101.184,94.222 102.036,94.465C102.077,94.477 102.116,94.493 102.154,94.513C102.172,94.514 102.191,94.516 102.209,94.52C102.245,94.526 102.301,94.542 102.331,94.551C102.805,94.627 103.172,94.397 103.379,94.072C103.414,94.017 103.457,93.969 103.507,93.928C105.169,92.58 105.885,89.973 106.433,88.021C107.131,85.539 107.704,83.025 108.413,80.546C109.004,78.479 109.586,75.856 111.172,74.286C112.773,72.7 115.11,72.789 116.395,74.685C116.43,74.736 116.463,74.789 116.499,74.85C117.299,76.157 117.217,77.384 116.809,78.582C116.455,79.624 115.831,80.64 115.45,81.673C114.806,83.419 114.291,85.208 113.828,87.008C113.319,88.987 112.841,90.975 112.362,92.961C110.744,99.667 108.658,106.204 106.813,112.845C107.245,113.297 109.034,115.169 109.252,115.446L109.253,115.447C112.165,119.145 114.463,123.509 115.052,128.228C115.39,130.933 114.936,133.674 113.849,136.166C113.615,136.701 113.249,136.795 112.977,136.776C112.767,136.761 112.548,136.657 112.375,136.453C112.13,136.163 111.995,135.635 112.136,135.226C114.523,128.303 110.935,122.033 105.525,117.463C104.962,119.495 104.39,121.532 103.703,123.526C101.477,129.983 97.487,135.857 90.799,138.223C88.215,139.137 84.765,139.321 82.058,139.085C70.549,138.088 61.586,126.919 64.078,115.372C64.6,112.953 65.556,110.604 67.029,108.604C67.648,107.762 68.672,106.469 69.765,105.454C70.362,104.898 70.985,104.427 71.577,104.134C69.862,97.641 69.513,90.538 70.247,84.039C70.446,82.277 70.735,80.511 71.06,78.741C70.854,78.778 70.648,78.811 70.444,78.839C69.165,79.37 67.701,79.922 66.246,80.279C65.122,80.759 63.988,81.206 62.86,81.629C62.528,82.254 62.198,82.879 61.842,83.492C58.675,88.951 55.437,95 51.129,99.447C46.728,103.991 41.222,106.885 33.586,105.9C29.094,105.321 26.169,102.465 24.355,98.67C21.719,93.156 21.461,85.634 22.022,80.586C22.87,72.958 24.855,65.085 30.225,59.265C37.704,51.159 52.976,54.075 53.256,65.742C53.354,69.822 50.202,73.856 45.687,77.156C45.317,77.427 45.007,77.416 44.802,77.351C44.581,77.28 44.413,77.126 44.318,76.91C44.181,76.598 44.23,76.083 44.582,75.741C48.158,72.276 51.482,67.929 49.062,62.923C48.259,61.264 46.885,59.859 45.181,59.136C36.88,55.616 31.36,63.822 29.876,70.802C28.939,75.21 28.321,80.13 29.25,84.583C30.631,91.196 36.297,95.939 43.07,93.375C48.29,91.397 53.302,86.027 56.169,81.301C60.241,74.588 62.567,67.067 65.495,59.826C68.39,52.665 71.562,45.315 72.309,37.572C72.536,35.208 72.653,32.796 73.321,30.502C73.663,29.327 74.155,28.164 74.882,27.172C75.926,25.749 77.563,24.924 79.036,24.031C80.237,23.303 81.53,22.791 83.051,22.559C83.48,22.493 83.831,22.683 84.078,23.028C84.314,23.358 84.43,23.855 84.435,24.142C84.55,30.315 83.509,36.426 82.806,42.539C82.065,48.977 81.296,55.412 80.574,61.854C80.268,64.583 79.856,67.421 79.437,70.315C80.664,69.801 81.87,69.233 83.037,68.574C83.039,68.573 83.04,68.572 83.041,68.572C83.932,64.081 85.07,59.633 86.275,55.223C86.761,53.443 87.18,51.641 87.767,49.889C88.858,46.642 91.02,43.006 94.856,42.743C98.695,42.481 100.737,46.303 100.849,49.675C100.906,51.436 100.712,53.294 100.411,55.027C99.39,60.916 96.289,65.846 91.775,69.675C91.597,69.825 90.213,70.73 89.859,70.961ZM113.837,128.191C113.238,123.76 111.051,119.67 108.311,116.19C108.087,115.907 106.511,114.391 105.922,113.678C105.735,113.452 105.629,113.265 105.597,113.167C105.545,113.008 105.559,112.877 105.585,112.783C107.444,106.066 109.559,99.46 111.196,92.679C111.675,90.687 112.155,88.694 112.666,86.71C113.139,84.87 113.666,83.041 114.324,81.257C114.702,80.234 115.322,79.228 115.673,78.195C115.971,77.322 116.058,76.425 115.473,75.472C115.47,75.468 115.468,75.463 115.465,75.459C115.446,75.426 115.429,75.398 115.41,75.371C115.408,75.368 115.405,75.365 115.403,75.361C114.571,74.131 113.054,74.111 112.016,75.138C110.57,76.57 110.106,78.991 109.567,80.876C108.858,83.353 108.285,85.865 107.589,88.345C106.988,90.483 106.129,93.291 104.337,94.797C103.879,95.459 103.099,95.905 102.105,95.729C102.094,95.727 102.081,95.725 102.067,95.721C102.046,95.724 102.025,95.725 102.008,95.726C101.91,95.728 101.813,95.707 101.725,95.663C101.692,95.646 101.645,95.615 101.608,95.59C100.499,95.242 99.641,94.447 99.053,93.407C98.2,91.899 97.927,89.868 98.262,88.093C98.273,88.038 98.291,87.984 98.316,87.934C98.859,86.855 99.303,85.881 99.633,85.134C100.584,82.977 101.778,79.416 101.804,76.236C101.82,74.246 101.388,72.403 100.045,71.229C98.069,69.5 95.714,70.691 94.542,72.569C94.05,73.356 93.677,74.285 93.403,75.124C91.986,79.464 92.53,84 93.911,88.242C93.967,88.413 93.943,88.6 93.847,88.751C93.557,89.204 93.268,89.644 92.986,90.048C91.986,91.48 90.859,92.399 89.837,92.768C89.04,93.057 88.291,93.03 87.659,92.705C86.703,92.214 85.952,90.961 85.882,88.763C85.687,82.602 87.594,76.922 88.692,70.673C88.693,70.653 88.694,70.629 88.696,70.613C88.704,70.536 88.728,70.445 88.786,70.346C88.832,70.267 88.944,70.137 89.125,69.996C89.608,69.619 90.816,68.914 91,68.759C95.297,65.114 98.256,60.427 99.229,54.821C99.516,53.168 99.704,51.395 99.649,49.715C99.559,46.972 98.06,43.727 94.938,43.941C93.32,44.051 92.076,44.899 91.115,46.05C90.098,47.268 89.392,48.821 88.905,50.271C88.324,52.001 87.913,53.781 87.433,55.539C86.212,60.008 85.059,64.516 84.167,69.067C84.133,69.239 84.026,69.387 83.874,69.474C83.793,69.52 83.71,69.572 83.629,69.618C82.108,70.477 80.526,71.187 78.914,71.822C78.715,71.901 78.489,71.867 78.322,71.735C78.154,71.602 78.07,71.39 78.1,71.178C78.567,67.94 79.04,64.762 79.382,61.72C80.104,55.278 80.873,48.841 81.614,42.401C82.311,36.342 83.35,30.283 83.235,24.164C83.234,24.076 83.152,23.865 83.111,23.764C81.809,23.979 80.695,24.429 79.658,25.057C78.317,25.87 76.8,26.585 75.85,27.882C75.205,28.761 74.777,29.795 74.473,30.838C73.827,33.06 73.724,35.398 73.503,37.688C72.746,45.545 69.546,53.009 66.607,60.276C63.655,67.577 61.301,75.156 57.195,81.923C54.202,86.857 48.944,92.433 43.496,94.497C35.969,97.347 29.609,92.176 28.076,84.829C27.113,80.216 27.731,75.118 28.702,70.552C30.327,62.91 36.56,54.177 45.649,58.032C47.619,58.867 49.215,60.484 50.142,62.401C52.075,66.399 50.796,70.053 48.45,73.212C50.7,70.894 52.118,68.361 52.056,65.77C51.802,55.184 37.894,52.723 31.107,60.079C25.913,65.709 24.034,73.34 23.214,80.718C22.674,85.584 22.897,92.838 25.437,98.153C27.074,101.577 29.687,104.187 33.74,104.71C40.937,105.639 46.119,102.894 50.268,98.612C54.51,94.232 57.686,88.266 60.804,82.89C61.19,82.224 61.546,81.542 61.907,80.864C61.976,80.734 62.09,80.635 62.228,80.584C63.423,80.139 64.626,79.667 65.817,79.157C65.848,79.144 65.879,79.134 65.911,79.126C67.349,78.776 68.796,78.226 70.051,77.702C70.099,77.682 70.149,77.669 70.201,77.662C70.692,77.594 71.182,77.507 71.673,77.388C71.871,77.34 72.08,77.396 72.227,77.536C72.375,77.676 72.441,77.882 72.404,78.083C72.018,80.118 71.669,82.149 71.439,84.173C70.703,90.698 71.079,97.843 72.872,104.327C72.959,104.64 72.781,104.964 72.471,105.06C71.869,105.247 71.216,105.743 70.582,106.333C69.548,107.294 68.582,108.519 67.995,109.316C66.622,111.18 65.738,113.371 65.252,115.626C62.91,126.473 71.349,136.952 82.162,137.889C84.713,138.111 87.965,137.953 90.399,137.091C96.731,134.851 100.461,129.249 102.569,123.134C103.348,120.874 103.976,118.557 104.615,116.255C104.669,116.061 104.816,115.907 105.008,115.844C105.199,115.782 105.409,115.82 105.567,115.945C109.704,119.237 112.936,123.455 113.837,128.191ZM89.708,64.45C90.419,60.85 91.263,57.297 92.82,53.927C92.837,53.89 92.858,53.855 92.883,53.822C93.236,53.344 93.771,52.705 94.343,52.355C94.719,52.125 95.116,52.013 95.503,52.057C95.9,52.102 96.307,52.303 96.672,52.788C97.836,54.333 97.767,56.095 97.049,57.806C96.065,60.155 93.824,62.402 92.314,63.692C92.152,63.831 91.694,64.121 91.295,64.413C91.128,64.535 90.91,64.734 90.856,64.784C90.753,65.05 90.471,65.212 90.182,65.155C89.857,65.091 89.645,64.776 89.708,64.451C89.708,64.451 89.708,64.45 89.708,64.45ZM91.23,63.001C91.363,62.91 91.472,62.833 91.534,62.78C92.933,61.585 95.03,59.518 95.943,57.342C96.49,56.037 96.601,54.689 95.714,53.51C95.599,53.358 95.492,53.263 95.367,53.249C95.232,53.234 95.1,53.299 94.968,53.38C94.542,53.64 94.157,54.12 93.884,54.487L93.882,54.491C92.624,57.229 91.852,60.093 91.23,63.001ZM91.804,109.216C94.657,109.861 101.363,112.556 101.354,113.534C101.345,114.589 100.348,116.469 99.219,119.111C96.763,124.855 93.642,131.489 87.897,134.41C78.45,139.213 68.492,129.271 71.638,119.701C73.027,115.47 75.384,111.299 79.724,109.629C83.478,108.185 87.931,108.343 91.804,109.216ZM100.016,113.781C97.253,112.278 94.155,110.978 91.54,110.386C87.889,109.563 83.692,109.389 80.154,110.749C76.16,112.287 74.057,116.18 72.778,120.075C69.95,128.677 78.862,137.657 87.353,133.34C92.852,130.545 95.765,124.137 98.115,118.639C99.024,116.513 99.715,114.628 100.016,113.781ZM95.379,78.109C95.403,77.5 95.445,76.877 95.531,76.261C95.537,76.216 95.548,76.172 95.565,76.129C95.686,75.812 95.811,75.49 95.931,75.186C95.935,75.174 95.941,75.162 95.946,75.151C96.146,74.725 96.383,74.323 96.647,73.94C96.797,73.722 97.072,73.628 97.324,73.709C97.576,73.789 97.745,74.026 97.741,74.29C97.719,75.558 97.266,78.253 97.186,78.563C96.968,79.408 96.764,80.257 96.559,81.106C96.489,81.398 96.212,81.593 95.913,81.562C95.614,81.53 95.385,81.282 95.376,80.982C95.35,80.024 95.342,79.069 95.379,78.109ZM104.846,102.306C104.17,104.563 103.373,106.802 102.571,109.038C102.504,109.225 102.348,109.366 102.156,109.416C101.964,109.466 101.759,109.417 101.61,109.286C98.957,106.954 95.9,105.307 92.161,104.289C88.184,103.204 83.361,102.531 79.159,103.035C78.878,103.068 78.612,102.901 78.52,102.633C75.589,94.066 76.309,84.357 77.57,74.966C77.599,74.752 77.74,74.57 77.941,74.49C79.533,73.848 81.097,73.165 82.612,72.428C82.813,72.33 83.052,72.352 83.232,72.485C83.411,72.617 83.502,72.839 83.468,73.06C83.028,75.865 82.698,78.686 82.553,81.53C82.424,84.07 82.156,86.935 82.411,89.662C82.656,92.279 83.382,94.769 85.253,96.675C86.684,98.132 88.389,98.187 89.986,97.584C91.703,96.937 93.3,95.56 94.383,94.237C94.528,94.059 94.762,93.98 94.985,94.033C95.209,94.086 95.382,94.262 95.432,94.486C96.094,97.435 97.598,100.179 100.706,100.347C102.048,100.419 103.359,100.06 104.577,99.432C104.79,99.322 105.048,99.349 105.233,99.502C105.418,99.654 105.495,99.902 105.428,100.132C105.222,100.845 105.039,101.567 104.852,102.286C104.85,102.292 104.848,102.299 104.846,102.306ZM103.693,101.972C103.776,101.655 103.858,101.338 103.94,101.021C102.878,101.411 101.768,101.606 100.642,101.545C97.358,101.368 95.474,98.866 94.552,95.849C93.412,97.025 91.95,98.126 90.409,98.707C88.379,99.473 86.216,99.369 84.397,97.515C82.327,95.408 81.487,92.668 81.216,89.774C80.955,86.989 81.222,84.063 81.355,81.468C81.483,78.962 81.752,76.472 82.112,73.994C81,74.512 79.864,75.002 78.714,75.471C77.527,84.402 76.844,93.611 79.504,101.79C83.735,101.373 88.513,102.05 92.477,103.131C96.094,104.116 99.103,105.664 101.733,107.817C102.427,105.876 103.106,103.931 103.693,101.972ZM64.35,76.063C64.85,75.012 65.341,73.961 65.81,72.913C68.401,67.134 70.72,61.215 72.984,55.278C73.087,55.01 73.364,54.852 73.647,54.901C73.93,54.95 74.138,55.192 74.145,55.479C74.159,56.106 74.163,56.735 74.167,57.364C74.167,57.389 74.166,57.414 74.163,57.438C73.773,60.733 73.631,64.01 73.591,67.326C73.591,67.341 73.59,67.357 73.589,67.372C73.409,69.415 73.224,71.459 73.038,73.502C73.016,73.74 72.855,73.942 72.629,74.018C70.089,74.859 67.559,75.721 65.149,76.863C64.92,76.972 64.647,76.925 64.468,76.745C64.288,76.566 64.241,76.293 64.35,76.063ZM72.775,59.172C70.919,63.964 69.001,68.73 66.906,73.403C66.651,73.972 66.39,74.541 66.125,75.111C68.002,74.314 69.936,73.648 71.878,73.002C72.051,71.098 72.224,69.193 72.391,67.291C72.424,64.569 72.527,61.873 72.775,59.172Z" style="fill:rgb(88,88,162);"/>
    </g>
</svg>
