<?xml version="1.0" encoding="UTF-8" standalone="no"?>
<!DOCTYPE svg PUBLIC "-//W3C//DTD SVG 1.1//EN" "http://www.w3.org/Graphics/SVG/1.1/DTD/svg11.dtd">
<svg width="100%" height="100%" viewBox="0 0 1296 688" version="1.1" xmlns="http://www.w3.org/2000/svg" xmlns:xlink="http://www.w3.org/1999/xlink" xml:space="preserve" xmlns:serif="http://www.serif.com/" style="fill-rule:evenodd;clip-rule:evenodd;stroke-linejoin:round;stroke-miterlimit:2;">
    <g transform="matrix(4.16667,0,0,4.16667,0,0)">
        <g id="Layer1" transform="matrix(0.10217,0,0,0.10217,16.7468,-56.3323)">
            <g>
                <path d="M1637.06,1067.52C1635.44,1177.5 1642.98,1203.07 1643.04,1229.58C1643.06,1238.33 1638.64,1247.51 1630.2,1255.7C1615.36,1270.1 1587.08,1282.19 1562.87,1284.89C1533.78,1288.14 1511.59,1277.3 1511.43,1252.43C1511.13,1206.27 1521.72,1213.05 1516.22,969.587C1513.29,840.021 1493,771.583 1489.66,731.481C1488.32,715.436 1489.66,703.22 1494.34,693.278C1499.31,682.754 1507.94,674.34 1522.5,667.19C1539.27,658.956 1563.24,652.593 1582.53,654.28C1594.24,655.304 1604.37,659.255 1611.48,666.283C1618.84,673.558 1623.51,684.263 1622.39,699.82C1620.42,727.103 1620.3,754.947 1620.84,778.619C1642.66,738.304 1674.93,710.536 1710.68,699.767C1744.03,689.723 1771.88,690.469 1795.1,698.256C1829.92,709.933 1854.7,737.7 1871.73,771.458C1883.78,795.345 1891.96,822.202 1897.4,847.756C1956.42,748.623 2040.81,713.804 2098.25,719.417C2159.61,725.413 2197.99,747.269 2221.24,776.959C2243.01,804.76 2251.63,839.837 2252.43,876.824C2253.55,929.433 2238.8,985.932 2226.93,1028.47C2201.73,1118.75 2145.8,1234.68 2110.91,1390.72C2073.95,1555.99 2099.79,1658.32 2146.58,1721.25C2194.81,1786.12 2264.69,1808.35 2306.2,1815.19C2322.68,1817.9 2334.31,1818.31 2337.53,1817.71C2363.13,1812.97 2378.91,1812.14 2387.71,1813.35C2394.41,1814.27 2398.63,1816.51 2401.21,1818.75L2403.65,1821.36L2405.56,1824.65L2406.65,1828.29L2406.87,1831.84L2406.29,1835.58L2405.19,1838.69C2404.21,1840.88 2402.69,1843.27 2400.61,1845.7C2394.86,1852.41 2383.65,1860.36 2373.26,1866.21C2295.16,1910.19 2213.67,1897.63 2145.6,1862.37C2078.58,1827.65 2024.88,1770.88 2000.81,1726.44C1946.72,1626.55 1942.58,1544.26 1976,1413.82C1997.71,1329.1 2035.49,1223.53 2085.59,1078.18C2106.94,1016.22 2113.29,967.602 2107.76,934.721C2104.69,916.443 2098.23,903.544 2087.63,897.605C2079.29,892.931 2068.79,893.105 2056.68,897.277C2041.92,902.363 2025.31,913.22 2007.26,929.922C1969.14,965.192 1936.26,1032.51 1928.94,1048.1C1932.43,1071.24 1950.1,1197.9 1939.47,1327.08C1936.13,1367.57 1924.45,1430.24 1897.36,1470.47C1877.22,1500.38 1848.98,1518.5 1810.69,1511.28C1755.03,1500.77 1731.65,1449.56 1729.21,1381.16C1724.34,1244.06 1801.83,1037.15 1811.12,1012.86C1810.75,1000.64 1808.81,946.463 1803.89,928.37C1795.06,895.933 1780.36,871.95 1762.68,858.461C1747.11,846.584 1729.27,843.454 1712.26,851.085C1697.28,857.803 1683.24,872.193 1671.29,894.438C1651.63,931.006 1638.23,987.764 1637.06,1067.52ZM1624.83,1067.34C1628.86,792.755 1776.96,782.872 1815.69,925.157C1821.44,946.275 1823.43,1014.97 1823.43,1014.97C1823.43,1014.97 1645.66,1467.68 1812.96,1499.25C1895.24,1514.78 1921.95,1390.78 1927.28,1326.08C1938.92,1184.67 1916.29,1046.32 1916.29,1046.32C1916.29,1046.32 1954.22,962.332 1998.95,920.943C2096.87,830.336 2158.93,902.933 2097.16,1082.16C1972.25,1444.53 1923.99,1558.87 2011.57,1720.61C2057.96,1806.28 2219.04,1939.02 2367.26,1855.55C2392.53,1841.32 2424.16,1814.12 2339.75,1829.74C2319.5,1833.49 2003.75,1813.84 2098.97,1388.05C2133.92,1231.75 2189.9,1115.61 2215.14,1025.18C2242.76,926.256 2287.12,750.165 2097.06,731.593C2037.07,725.731 1947.08,767.72 1891.35,885.116C1880.48,801.705 1840.96,673.307 1714.21,711.482C1667,725.7 1626.99,772.297 1611.33,838.37C1610.41,822.742 1605.83,759.476 1610.18,698.942C1613.36,654.743 1557.84,663.466 1527.89,678.171C1470.41,706.4 1523.55,752.699 1528.45,969.311C1533.95,1212.94 1523.37,1206.16 1523.66,1252.35C1523.94,1296.29 1630.87,1262.28 1630.8,1229.6C1630.75,1203.06 1623.21,1177.46 1624.83,1067.34ZM1856.29,1117.23C1856.29,1117.23 1900.81,1418.29 1831.41,1410.85C1757.94,1402.98 1856.29,1117.23 1856.29,1117.23ZM1851.02,1174.68C1836.94,1222.59 1818.81,1293.06 1816.61,1344.48C1815.89,1361.2 1816.78,1375.75 1820.56,1386.35C1822.96,1393.09 1826.41,1398.01 1832.71,1398.69C1838.2,1399.28 1841.67,1395.24 1844.74,1389.59C1849.98,1379.93 1853.18,1365.81 1855.25,1349.2C1861.63,1298.02 1856.27,1224.72 1851.02,1174.68Z" style="fill:rgb(88,88,162);"/>
                <path d="M1624.83,1067.34C1623.21,1177.46 1630.75,1203.06 1630.8,1229.6C1630.87,1262.28 1523.94,1296.29 1523.66,1252.35C1523.37,1206.16 1533.95,1212.94 1528.45,969.311C1523.55,752.699 1470.41,706.4 1527.89,678.171C1557.84,663.466 1613.36,654.743 1610.18,698.942C1605.83,759.476 1610.41,822.742 1611.33,838.37C1626.99,772.297 1667,725.7 1714.21,711.482C1840.96,673.307 1880.48,801.705 1891.35,885.116C1947.08,767.72 2037.07,725.731 2097.06,731.593C2287.12,750.165 2242.76,926.256 2215.14,1025.18C2189.9,1115.61 2133.92,1231.75 2098.97,1388.05C2003.75,1813.84 2319.5,1833.49 2339.75,1829.74C2424.16,1814.12 2392.53,1841.32 2367.26,1855.55C2219.04,1939.02 2057.96,1806.28 2011.57,1720.61C1923.99,1558.87 1972.25,1444.53 2097.16,1082.16C2158.93,902.933 2096.87,830.336 1998.95,920.943C1954.22,962.332 1916.29,1046.32 1916.29,1046.32C1916.29,1046.32 1938.92,1184.67 1927.28,1326.08C1921.95,1390.78 1895.24,1514.78 1812.96,1499.25C1645.66,1467.68 1823.43,1014.97 1823.43,1014.97C1823.43,1014.97 1821.44,946.275 1815.69,925.157C1776.96,782.872 1628.86,792.755 1624.83,1067.34ZM1856.29,1117.23C1856.29,1117.23 1757.94,1402.98 1831.41,1410.85C1900.81,1418.29 1856.29,1117.23 1856.29,1117.23Z" style="fill:white;"/>
                <g transform="matrix(1,0,0,1,-615.609,1.06136)">
                    <path d="M2287.09,1532.25C2264.65,1568.66 2238.77,1581.06 2215.25,1579.61C2198.85,1578.59 2182.92,1570.76 2168.99,1557.94C2149.89,1540.37 2134.46,1513.3 2126.84,1484.18C2092.42,1352.7 2159.61,1290.79 2194.76,1281.02C2231.38,1270.83 2261.97,1286.56 2280.09,1301.58C2292.1,1283.35 2316.5,1280.48 2330.93,1287.38C2341.89,1292.63 2348.17,1302.53 2345.51,1315.35C2337.46,1354.24 2331.33,1406.54 2340.09,1446.37C2345.15,1469.36 2354.96,1488.2 2374.52,1494.94C2385.84,1498.84 2393.27,1502.93 2397.45,1506.75C2398.53,1507.74 2399.45,1508.74 2400.24,1509.73L2402.61,1513.45L2404.18,1517.97L2404.51,1522.91L2403.91,1526.45L2402.75,1529.62L2399.47,1534.77C2395.51,1539.59 2387.62,1545.15 2375.76,1551.03C2351.74,1562.93 2317,1558.73 2287.09,1532.25ZM2284.35,1512.07C2311.96,1544.01 2346.88,1551.68 2370.33,1540.06C2398.19,1526.25 2401,1517.01 2370.54,1506.51C2311.84,1486.28 2319.6,1380.22 2333.53,1312.87C2338.15,1290.58 2287.92,1286.78 2285.34,1324.45C2276.5,1311.94 2242.37,1280.47 2198.04,1292.8C2165.65,1301.81 2106.96,1359.92 2138.67,1481.08C2158.13,1555.41 2231.88,1615.84 2284.35,1512.07ZM2270.05,1361.88C2262.57,1385.62 2255.7,1457.38 2269.14,1484.41C2227.47,1538.58 2166.45,1498.55 2180.66,1404.75C2187.42,1360.11 2221.03,1315.41 2270.05,1361.88ZM2256.29,1366.02C2243.58,1355.53 2232.7,1352.42 2223.3,1355.62C2217.15,1357.71 2212,1362.31 2207.66,1368.11C2199.92,1378.44 2194.89,1392.54 2192.76,1406.58C2188.15,1436.98 2191.87,1461.17 2200.85,1477.32C2205.84,1486.31 2212.38,1492.59 2219.95,1495.24C2231.17,1499.17 2243.66,1494.6 2255.1,1482.13C2251.23,1470.15 2249.39,1453.81 2249.27,1436.53C2249.08,1410.78 2252.4,1382.96 2256.29,1366.02Z" style="fill:rgb(88,88,162);"/>
                    <path d="M2284.35,1512.07C2231.88,1615.84 2158.13,1555.41 2138.67,1481.08C2106.96,1359.92 2165.65,1301.81 2198.04,1292.8C2242.37,1280.47 2276.5,1311.94 2285.34,1324.45C2287.92,1286.78 2338.15,1290.58 2333.53,1312.87C2319.6,1380.22 2311.84,1486.28 2370.54,1506.51C2401,1517.01 2398.19,1526.25 2370.33,1540.06C2346.88,1551.68 2311.96,1544.01 2284.35,1512.07ZM2270.05,1361.88C2221.03,1315.41 2187.42,1360.11 2180.66,1404.75C2166.45,1498.55 2227.47,1538.58 2269.14,1484.41C2255.7,1457.38 2262.57,1385.62 2270.05,1361.88Z" style="fill:white;"/>
                </g>
                <path d="M2356.73,1501.27C2335.54,1463.68 2325.95,1428.1 2346.51,1352.11C2349.66,1340.44 2361.06,1329.51 2374.64,1324.07C2388.92,1318.36 2404.76,1319.1 2414.63,1327.24C2423,1334.13 2428.95,1346.99 2423.77,1368.85C2412.53,1416.29 2413.9,1441.06 2420.66,1456.52C2424.86,1466.11 2431.09,1471.69 2436.53,1477.22C2450.01,1490.92 2467,1488.92 2480.38,1477.2C2505.37,1455.3 2518.69,1404.73 2493.45,1347.2C2489.87,1339.04 2475.08,1320.8 2468.05,1303.32C2461.37,1286.67 2461.52,1270.65 2472.82,1259.48C2486.66,1245.81 2509.76,1243.19 2530.91,1249.87C2551.57,1256.4 2569.58,1271.54 2574.77,1290.07C2585.4,1327.94 2628.07,1479.88 2639.14,1537.13C2680.17,1749.33 2648.67,1877 2582.8,1951.57C2532.66,2008.34 2462.24,2035.04 2386.31,2044.24C2312.28,2053.22 2233.04,2045.57 2163.33,2034.09C1971.2,2002.44 1821.05,1935.32 1678.37,1868.52C1541.66,1804.51 1411.92,1740.75 1257.81,1709.93C1252.83,1815.77 1215.97,1932.22 1146.8,1987.99C1053.61,2063.13 961.695,2075.37 880.669,2054.83C808.032,2036.41 760.375,2003.98 732.238,1962.67C703.898,1921.07 695.149,1870.17 701.699,1814.16C718.062,1674.25 849.81,1614.04 941.312,1592C1013.37,1574.65 1075.56,1572.32 1170.61,1590.28C1167.57,1555.77 1164.96,1533.2 1156.35,1503.43C1153.25,1509.01 1149.64,1514.33 1145.47,1519.36C1112.76,1558.76 1053.95,1563.47 1028.26,1560.65C1012.21,1558.88 977.59,1543.24 951.276,1505.11C950.888,1504.55 948.78,1501.79 944.61,1493.99C909.341,1428.09 905.27,1368.38 915.023,1330.73C921.105,1307.25 929.392,1294.29 940.919,1288.3C949.075,1284.06 959.334,1282.86 972.957,1285.3C991.15,1288.55 1000.91,1296.97 1006.39,1305.57C1014.9,1318.92 1012.86,1333.86 1012.43,1336.53C1004.76,1383.54 1004.73,1430.75 1018.3,1460.88C1025.72,1477.33 1037.54,1488.06 1055.64,1487.92C1073.23,1487.79 1081.95,1477.68 1087.02,1467.45C1091.3,1458.8 1093.39,1449.97 1095.31,1444.6C1101.13,1428.33 1097.62,1401.68 1091.9,1374.68C1082.59,1330.78 1066.16,1286.12 1063.61,1277.58C1062.72,1274.57 1060.53,1266.67 1061.03,1258.59C1061.47,1251.57 1063.83,1244.56 1069.13,1239.13C1074.26,1233.87 1082.48,1229.56 1096.13,1229.82C1120.6,1230.28 1136.48,1235.3 1147.31,1243.18C1158.92,1251.62 1165.35,1263.5 1169.32,1278.63C1175.6,1302.61 1175.15,1336.23 1190.35,1375.44C1222.55,1458.55 1249.29,1512.29 1256.72,1603.77C1420.86,1633.42 1556.54,1684.73 1807.02,1803.84C1996.72,1894.05 2149.8,1929.13 2292.75,1904.65C2372.17,1891.05 2448.35,1861.99 2497.57,1798.4C2543.36,1739.24 2565.36,1650.68 2546.62,1518.56C2533.23,1533.94 2514.96,1545.27 2494.64,1551.64C2466.5,1560.46 2434.58,1559.69 2407.08,1547.45C2386.33,1576.4 2348.04,1583.51 2316.75,1574.6C2300.87,1570.08 2287.06,1561.46 2277.97,1549.99C2267.12,1561.58 2252.32,1571.85 2235.67,1578.69C2210.88,1588.87 2182.26,1591.41 2157.22,1580.71C2135.72,1571.52 2116.45,1552.63 2104.87,1519.42C2096.21,1494.61 2094.72,1453.28 2104.8,1411.97C2114.92,1370.48 2136.63,1329.2 2173.01,1304.37C2193.67,1290.26 2222.46,1287.17 2248.2,1294.48C2267.82,1300.05 2285.49,1311.55 2296.66,1328.1C2298.77,1326.76 2300.95,1325.71 2303.16,1324.91C2315.19,1320.55 2328.41,1323.96 2336.58,1330.14C2340.98,1333.47 2343.99,1337.61 2345.44,1341.66L2346.58,1347.32L2345.82,1353.54C2332.21,1398.52 2323.29,1456.15 2349.47,1496.38C2351.42,1499.38 2353.96,1500.78 2356.73,1501.27ZM2377.45,1510.04C2363.63,1514.71 2348.44,1517.23 2339.22,1503.05C2311.16,1459.94 2319.52,1398.21 2334.1,1350C2337.57,1338.54 2305.8,1323.26 2293.82,1350C2279.48,1305.07 2215.58,1290.12 2179.91,1314.47C2112.15,1360.73 2100.23,1468.97 2116.42,1515.39C2150.31,1612.54 2255.35,1573.15 2279.82,1526.86C2290.39,1570.73 2376.58,1584.97 2402.44,1531.34C2455.88,1562.68 2534.85,1539.15 2553.2,1482.88C2610.24,1794.03 2459.75,1888.47 2294.82,1916.71C2149.74,1941.56 1994.29,1906.44 1801.77,1814.89C1547.94,1694.19 1412.69,1643.38 1245.21,1614.16C1239.01,1518.21 1211.75,1464.54 1178.94,1379.87C1148.12,1300.34 1180.22,1243.64 1095.9,1242.05C1065.84,1241.48 1073.68,1268.52 1075.34,1274.08C1079.63,1288.46 1122.77,1404.18 1106.83,1448.72C1101.75,1462.93 1095.08,1499.85 1055.73,1500.16C997.398,1500.61 986.845,1417.34 1000.35,1334.56C1000.88,1331.34 1004.87,1303.43 970.806,1297.34C945.076,1292.75 934.993,1302.42 926.867,1333.8C917.636,1369.43 922.017,1425.85 955.397,1488.22C959.124,1495.18 960.999,1497.66 961.346,1498.16C984.852,1532.23 1015.26,1546.91 1029.6,1548.49C1052.89,1551.04 1106.39,1547.27 1136.05,1511.55C1147.02,1498.33 1153.56,1482.8 1156.85,1465.95C1177.19,1521.89 1179.17,1546.96 1184.21,1605.43C1082.2,1584.56 1018.57,1585.98 944.176,1603.9C856.575,1624.99 729.516,1681.64 713.851,1815.58C701.489,1921.28 745.601,2007.96 883.676,2042.97C961.473,2062.69 1049.65,2050.61 1139.12,1978.47C1209.08,1922.06 1243.98,1801.12 1246.07,1695.21C1568.78,1754.95 1783.57,1959.13 2165.32,2022.02C2394.07,2059.7 2727.08,2056.36 2627.12,1539.45C2616.1,1482.43 2573.58,1331.1 2562.99,1293.37C2554.63,1263.54 2503.18,1246.7 2481.42,1268.18C2461.78,1287.58 2498.73,1328.78 2504.66,1342.29C2551.35,1448.72 2474.41,1533.17 2427.81,1485.8C2411.9,1469.64 2391.48,1452.03 2411.86,1366.03C2423.93,1315.1 2364.86,1331.11 2358.32,1355.3C2338.92,1427.02 2347.62,1460.4 2367.75,1495.9C2370.66,1501.04 2373.91,1505.74 2377.45,1510.04ZM1183.45,1686.81C1183.36,1756.1 1159.06,1825.67 1128.36,1870.25C1101.78,1908.83 1028.3,1948.26 944.176,1924.26C822.642,1889.59 851.872,1767.58 938.273,1717.8C1011.76,1675.46 1089.27,1672.9 1183.45,1686.81ZM1171.01,1697.4C1084.65,1685.67 1012.7,1689.04 944.381,1728.4C897.391,1755.47 868.06,1805.56 876.706,1848.53C882.319,1876.42 904.622,1900.25 947.532,1912.49C1025.41,1934.71 1093.68,1899.03 1118.28,1863.31C1146.26,1822.69 1168.64,1760.5 1171.01,1697.4ZM2272.48,1382.51C2265.17,1403.35 2261.76,1457.02 2264.05,1477.98C2236.74,1523.53 2204.39,1534.09 2178.7,1509.89C2156.59,1489.07 2160.95,1427.18 2173.44,1398.86C2190.84,1359.38 2227.37,1335.81 2272.48,1382.51ZM2258.72,1386.13C2245.82,1374.14 2234.12,1368.71 2223.41,1368.95C2205.87,1369.35 2192.99,1384.84 2184.63,1403.8C2177.78,1419.33 2173.76,1445.94 2175.88,1468.84C2177.12,1482.17 2180.03,1494.34 2187.09,1500.99C2206.93,1519.68 2230.28,1508.73 2251.52,1475.01C2250.1,1453.18 2252.93,1409.9 2258.72,1386.13Z" style="fill:rgb(88,88,162);"/>
                <path d="M2377.45,1510.04C2373.91,1505.74 2370.66,1501.04 2367.75,1495.9C2347.62,1460.4 2338.92,1427.02 2358.32,1355.3C2364.86,1331.11 2423.93,1315.1 2411.86,1366.03C2391.48,1452.03 2411.9,1469.64 2427.81,1485.8C2474.41,1533.17 2551.35,1448.72 2504.66,1342.29C2498.73,1328.78 2461.78,1287.58 2481.42,1268.18C2503.18,1246.7 2554.63,1263.54 2562.99,1293.37C2573.58,1331.1 2616.1,1482.43 2627.12,1539.45C2727.08,2056.36 2394.07,2059.7 2165.32,2022.02C1783.57,1959.13 1568.78,1754.95 1246.07,1695.21C1243.98,1801.12 1209.08,1922.06 1139.12,1978.47C1049.65,2050.61 961.473,2062.69 883.676,2042.97C745.601,2007.96 701.489,1921.28 713.851,1815.58C729.516,1681.64 856.575,1624.99 944.176,1603.9C1018.57,1585.98 1082.2,1584.56 1184.21,1605.43C1179.17,1546.96 1177.19,1521.89 1156.85,1465.95C1153.56,1482.8 1147.02,1498.33 1136.05,1511.55C1106.39,1547.27 1052.89,1551.04 1029.6,1548.49C1015.26,1546.91 984.852,1532.23 961.346,1498.16C960.999,1497.66 959.124,1495.18 955.397,1488.22C922.017,1425.85 917.636,1369.43 926.867,1333.8C934.993,1302.42 945.076,1292.75 970.806,1297.34C1004.87,1303.43 1000.88,1331.34 1000.35,1334.56C986.845,1417.34 997.398,1500.61 1055.73,1500.16C1095.08,1499.85 1101.75,1462.93 1106.83,1448.72C1122.77,1404.18 1079.63,1288.46 1075.34,1274.08C1073.68,1268.52 1065.84,1241.48 1095.9,1242.05C1180.22,1243.64 1148.12,1300.34 1178.94,1379.87C1211.75,1464.54 1239.01,1518.21 1245.21,1614.16C1412.69,1643.38 1547.94,1694.19 1801.77,1814.89C1994.29,1906.44 2149.74,1941.56 2294.82,1916.71C2459.75,1888.47 2610.24,1794.03 2553.2,1482.88C2534.85,1539.15 2455.88,1562.68 2402.44,1531.34C2376.58,1584.97 2290.39,1570.73 2279.82,1526.86C2255.35,1573.15 2150.31,1612.54 2116.42,1515.39C2100.23,1468.97 2112.15,1360.73 2179.91,1314.47C2215.58,1290.12 2279.48,1305.07 2293.82,1350C2305.8,1323.26 2337.57,1338.54 2334.1,1350C2319.52,1398.21 2311.16,1459.94 2339.22,1503.05C2348.44,1517.23 2363.63,1514.71 2377.45,1510.04ZM1183.45,1686.81C1089.27,1672.9 1011.76,1675.46 938.273,1717.8C851.872,1767.58 822.642,1889.59 944.176,1924.26C1028.3,1948.26 1101.78,1908.83 1128.36,1870.25C1159.06,1825.67 1183.36,1756.1 1183.45,1686.81ZM2272.48,1382.51C2227.37,1335.81 2190.84,1359.38 2173.44,1398.86C2160.95,1427.18 2156.59,1489.07 2178.7,1509.89C2204.39,1534.09 2236.74,1523.53 2264.05,1477.98C2261.76,1457.02 2265.17,1403.35 2272.48,1382.51Z" style="fill:white;"/>
                <g transform="matrix(1,0,0,1,34.1243,23.0205)">
                    <path d="M1272.05,1357.74C1290.06,1368.09 1328.59,1391.82 1353.92,1424.77C1377.52,1455.46 1390.02,1493.68 1369.31,1536.63C1361.38,1553.06 1345.68,1565.12 1328.06,1571.43C1310.61,1577.69 1291.48,1578.19 1276.97,1572.78C1269.23,1569.89 1222.19,1550.41 1203.05,1496.81C1199.96,1488.18 1198.95,1481.82 1199.19,1477.68L1200.23,1472.29L1202.21,1468.36L1204.94,1465.32L1208.4,1463.09L1212.01,1461.89L1215.34,1461.53C1218.9,1461.49 1223.99,1462.69 1230.2,1466.02C1242.7,1472.73 1255.53,1482.5 1268.07,1489.29C1276.88,1494.06 1285.29,1497.97 1293.27,1494.3C1294.9,1493.55 1296.84,1492.25 1297.24,1489.89C1297.67,1487.39 1296.73,1484.39 1294.67,1480.62C1285.75,1464.31 1259.28,1441.63 1198.89,1409.75C1151.37,1384.66 1122.93,1332.28 1138.94,1270.48C1146.08,1242.94 1180.46,1189.08 1236.66,1200.81C1259.58,1205.6 1290.43,1220.95 1305.22,1250.85C1314.98,1270.59 1318.11,1296.85 1306.39,1330.96C1303.23,1340.13 1295.71,1347.8 1285.9,1352.8C1281.6,1354.98 1276.88,1356.64 1272.05,1357.74ZM1219.92,1319.69L1220.05,1319.21L1221.91,1315.34L1224.6,1311.82C1228.36,1307.86 1229.72,1301.9 1228.95,1296.96C1228.67,1295.16 1228.36,1293.34 1226.99,1292.5C1225.23,1291.41 1222.9,1292.57 1219.65,1294.21C1213.71,1297.21 1213.44,1303.44 1215.31,1309.71C1216.3,1313.04 1217.87,1316.41 1219.92,1319.69ZM1224.42,1476.81C1211.85,1470.06 1207.96,1474.18 1214.57,1492.69C1231.84,1541.07 1274.26,1558.71 1281.24,1561.31C1305.5,1570.36 1345.16,1558.54 1358.29,1531.32C1404.19,1436.15 1263.4,1367.54 1255.72,1362.48C1242.65,1353.86 1239.25,1353.11 1230.33,1347.25C1204.01,1329.94 1190.73,1295.11 1214.14,1283.29C1241.84,1269.29 1248.64,1304.24 1233.48,1320.24C1227.78,1326.26 1230.9,1340.27 1247.21,1345.55C1263.35,1350.77 1289.35,1342.89 1294.82,1326.98C1320.68,1251.72 1267.54,1219.76 1234.16,1212.79C1185.85,1202.7 1156.92,1249.88 1150.79,1273.55C1136.38,1329.16 1161.84,1376.36 1204.6,1398.93C1332.47,1466.43 1314.28,1498.11 1298.38,1505.41C1275.67,1515.85 1249.39,1490.2 1224.42,1476.81Z" style="fill:rgb(88,88,162);"/>
                    <path d="M1224.42,1476.81C1249.39,1490.2 1275.67,1515.85 1298.38,1505.41C1314.28,1498.11 1332.47,1466.43 1204.6,1398.93C1161.84,1376.36 1136.38,1329.16 1150.79,1273.55C1156.92,1249.88 1185.85,1202.7 1234.16,1212.79C1267.54,1219.76 1320.68,1251.72 1294.82,1326.98C1289.35,1342.89 1263.35,1350.77 1247.21,1345.55C1230.9,1340.27 1227.78,1326.26 1233.48,1320.24C1248.64,1304.24 1241.84,1269.29 1214.14,1283.29C1190.73,1295.11 1204.01,1329.94 1230.33,1347.25C1239.25,1353.11 1242.65,1353.86 1255.72,1362.48C1263.4,1367.54 1404.19,1436.15 1358.29,1531.32C1345.16,1558.54 1305.5,1570.36 1281.24,1561.31C1274.26,1558.71 1231.84,1541.07 1214.57,1492.69C1207.96,1474.18 1211.85,1470.06 1224.42,1476.81Z" style="fill:white;"/>
                </g>
                <g transform="matrix(1,0,0,1,79.9565,16.7194)">
                    <path d="M1348.92,1360.09C1355.37,1368.82 1365.81,1378.9 1377.52,1390.52C1403.99,1416.79 1436.92,1449.41 1454.78,1487.36C1464.99,1509.06 1470.14,1537.44 1467.16,1562.86C1465.05,1580.92 1458.82,1597.49 1448.03,1609.71C1398.34,1665.96 1326.39,1641.06 1291.02,1613.41C1279.28,1604.24 1271.62,1594.55 1268.93,1587.5C1268.38,1586.08 1267.99,1584.71 1267.74,1583.41L1267.34,1578.71L1267.8,1575.22L1269.07,1571.63L1271.84,1567.81L1275,1565.49L1278.29,1564.16L1282.15,1563.53C1288.86,1563.06 1303.93,1567.13 1312.65,1568.84C1319.37,1570.15 1330.08,1571.57 1341.13,1570.39C1350.74,1569.37 1360.8,1566.49 1367.83,1558.75C1371.36,1554.86 1379.27,1543.89 1374.96,1518.57C1371.4,1497.69 1356.31,1481.76 1339.66,1465.83C1320.29,1447.28 1298.58,1429.02 1284.49,1406.48C1271.73,1386.07 1260.11,1355.85 1257.21,1325.37C1254.47,1296.48 1259.63,1267.5 1277.57,1245.54C1289.64,1230.77 1307.53,1218.97 1333.23,1212.79C1401.48,1196.4 1441.48,1256.21 1433.01,1312.47C1431.49,1322.62 1424.11,1338.66 1412.28,1350.79C1399.49,1363.91 1381.96,1372.28 1362.29,1367.03C1356.61,1365.51 1352.24,1363.04 1348.92,1360.09ZM1438.86,1601.61C1461.95,1575.47 1459.23,1525.57 1443.71,1492.57C1414.97,1431.48 1345.24,1385.14 1332.65,1356.66C1330.63,1352.07 1328.24,1342.92 1327.75,1335.44C1324.68,1288.53 1375.21,1290.16 1353.55,1332.46C1349.9,1339.6 1351.65,1351.53 1365.44,1355.21C1395.56,1363.25 1418.38,1327.46 1420.91,1310.65C1428.17,1262.48 1394.53,1210.65 1336.09,1224.69C1241.95,1247.31 1265.07,1352.34 1294.86,1399.99C1321.99,1443.4 1379.05,1469.74 1387.02,1516.51C1392.46,1548.46 1381.34,1562.07 1376.88,1566.97C1358.63,1587.07 1325.44,1583.81 1310.3,1580.84C1300.52,1578.93 1281.93,1573.16 1280.08,1576.98C1271.38,1594.89 1375.44,1673.41 1438.86,1601.61ZM1340.01,1335.3C1340.45,1332.28 1341.37,1329.42 1342.66,1326.89C1345.04,1322.25 1346.36,1318.33 1346.67,1315.05C1346.72,1314.52 1346.7,1313.91 1346.65,1313.37C1345.9,1313.81 1344.97,1314.45 1344.38,1315.14C1341.1,1319.06 1339.37,1325.61 1339.96,1334.64L1340.01,1335.3Z" style="fill:rgb(88,88,162);"/>
                    <path d="M1438.86,1601.61C1375.44,1673.41 1271.38,1594.89 1280.08,1576.98C1281.93,1573.16 1300.52,1578.93 1310.3,1580.84C1325.44,1583.81 1358.63,1587.07 1376.88,1566.97C1381.34,1562.07 1392.46,1548.46 1387.02,1516.51C1379.05,1469.74 1321.99,1443.4 1294.86,1399.99C1265.07,1352.34 1241.95,1247.31 1336.09,1224.69C1394.53,1210.65 1428.17,1262.48 1420.91,1310.65C1418.38,1327.46 1395.56,1363.25 1365.44,1355.21C1351.65,1351.53 1349.9,1339.6 1353.55,1332.46C1375.21,1290.16 1324.68,1288.53 1327.75,1335.44C1328.24,1342.92 1330.63,1352.07 1332.65,1356.66C1345.24,1385.14 1414.97,1431.48 1443.71,1492.57C1459.23,1525.57 1461.95,1575.47 1438.86,1601.61Z" style="fill:white;"/>
                </g>
                <path d="M707.195,1016.01C745.568,757.466 870.303,784.586 895.348,792.712C944.217,808.57 967.094,848.335 976.558,899.016C985.287,945.763 982.47,1002.05 980.832,1054.85C977.625,1158.21 902.83,1384.74 856.836,1480.29C872.836,1501.85 887.49,1501.81 895.606,1502.91C902.051,1503.8 906.588,1500.96 910.284,1497.83C914.163,1494.54 917.369,1490.83 920.344,1488.05C923.394,1485.2 926.407,1483.08 929.302,1481.85L933.892,1480.51L939.253,1480.43L943.244,1481.42L946.796,1483.15C948.589,1484.25 950.474,1485.77 952.388,1487.88C955.989,1491.85 960.213,1498.75 964.995,1510.03C973.666,1530.48 968.368,1550.08 954.483,1564.42C928.748,1590.99 868.904,1599.21 823.52,1547.82C815.871,1562.98 807.781,1579.84 797.567,1595.87C774.675,1631.78 741.687,1663.5 682.432,1666.81C657.615,1668.19 634.24,1656.72 615.326,1641.88C601.742,1631.23 590.53,1618.97 582.878,1609.63C534.152,1692.88 437.005,1802.97 285.297,1784.14C258.395,1780.81 211.377,1771.53 166.898,1731.71C102.462,1674.03 41.931,1550.2 62.709,1278.78C76.894,1093.48 137.314,940.541 213.13,838.952C264.807,769.709 323.852,724.192 380.47,707.474C427.302,693.645 463.506,695.916 491.761,706.501C551.472,728.87 576.102,789.823 590.109,822.42C634.517,819.973 668.109,854.845 687.995,915.676C697.246,943.974 703.637,978.038 707.195,1016.01ZM701.825,1227.25C689.574,1325.61 664.467,1427.89 626.767,1515.73C661.107,1563.08 734.646,1546.77 770.962,1471.95C731.037,1399.96 710.337,1306.05 701.825,1227.25ZM581.374,1587.28C581.494,1587.43 627.177,1657.63 681.751,1654.59C772.358,1649.54 795.655,1571.45 821.558,1525.28C879.102,1610.51 975.583,1566.35 953.731,1514.8C931.424,1462.18 929.2,1519.85 893.95,1515.04C883.432,1513.6 863.671,1513.93 842.7,1481.33C887.804,1391.04 965.36,1159.02 968.603,1054.47C971.824,950.65 980.2,833.109 891.571,804.35C864.86,795.682 726.124,768.41 709.737,1120.71C706.018,1200.67 722.207,1363.25 784.705,1471.4C743.264,1564.74 650.806,1579.18 612.896,1516.95C734.57,1240.01 728.293,810.786 582.527,835.573C564.49,796.04 529.167,676.322 383.935,719.207C247.521,759.489 98.203,975.416 74.908,1279.71C41.074,1721.67 223.345,1764.13 286.804,1772C442.659,1791.35 538.064,1668.3 581.374,1587.28ZM812.66,1411.07C809.149,1401.09 789.821,1312.3 785.963,1241.41C776.812,1073.23 794.074,881.098 871.321,925.405C943.12,966.586 848.469,1300.55 812.66,1411.07ZM814.557,1363.81C841.515,1274.05 880.298,1126.73 884.86,1027.02C886.179,998.174 884.717,973.508 878.775,955.898C875.677,946.716 871.571,939.652 865.233,936.017C858.772,932.311 853.006,930.613 847.708,931.34C841.748,932.157 836.783,936.069 832.235,941.813C826.201,949.435 821.191,960.071 816.867,972.955C796.438,1033.82 792.781,1141.53 798.18,1240.74C800.438,1282.24 808.055,1329.99 814.557,1363.81ZM562.278,1448.18C544.149,1395.59 503.391,1307.5 510.651,1159.16C522.013,926.981 643.519,929.436 626.372,1138.16C610.537,1330.92 585.172,1401.42 562.278,1448.18ZM563.448,1415.49C582.344,1368.22 601.34,1293.43 614.178,1137.16C619.056,1077.78 612.693,1035.94 600.274,1012.5C594.467,1001.53 588.045,994.902 580.156,995.519C571.181,996.22 562.785,1004.75 554.454,1018.97C538.577,1046.06 526.147,1092.8 522.871,1159.76C516.909,1281.58 543.959,1362.1 563.448,1415.49ZM539.133,859.817C516.297,881.801 408.926,938.479 434.662,1228.95C446.177,1358.9 509.417,1468.82 524.415,1500.01L526.057,1503.4C494.874,1578.31 284.964,1761.83 232.288,1431.05C215.219,1323.87 214.253,1097.13 377.282,872.627C421.583,811.62 490.914,801.188 539.133,859.817ZM512.541,1503.57C495.927,1469.71 433.961,1359.65 422.476,1230.03C409.311,1081.44 430.638,992.706 457.729,938.251C479.959,893.569 506.173,871.557 521.657,858.736C502.325,839.472 480.065,831.31 457.962,833.532C432.117,836.13 406.992,852.535 387.182,879.816C226.8,1100.68 227.578,1323.69 244.37,1429.13C254.53,1492.92 270.488,1536.97 290.186,1565.9C308.252,1592.43 329.253,1605.53 351.313,1608.89C378.493,1613.04 406.748,1602.86 432.101,1587.08C469.1,1564.06 500.109,1528.82 512.541,1503.57Z" style="fill:rgb(88,88,162);"/>
                <path d="M581.374,1587.28C538.064,1668.3 442.659,1791.35 286.804,1772C223.345,1764.13 41.074,1721.67 74.908,1279.71C98.203,975.416 247.521,759.489 383.935,719.207C529.167,676.322 564.49,796.04 582.527,835.573C728.293,810.786 734.57,1240.01 612.896,1516.95C650.806,1579.18 743.264,1564.74 784.705,1471.4C722.207,1363.25 706.018,1200.67 709.737,1120.71C726.124,768.41 864.86,795.682 891.571,804.35C980.2,833.109 971.824,950.65 968.603,1054.47C965.36,1159.02 887.804,1391.04 842.7,1481.33C863.671,1513.93 883.432,1513.6 893.95,1515.04C929.2,1519.85 931.424,1462.18 953.731,1514.8C975.583,1566.35 879.102,1610.51 821.558,1525.28C795.655,1571.45 772.358,1649.54 681.751,1654.59C627.177,1657.63 581.494,1587.43 581.374,1587.28ZM539.133,859.817C490.914,801.188 421.583,811.62 377.282,872.627C214.253,1097.13 215.219,1323.87 232.288,1431.05C284.964,1761.83 494.874,1578.31 526.057,1503.4C525.511,1502.28 524.964,1501.15 524.415,1500.01C509.417,1468.82 446.177,1358.9 434.662,1228.95C408.926,938.479 516.297,881.801 539.133,859.817ZM562.278,1448.18C585.172,1401.42 610.537,1330.92 626.372,1138.16C643.519,929.436 522.013,926.981 510.651,1159.16C503.391,1307.5 544.149,1395.59 562.278,1448.18ZM812.66,1411.07C848.469,1300.55 943.12,966.586 871.321,925.405C794.074,881.098 776.812,1073.23 785.963,1241.41C789.821,1312.3 809.149,1401.09 812.66,1411.07Z" style="fill:white;"/>
            </g>
            <g>
                <g transform="matrix(0.574879,0,0,0.794292,485.508,392.634)">
                    <ellipse cx="1220.84" cy="945.135" rx="72" ry="52.727" style="fill:rgb(230,180,255);"/>
                </g>
                <g transform="matrix(0.545707,0,0,0.529207,339.908,746.087)">
                    <ellipse cx="483.624" cy="1900.51" rx="51.368" ry="57.645" style="fill:rgb(230,180,255);"/>
                </g>
                <g transform="matrix(0.833653,0,0,0.879211,300.689,265.173)">
                    <ellipse cx="2340.42" cy="1096.16" rx="36.336" ry="34.284" style="fill:rgb(230,180,255);"/>
                </g>
                <g transform="matrix(0.833653,0,0,0.879211,-1535.27,529.488)">
                    <ellipse cx="2340.42" cy="1096.16" rx="36.336" ry="34.284" style="fill:rgb(230,180,255);"/>
                </g>
                <g transform="matrix(0.517301,0,0,0.500009,822.447,774.819)">
                    <ellipse cx="1795.18" cy="1706.87" rx="27.966" ry="29.132" style="fill:rgb(230,180,255);"/>
                </g>
                <g transform="matrix(0.517301,0,0,0.500009,-529.483,424.65)">
                    <ellipse cx="1795.18" cy="1706.87" rx="27.966" ry="29.132" style="fill:rgb(230,180,255);"/>
                </g>
                <g transform="matrix(0.718678,0,0,0.626716,354.056,768.497)">
                    <ellipse cx="1321.42" cy="1811.2" rx="28.581" ry="31.667" style="fill:rgb(230,180,255);"/>
                </g>
                <g transform="matrix(0.716993,0,0,0.867527,637.958,223.565)">
                    <ellipse cx="2287.29" cy="1690.51" rx="53.132" ry="45.488" style="fill:rgb(230,180,255);"/>
                </g>
                <g transform="matrix(0.674799,0,0,0.721972,501.059,127.324)">
                    <ellipse cx="1145.76" cy="1133.9" rx="37.791" ry="37.745" style="fill:rgb(230,180,255);"/>
                </g>
                <ellipse cx="1010.66" cy="1811.2" rx="31.353" ry="31.667" style="fill:rgb(230,180,255);"/>
                <g transform="matrix(0.593908,0,0,0.702052,1004.42,511.815)">
                    <ellipse cx="2436.13" cy="1757.77" rx="24.83" ry="21.767" style="fill:rgb(230,180,255);"/>
                </g>
                <g transform="matrix(0.316126,0,0,0.577232,725.689,452.208)">
                    <ellipse cx="1059.31" cy="1023.47" rx="48.653" ry="29.934" style="fill:rgb(230,180,255);"/>
                </g>
                <g transform="matrix(0.289574,0,0,0.489319,1982.02,578.201)">
                    <ellipse cx="1059.31" cy="1023.47" rx="48.653" ry="29.934" style="fill:rgb(230,180,255);"/>
                </g>
                <g transform="matrix(0.402446,0,0,0.595603,398.072,842.607)">
                    <ellipse cx="568.781" cy="1757.77" rx="30.709" ry="21.767" style="fill:rgb(230,180,255);"/>
                </g>
                <g transform="matrix(0.569843,0,0,0.594574,302.227,694.078)">
                    <ellipse cx="333.074" cy="1842.58" rx="29.925" ry="31.376" style="fill:rgb(230,180,255);"/>
                </g>
                <g transform="matrix(0.627058,0,0,0.667775,602.039,504.579)">
                    <ellipse cx="1295.78" cy="1970.55" rx="54.223" ry="50.311" style="fill:rgb(230,180,255);"/>
                </g>
                <g transform="matrix(1.05226,0,0,0.943123,94.1571,177.525)">
                    <ellipse cx="1686.93" cy="1636.6" rx="30.513" ry="33.107" style="fill:rgb(230,180,255);"/>
                </g>
                <g transform="matrix(0.554503,0,0,0.852923,738.408,276.47)">
                    <ellipse cx="1451.48" cy="1858.26" rx="22.311" ry="15.688" style="fill:rgb(230,180,255);"/>
                </g>
                <g transform="matrix(0.505358,0,0,0.857498,690.38,135.675)">
                    <ellipse cx="1389.58" cy="1120.28" rx="39.584" ry="24.497" style="fill:rgb(230,180,255);"/>
                </g>
                <g transform="matrix(0.602022,0,0,0.815709,939.889,188.119)">
                    <ellipse cx="2401.11" cy="1207.93" rx="27.602" ry="21.051" style="fill:rgb(230,180,255);"/>
                </g>
                <g transform="matrix(0.602022,0,0,0.815709,-1146.36,422.303)">
                    <ellipse cx="2401.11" cy="1207.93" rx="27.602" ry="21.051" style="fill:rgb(230,180,255);"/>
                </g>
                <g transform="matrix(0.719725,0,0,0.776696,670.472,376.358)">
                    <ellipse cx="2401.11" cy="1642.12" rx="27.602" ry="27.588" style="fill:rgb(230,180,255);"/>
                </g>
            </g>
        </g>
    </g>
</svg>
