<?xml version="1.0" encoding="utf-8"?>
<!-- Generator: Adobe Illustrator 15.0.2, SVG Export Plug-In . SVG Version: 6.00 Build 0)  -->
<!DOCTYPE svg PUBLIC "-//W3C//DTD SVG 1.1//EN" "http://www.w3.org/Graphics/SVG/1.1/DTD/svg11.dtd">
<svg version="1.1" id="Layer_1" xmlns="http://www.w3.org/2000/svg" xmlns:xlink="http://www.w3.org/1999/xlink" x="0px" y="0px"
	 width="400px" height="400px" viewBox="0 0 400 400" enable-background="new 0 0 400 400" xml:space="preserve">
<circle fill="#5759A2" cx="200.227" cy="199.591" r="193.864"/>
<g>
	<path fill="#EBF2F4" d="M301.107,107.375c0.066,0.137,0.136,0.275,0.309,0.308c0.346,0.448,0.246,1.098,0.309,1.694
		c0.157,1.564,0.308,3.946,0,5.699c-2.121,1.475-4.646,1.181-6.931,1.541c-0.487,0.076-0.831,0.197-1.389,0.308
		c-0.048,0.009-0.278-0.035-0.308,0c-0.01,0.011,0.014,0.151,0,0.154c-0.283,0.067-0.613,0.082-0.925,0.154
		c-0.237,0.055-0.536,0.101-0.771,0.154c-0.479,0.109-0.893,0.168-1.387,0.309c-0.052,0.013-0.274-0.039-0.308,0
		c-0.011,0.012,0.015,0.149,0,0.154c-0.412,0.108-0.84,0.151-1.231,0.308c-0.055,0.021-0.273-0.043-0.309,0
		c-0.012,0.014,0.014,0.149,0,0.154c-0.311,0.09-0.591,0.053-0.923,0.154c-0.271,0.082-0.501,0.227-0.771,0.308
		c-0.263,0.079-0.633,0.054-0.925,0.154c-0.056,0.018-0.002,0.146-0.153,0.154c-0.396,0.021-0.804,0.281-1.233,0.462
		c-0.197,0.084-0.292,0.068-0.462,0.154c-0.74,0.38-2.178,0.616-3.08,1.078c-0.161,0.083-0.479,0.199-0.77,0.308
		c-0.055,0.021-0.274-0.041-0.31,0c-0.011,0.016,0.017,0.149,0,0.154c-0.34,0.125-0.661,0.134-0.924,0.308
		c-0.254,0.17-0.5,0.129-0.771,0.309c-0.031,0.02-0.129-0.025-0.152,0c-0.021,0.02,0.021,0.143,0,0.154
		c-0.059,0.032-0.271-0.047-0.309,0c-0.015,0.018,0.018,0.147,0,0.154c-0.088,0.039-0.223-0.036-0.309,0
		c-0.034,0.015-0.059,0.118-0.154,0.154c-0.055,0.02-0.273-0.041-0.309,0c-0.014,0.018,0.019,0.147,0,0.154
		c-0.057,0.025-0.271-0.043-0.309,0c-0.016,0.018,0.02,0.145,0,0.154c-0.057,0.027-0.271-0.044-0.309,0
		c-0.17,0.206-0.449,0.312-0.77,0.463c-0.139,0.064-0.283,0.076-0.463,0.154c-0.068,0.031,0.012,0.145-0.152,0.154
		c-0.104,0.005-0.184,0.123-0.309,0.154c-0.096,0.024-0.219-0.031-0.309,0c-0.055,0.018-0.003,0.146-0.154,0.154
		c-0.134,0.007-0.342,0.233-0.464,0.308c-0.106,0.067-0.185,0.09-0.31,0.154c-0.143,0.076-0.272,0.073-0.461,0.154
		c-0.07,0.031,0.012,0.146-0.153,0.154c-0.046,0.003-0.254,0.119-0.308,0.154c-0.168,0.112-0.277,0.209-0.463,0.308
		c-0.144,0.077-0.273,0.072-0.463,0.154c-0.07,0.03,0.012,0.146-0.154,0.154c-0.123,0.007-0.153,0.146-0.308,0.154
		c-0.125,0.007-0.153,0.146-0.309,0.154c-0.132,0.008-0.339,0.234-0.461,0.31c-0.169,0.103-0.292,0.195-0.462,0.308
		c-0.03,0.021-0.129-0.027-0.154,0c-0.02,0.018,0.021,0.141,0,0.154c-0.057,0.031-0.27-0.048-0.309,0
		c-0.024,0.029-0.129,0.296-0.153,0.308c-0.075,0.032-0.245-0.049-0.308,0c-0.066,0.05-0.092,0.27-0.154,0.308
		c-0.057,0.034-0.27-0.05-0.309,0c-0.017,0.018,0.019,0.145,0,0.154c-0.058,0.026-0.271-0.045-0.309,0
		c-0.02,0.021,0.023,0.141,0,0.154c-0.436,0.263-0.934,0.492-1.387,0.77c-0.072,0.044-0.246,0.092-0.309,0.154
		c-0.021,0.023,0.025,0.136,0,0.154c-0.056,0.039-0.267-0.049-0.308,0c-0.019,0.023,0.022,0.138,0,0.154
		c-0.263,0.172-0.498,0.28-0.771,0.462c-0.213,0.14-0.351,0.284-0.615,0.462c-0.166,0.109-0.299,0.192-0.463,0.308
		c-0.076,0.053-0.241,0.087-0.308,0.154c-0.022,0.023,0.024,0.136,0,0.154c-0.058,0.038-0.269-0.05-0.312,0
		c-0.102,0.126-0.18,0.447-0.461,0.462c-0.131,0.006-0.34,0.233-0.463,0.308c-0.168,0.104-0.293,0.196-0.461,0.308
		c-0.211,0.142-0.351,0.286-0.617,0.462c-0.133,0.091-0.387,0.451-0.615,0.462c-0.197,0.011-0.194,0.225-0.309,0.308
		c-0.141,0.106-0.34,0.041-0.461,0.154c-0.068,0.063-0.084,0.255-0.154,0.308c-0.139,0.106-0.34,0.042-0.463,0.154
		c-0.069,0.067-0.082,0.249-0.153,0.308c-0.12,0.1-0.323,0.052-0.462,0.154c-0.086,0.066-0.077,0.24-0.153,0.31
		c-0.079,0.069-0.233,0.079-0.308,0.154c-0.068,0.069-0.082,0.247-0.154,0.308c-0.125,0.106-0.348,0.047-0.462,0.154
		c-0.077,0.071-0.077,0.239-0.154,0.308c-0.196,0.178-0.417,0.288-0.616,0.462c-0.445,0.39-0.836,0.894-1.386,1.233
		c-0.084,0.05-0.231,0.086-0.309,0.154c-0.183,0.157-0.282,0.453-0.462,0.616c-0.187,0.167-0.448,0.319-0.615,0.462
		c-0.028,0.021,0.021,0.129,0,0.154c-0.131,0.131-0.405,0.115-0.616,0.308c-0.183,0.167-0.287,0.439-0.462,0.616
		c-0.182,0.179-0.439,0.282-0.618,0.462c-0.333,0.336-0.598,0.731-0.925,1.078c-0.021,0.026-0.128-0.025-0.152,0
		s0.026,0.129,0,0.154c-0.024,0.025-0.127-0.025-0.154,0c-0.024,0.025,0.027,0.13,0,0.154c-0.067,0.063-0.25,0.086-0.309,0.154
		c-0.104,0.125-0.046,0.347-0.154,0.462c-0.068,0.077-0.236,0.077-0.308,0.154c-0.323,0.354-0.608,0.716-0.924,1.078
		c-0.174,0.203-0.29,0.412-0.462,0.616c-0.021,0.027-0.13-0.023-0.154,0c-0.131,0.134-0.123,0.396-0.308,0.616
		c-0.021,0.027-0.13-0.022-0.154,0c-0.024,0.027,0.024,0.129,0,0.154c-0.024,0.027-0.129-0.025-0.153,0
		c-0.024,0.026,0.026,0.131,0,0.155c-0.063,0.058-0.257,0.087-0.309,0.154c-0.043,0.053,0.052,0.266,0,0.308
		c-0.148,0.122-0.752,0.434-0.771,0.77c-0.004,0.083-0.244,0.404-0.308,0.462c-0.065,0.059-0.256,0.088-0.308,0.154
		c-0.106,0.134-0.043,0.343-0.154,0.462c-0.063,0.067-0.256,0.085-0.309,0.154c-0.143,0.191-0.182,0.449-0.309,0.617
		c-0.02,0.025-0.131-0.024-0.152,0c-0.133,0.131-0.14,0.382-0.31,0.616c-0.019,0.025-0.131-0.022-0.153,0
		c-0.132,0.129-0.145,0.378-0.309,0.616c-0.031,0.045-0.105,0.082-0.152,0.154c-0.164,0.245-0.256,0.447-0.463,0.77
		c-0.058,0.084-0.146-0.025-0.154,0.154c-0.006,0.131-0.233,0.34-0.308,0.462c-0.137,0.219-0.304,0.357-0.463,0.616
		c-0.104,0.168-0.196,0.293-0.308,0.462c-0.164,0.245-0.254,0.448-0.463,0.77c-0.057,0.086-0.146-0.024-0.155,0.154
		c-0.007,0.131-0.233,0.342-0.308,0.462c-0.063,0.103-0.084,0.198-0.154,0.308c-0.045,0.074-0.092,0.246-0.154,0.308
		c-0.021,0.022-0.137-0.025-0.154,0c-0.037,0.057,0.053,0.267,0,0.308c-0.021,0.018-0.138-0.022-0.154,0
		c-0.043,0.075,0.037,0.228,0,0.309c0,0-0.125,0.105-0.152,0.154c-0.045,0.081-0.145-0.021-0.154,0.154
		c-0.009,0.198-0.224,0.197-0.308,0.308c-0.04,0.056,0.052,0.267,0,0.309c-0.021,0.017-0.142-0.022-0.154,0
		c-0.045,0.075,0.036,0.227,0,0.308c0-0.001-0.127,0.105-0.153,0.154c-0.045,0.081-0.146-0.021-0.153,0.154
		c-0.003,0.046-0.118,0.255-0.154,0.308c-0.11,0.167-0.201,0.284-0.308,0.462c-0.032,0.053-0.149,0.146-0.154,0.154
		c-0.031,0.076,0.048,0.244,0,0.309c-0.05,0.066-0.27,0.092-0.309,0.154c-0.033,0.056,0.051,0.269,0,0.308
		c-0.019,0.015-0.145-0.02-0.153,0c-0.026,0.055,0.046,0.271,0,0.308c-0.021,0.017-0.142-0.021-0.153,0
		c-0.486,0.866-0.929,1.849-1.387,2.773c-0.07,0.141-0.074,0.279-0.154,0.462c-0.029,0.07-0.145-0.011-0.152,0.154
		c0.002-0.021-0.14,0.447-0.154,0.462c-0.018,0.02-0.141-0.022-0.154,0c-0.031,0.057,0.049,0.27,0,0.309
		c-0.195,0.161-0.328,0.451-0.462,0.77c-0.022,0.056,0.043,0.273,0,0.308c-0.019,0.016-0.146-0.018-0.153,0
		c-0.027,0.057,0.045,0.272,0,0.308c-0.297,0.242-0.371,0.754-0.615,1.232c-0.199,0.387-0.508,1.114-0.771,1.695
		c-0.062,0.136-0.077,0.284-0.153,0.462c-0.033,0.07-0.146-0.011-0.154,0.154c-0.006,0.103-0.122,0.182-0.153,0.308
		c-0.024,0.095,0.028,0.216,0,0.308c-0.019,0.054-0.147,0.001-0.153,0.154c-0.002,0.047-0.117,0.255-0.154,0.308
		c-0.125,0.187-0.049,0.359-0.153,0.617c-0.029,0.065-0.147-0.009-0.154,0.154c-0.007,0.125-0.146,0.154-0.153,0.308
		c-0.008,0.103-0.125,0.183-0.153,0.308c-0.024,0.094,0.028,0.215,0,0.308c-0.019,0.054-0.147,0.001-0.154,0.154
		c-0.007,0.104-0.125,0.182-0.153,0.308c-0.024,0.095,0.028,0.215,0,0.308c-0.019,0.054-0.146,0.001-0.154,0.154
		c-0.002,0.041,0.015,0.116,0,0.154c-0.197,0.502-0.416,0.917-0.616,1.386c-0.056,0.132-0.079,0.287-0.153,0.462
		c-0.031,0.07-0.146-0.011-0.154,0.154c-0.01,0.208-0.066,0.419-0.153,0.616c-0.031,0.07-0.146-0.011-0.153,0.154
		c-0.011,0.208-0.07,0.419-0.156,0.616c-0.029,0.07-0.146-0.011-0.153,0.154c-0.011,0.233-0.081,0.285-0.154,0.462
		c-0.021,0.056,0.044,0.274,0,0.308c-0.015,0.011-0.147-0.014-0.153,0c-0.332,1.116-0.591,2.293,0.153,3.389
		c0.72,0.189,1.454,0.212,2.005-0.154c0.029-0.021,0.126,0.026,0.154,0c0.018-0.019-0.021-0.142,0-0.154
		c0.057-0.03,0.27,0.048,0.309,0c0.125-0.152,0.279-0.207,0.461-0.308c0.082-0.045-0.021-0.145,0.154-0.154
		c0.258-0.013,0.313-0.446,0.615-0.462c0.132-0.006,0.341-0.234,0.462-0.308c0.168-0.103,0.292-0.196,0.462-0.308
		c0.245-0.163,0.449-0.253,0.771-0.462c0.086-0.055-0.024-0.145,0.152-0.155c0.049-0.002,0.256-0.118,0.309-0.154
		c0.166-0.109,0.293-0.195,0.463-0.308c0.074-0.05,0.242-0.088,0.309-0.154c0.021-0.021-0.025-0.136,0-0.154
		c0.057-0.038,0.268,0.051,0.309,0c0.018-0.021-0.022-0.138,0-0.154c0.146-0.093,0.27-0.069,0.461-0.154
		c0.07-0.029-0.012-0.145,0.154-0.154c0.131-0.007,0.342-0.233,0.463-0.308c0.104-0.065,0.188-0.086,0.308-0.154
		c0.146-0.082,0.274-0.071,0.462-0.154c0.07-0.029-0.012-0.145,0.154-0.154c0.156-0.008,0.31-0.238,0.461-0.309
		c0.058-0.025,0.271,0.045,0.309,0c0.016-0.019-0.021-0.143,0-0.154c0.146-0.076,0.275-0.072,0.462-0.154
		c0.07-0.03-0.011-0.145,0.154-0.154c0.126-0.007,0.153-0.145,0.31-0.154c0.125-0.007,0.152-0.145,0.31-0.154
		c-0.023,0.001,0.446-0.138,0.462-0.154c0.02-0.02-0.021-0.141,0-0.154c0.055-0.032,0.268,0.047,0.308,0
		c0.163-0.202,0.448-0.318,0.771-0.462c0.517-0.233,1.043-0.406,1.541-0.616c0.131-0.057,0.287-0.078,0.462-0.154
		c0.069-0.03-0.013-0.145,0.153-0.154c0.209-0.011,0.418-0.067,0.615-0.154c0.07-0.03-0.011-0.145,0.153-0.154
		c0.049-0.002,0.255-0.118,0.31-0.154c0.186-0.125,0.357-0.047,0.615-0.154c0.066-0.028-0.009-0.145,0.154-0.154
		c0.126-0.007,0.154-0.146,0.308-0.154c0.104-0.006,0.185-0.123,0.31-0.154c0.095-0.025,0.214,0.031,0.308,0
		c0.054-0.018,0.002-0.147,0.153-0.154c0.104-0.006,0.184-0.124,0.309-0.154c0.096-0.025,0.215,0.03,0.309,0
		c0.055-0.018,0.002-0.147,0.153-0.154c0.199-0.011,0.597-0.204,0.925-0.308c0.354-0.113,0.603-0.228,0.924-0.308
		c0.096-0.025,0.218,0.029,0.309,0c0.055-0.018,0.002-0.147,0.154-0.154c0.332-0.018,0.391-0.07,0.615-0.154
		c0.057-0.021,0.272,0.041,0.311,0c0.011-0.015-0.016-0.149,0-0.154c0.253-0.082,0.67-0.07,0.924-0.154
		c0.055-0.02,0-0.147,0.154-0.154c0.426-0.022,1.234-0.398,1.847-0.463c0.433-0.045,0.433-0.132,0.925-0.154
		c0.486-0.021,0.395-0.13,0.924-0.154c0.461-0.019,0.434-0.055,0.924-0.154c0.051-0.01,0.281,0.035,0.309,0
		c0.01-0.01-0.009-0.153,0-0.154c0.316-0.045,0.709,0.053,1.078,0c-0.029,0.004,0.091-0.137,0.154-0.154
		c0.24-0.06,0.524,0.034,0.77,0c0.281-0.039,0.52-0.125,0.771-0.154c2.595-0.299,5.312-0.409,8.01-0.462
		c1.433-0.028,2.898-0.062,4.313,0c0.313,0.014,0.609,0.124,0.924,0.154c0.914,0.089,1.941,0.035,2.928,0.154
		c2.41,0.291,4.76,0.826,6.777,1.541c1.338,0.474,2.543,0.969,3.85,1.54c0.134,0.058,0.285,0.077,0.462,0.154
		c0.069,0.029-0.011,0.145,0.153,0.154c0.132,0.007,0.343,0.233,0.463,0.308c0.251,0.154,0.713,0.373,1.078,0.616
		c0.031,0.021,0.129-0.026,0.154,0c0.02,0.02-0.023,0.141,0,0.154c0.055,0.032,0.269-0.047,0.307,0c0.019,0.021-0.021,0.142,0,0.154
		c0.146,0.084,0.271,0.072,0.463,0.154c0.068,0.031-0.012,0.145,0.154,0.154c0.131,0.007,0.34,0.233,0.461,0.308
		c0.1,0.061,0.207,0.083,0.309,0.154c0.534,0.367,1.223,0.899,1.848,1.386c0.219,0.168,0.405,0.29,0.618,0.462
		c0.086,0.071-0.026,0.145,0.154,0.154c0.194,0.011,0.196,0.22,0.308,0.308c0.396,0.326,0.844,0.59,1.232,0.924
		c0.023,0.023-0.025,0.13,0,0.154c0.023,0.027,0.126-0.025,0.154,0c0.023,0.027-0.028,0.129,0,0.154
		c0.023,0.025,0.127-0.025,0.152,0c0.061,0.069,0.084,0.251,0.154,0.308c0.125,0.106,0.347,0.046,0.462,0.155
		c0.076,0.072,0.076,0.237,0.153,0.308c0.481,0.448,0.99,0.79,1.386,1.386c0.058,0.086,0.146-0.024,0.153,0.154
		c0.013,0.231,0.404,0.403,0.617,0.616c0.131,0.133,0.119,0.4,0.308,0.617c0.022,0.025,0.13-0.025,0.153,0
		c0.025,0.025-0.023,0.127,0,0.154c0.025,0.025,0.129-0.027,0.154,0c0.023,0.025-0.025,0.129,0,0.154
		c0.067,0.061,0.251,0.084,0.309,0.154c0.105,0.126,0.045,0.344,0.153,0.462c0.072,0.077,0.601,0.29,0.616,0.616
		c0.004,0.083,0.244,0.403,0.309,0.462c0.067,0.062,0.252,0.085,0.308,0.154c0.106,0.125,0.048,0.346,0.153,0.462
		c0.058,0.061,0.266,0.09,0.309,0.154c0.048,0.07-0.033,0.229,0,0.308c0.005,0.007,0.125,0.094,0.154,0.154
		c0.078,0.153,0.299,0.277,0.308,0.462c0.007,0.127,0.147,0.154,0.153,0.308c0.004,0.047,0.119,0.253,0.154,0.308
		c0.113,0.167,0.207,0.281,0.309,0.462c0.084,0.145,0.072,0.272,0.154,0.462c0.03,0.07,0.146-0.011,0.152,0.154
		c0.008,0.131,0.235,0.342,0.309,0.462c0.067,0.109,0.092,0.186,0.154,0.308c0.077,0.144,0.074,0.276,0.153,0.462
		c0.032,0.07,0.147-0.011,0.153,0.154c0-0.021,0.141,0.448,0.156,0.463c0.02,0.019,0.142-0.023,0.153,0
		c0.03,0.055-0.047,0.268,0,0.308c0.017,0.014,0.146-0.019,0.154,0c0.036,0.084-0.022,0.218,0,0.308
		c0.038,0.157,0.116,0.075,0.153,0.154c0.025,0.056-0.045,0.272,0,0.308c0.017,0.013,0.146-0.017,0.153,0
		c0.188,0.465,0.269,1.013,0.463,1.54c0.19,0.52,0.436,1.036,0.616,1.541c0.09,0.256,0.224,0.475,0.308,0.771
		c0.077,0.271,0.077,0.612,0.154,0.924c0.036,0.152,0.129,0.235,0.153,0.462c0.043,0.42,0.06,0.452,0.154,0.924
		c0.01,0.05-0.036,0.279,0,0.308c0.011,0.011,0.15-0.011,0.153,0c0.068,0.291,0.083,0.643,0.153,0.925
		c0.032,0.126,0.121,0.159,0.154,0.308c0.031,0.147-0.032,0.315,0,0.462c-0.003-0.009,0.134,0.075,0.153,0.154
		c0.06,0.24-0.036,0.524,0,0.77c-0.005-0.029,0.139,0.091,0.153,0.153c0.146,0.59-0.208,1.672,0,2.466
		c0.01,0.039,0.146,0.014,0.154,0.154c0.127,2.436,0.095,5.691,0,8.472c-0.022,0.651-0.124,1.341-0.154,2.002
		c-0.031,0.687,0.062,1.341,0,2.001c-0.022,0.247-0.12,0.264-0.153,0.463c-0.067,0.389-0.05,0.926-0.153,1.387
		c0,0-0.135,0.07-0.154,0.156c-0.024,0.094,0.027,0.211,0,0.307c-0.063,0.207-0.21,0.757-0.309,1.232
		c-0.248,1.192-0.447,2.323-0.77,3.389c-0.075,0.242-0.235,0.527-0.308,0.771c-0.08,0.263-0.078,0.656-0.154,0.925
		c-0.005,0.017-0.13,0.053-0.154,0.152c-0.024,0.096,0.029,0.217,0,0.309c-0.019,0.055-0.146,0.002-0.153,0.153
		c-0.017,0.272-0.242,0.815-0.31,1.081c-0.024,0.091,0.03,0.214,0,0.307c-0.019,0.053-0.146,0-0.153,0.153
		c-0.022,0.41-0.424,1.231-0.617,1.694c-0.022,0.056,0.045,0.271,0,0.309c-0.017,0.016-0.146-0.021-0.154,0
		c-0.023,0.055,0.045,0.271,0,0.309c-0.016,0.014-0.145-0.019-0.154,0c-0.033,0.086,0.025,0.217,0,0.309
		c-0.037,0.156-0.115,0.074-0.152,0.152c-0.024,0.056,0.045,0.272,0,0.31c-0.295,0.243-0.369,0.753-0.616,1.231
		c-0.091,0.177-0.194,0.334-0.308,0.615c-0.021,0.055,0.043,0.274,0,0.31c-0.205,0.167-0.312,0.45-0.463,0.771
		c-0.064,0.137-0.074,0.279-0.154,0.461c-0.028,0.07-0.145-0.011-0.153,0.153c0.003-0.021-0.138,0.449-0.153,0.462
		c-0.019,0.021-0.141-0.021-0.154,0c-0.031,0.057,0.047,0.271,0,0.309c-0.019,0.017-0.143-0.021-0.153,0
		c-0.029,0.058,0.048,0.272,0,0.31c-0.019,0.017-0.146-0.021-0.153,0c-0.025,0.058,0.045,0.271,0,0.308
		c-0.029,0.025-0.297,0.129-0.309,0.154c-0.031,0.074,0.048,0.245,0,0.307c-0.049,0.065-0.271,0.094-0.309,0.155
		c-0.045,0.076,0.036,0.226,0,0.308c-0.002,0.011-0.123,0.097-0.152,0.154c-0.09,0.172-0.198,0.299-0.31,0.465
		c-0.163,0.24-0.254,0.445-0.462,0.771c-0.055,0.083-0.146-0.024-0.154,0.153c-0.002,0.045-0.117,0.254-0.153,0.309
		c-0.11,0.164-0.198,0.286-0.308,0.462c-0.027,0.045-0.154,0.152-0.154,0.153c-0.031,0.074,0.048,0.242,0,0.308
		c-0.053,0.068-0.268,0.089-0.309,0.155c-0.046,0.072,0.034,0.227,0,0.307c-0.002,0.008-0.121,0.094-0.154,0.155
		c-0.078,0.151-0.299,0.274-0.308,0.462c-0.011,0.194-0.227,0.191-0.308,0.307c-0.02,0.024-0.161,0.168-0.154,0.153
		c-0.031,0.074,0.048,0.245,0,0.31c-0.077,0.102-0.417,0.197-0.462,0.307c-0.032,0.076,0.047,0.245,0,0.309
		c-0.077,0.103-0.416,0.2-0.462,0.31c-0.032,0.073,0.047,0.245,0,0.307c-0.057,0.076-0.26,0.085-0.309,0.155
		c-0.11,0.158-0.187,0.451-0.309,0.615c-0.021,0.023-0.131-0.021-0.152,0c-0.133,0.132-0.14,0.383-0.31,0.615
		c-0.019,0.025-0.132-0.021-0.153,0c-0.134,0.135-0.13,0.391-0.31,0.617c-0.021,0.025-0.131-0.023-0.153,0
		c-0.027,0.025,0.025,0.127,0,0.153c-0.027,0.026-0.129-0.026-0.154,0c-0.023,0.024,0.025,0.131,0,0.153
		c-0.064,0.059-0.256,0.088-0.308,0.154c-0.043,0.055,0.05,0.268,0,0.307c-0.149,0.123-0.754,0.436-0.771,0.771
		c-0.017,0.277-0.428,0.4-0.618,0.615c-0.177,0.202-0.292,0.411-0.462,0.615c-0.069,0.09-0.143-0.023-0.153,0.156
		c-0.01,0.189-0.211,0.203-0.31,0.31c-0.174,0.188-0.279,0.433-0.461,0.614c-0.18,0.181-0.438,0.281-0.615,0.464
		c-0.333,0.334-0.59,0.741-0.924,1.077c-0.18,0.18-0.438,0.281-0.616,0.461c-0.179,0.181-0.28,0.438-0.464,0.617
		c-0.334,0.334-0.743,0.588-1.076,0.922c-0.188,0.188-0.245,0.4-0.462,0.617c-0.181,0.181-0.462,0.319-0.616,0.463
		c-0.025,0.023,0.023,0.129,0,0.153c-0.025,0.025-0.129-0.024-0.152,0c-0.025,0.025,0.023,0.13,0,0.153
		c-0.025,0.025-0.133-0.023-0.154,0c-0.06,0.063-0.088,0.257-0.154,0.309c-0.055,0.043-0.268-0.052-0.309,0
		c-0.123,0.149-0.435,0.752-0.771,0.771c-0.278,0.016-0.397,0.428-0.616,0.615c-0.203,0.176-0.406,0.291-0.615,0.461
		c-0.078,0.063-0.236,0.082-0.309,0.154c-0.064,0.063-0.085,0.256-0.152,0.309c-0.121,0.094-0.328,0.054-0.463,0.152
		c-0.076,0.059-0.084,0.26-0.154,0.31c-0.146,0.104-0.34,0.038-0.463,0.153c-0.063,0.063-0.086,0.261-0.154,0.309
		c-0.065,0.047-0.23-0.032-0.309,0c0.002,0-0.104,0.126-0.154,0.154c-0.078,0.043,0.021,0.145-0.153,0.154
		c-0.201,0.01-0.388,0.299-0.615,0.461c-0.075,0.057-0.241,0.09-0.309,0.154c-0.021,0.021,0.024,0.139,0,0.153
		c-0.056,0.041-0.269-0.05-0.308,0c-0.095,0.114-0.19,0.381-0.309,0.464c-0.055,0.039-0.268-0.053-0.309,0
		c-0.019,0.023,0.023,0.141,0,0.154c-0.436,0.287-0.953,0.484-1.387,0.77c-0.039,0.025-0.086,0.107-0.154,0.155
		c-0.164,0.108-0.291,0.194-0.461,0.307c-0.075,0.05-0.242,0.091-0.309,0.155c-0.021,0.02,0.025,0.135,0,0.152
		c-0.057,0.039-0.268-0.051-0.309,0c-0.024,0.029-0.129,0.297-0.153,0.31c-0.075,0.031-0.245-0.049-0.308,0
		c-0.066,0.05-0.092,0.269-0.154,0.308c-0.059,0.033-0.271-0.051-0.309,0c-0.017,0.02,0.019,0.145,0,0.154
		c-0.058,0.023-0.271-0.047-0.309,0c-0.02,0.02,0.021,0.141,0,0.153c-0.076,0.045-0.227-0.036-0.308,0c0,0-0.104,0.126-0.154,0.153
		c-0.081,0.047,0.021,0.146-0.153,0.154c0.021-0.003-0.449,0.139-0.463,0.153c-0.021,0.019,0.022,0.14,0,0.153
		c-0.057,0.033-0.27-0.047-0.309,0c-0.018,0.021,0.021,0.142,0,0.154c-0.145,0.083-0.271,0.069-0.461,0.153
		c-0.07,0.028,0.012,0.146-0.154,0.153c0,0-0.421,0.123-0.462,0.154c-0.063,0.045-0.099,0.276-0.153,0.309
		c-0.08,0.043-0.225-0.036-0.309,0c-0.01,0.001-0.096,0.121-0.154,0.154c-0.113,0.059-0.181,0.092-0.308,0.153
		c-0.142,0.065-0.283,0.073-0.466,0.153c-0.068,0.029,0.015,0.145-0.152,0.152c0.021-0.002-0.445,0.141-0.462,0.155
		c-0.019,0.017,0.022,0.14,0,0.153c-0.056,0.031-0.271-0.047-0.308,0c-0.018,0.02,0.02,0.143,0,0.152
		c-0.057,0.031-0.271-0.045-0.31,0c-0.014,0.02,0.021,0.146,0,0.156c-0.055,0.026-0.271-0.046-0.308,0
		c-0.014,0.016,0.021,0.145,0,0.152c-0.082,0.038-0.221-0.021-0.309,0c-0.156,0.038-0.074,0.117-0.154,0.152
		c-0.055,0.025-0.271-0.045-0.309,0c-0.169,0.207-0.447,0.31-0.771,0.463c-0.137,0.068-0.279,0.076-0.461,0.154
		c-0.069,0.031,0.013,0.146-0.153,0.153c-0.125,0.007-0.153,0.146-0.308,0.153c-0.129,0.007-0.154,0.148-0.31,0.154
		c-0.208,0.012-0.419,0.067-0.614,0.153c-0.072,0.031,0.01,0.146-0.154,0.153c0.021,0-0.446,0.139-0.463,0.154
		c-0.021,0.021,0.022,0.143,0,0.154c-0.058,0.03-0.271-0.049-0.308,0c-0.015,0.02,0.019,0.146,0,0.152
		c-0.087,0.04-0.223-0.036-0.309,0c-0.034,0.016-0.058,0.119-0.154,0.155c-0.054,0.02-0.272-0.041-0.308,0
		c-0.014,0.016,0.016,0.147,0,0.153c-0.307,0.109-0.654,0.242-0.924,0.309c-0.097,0.023-0.215-0.029-0.31,0
		c-0.054,0.018-0.002,0.146-0.153,0.152c-0.209,0.014-0.418,0.067-0.615,0.154c-0.07,0.032,0.011,0.147-0.154,0.154
		c-0.527,0.029-1.523,0.438-2.157,0.615c-0.05,0.017-0.276-0.035-0.309,0c-0.009,0.015,0.014,0.152,0,0.154
		c-0.304,0.088-0.657,0.076-0.925,0.154c-0.019,0.005-0.051,0.127-0.153,0.153c-0.095,0.022-0.213-0.027-0.308,0
		c-0.123,0.038-0.164,0.112-0.31,0.153c-0.396,0.112-0.771,0.179-1.231,0.311c-0.051,0.014-0.274-0.038-0.308,0
		c-0.01,0.012,0.011,0.148,0,0.152c-0.194,0.047-0.422-0.047-0.616,0c-0.123,0.031-0.16,0.121-0.308,0.156
		c-0.679,0.148-1.47,0.267-2.156,0.461c-0.053,0.015-0.278-0.039-0.309,0c-0.011,0.01,0.012,0.148,0,0.153
		c-0.193,0.045-0.421-0.047-0.615,0c-0.129,0.029-0.155,0.128-0.308,0.153c-0.616,0.105-1.223,0.054-1.852,0.154
		c-0.141,0.022-0.244,0.131-0.462,0.153c-0.36,0.036-0.524,0.11-0.925,0.153c-0.391,0.041-0.491,0.023-0.924,0.154
		c-0.127,0.039-0.158,0.119-0.309,0.154c-0.145,0.03-0.313-0.031-0.461,0c-0.128,0.026-0.158,0.123-0.309,0.152
		c-1.277,0.248-2.518,0.257-3.85,0.309c-3.916,0.152-8.105,0.353-12.322,0.153c-0.252-0.01-0.264-0.129-0.463-0.153
		c0.052,0.008-0.082,0.246-0.153,0.153c-0.008-0.01,0.007-0.153,0-0.153c-0.874-0.088-2.011,0.088-3.081,0
		c-0.247-0.021-0.264-0.119-0.462-0.152c-0.199-0.036-0.417,0.033-0.616,0c-0.34-0.063-0.322-0.043-0.771-0.155
		c-0.114-0.028-0.125-0.146-0.153-0.153c-0.377-0.093-0.694-0.054-1.077-0.152c-0.007-0.004-0.063-0.131-0.154-0.155
		c-0.095-0.024-0.213,0.026-0.308,0c-0.216-0.065-0.87-0.224-1.386-0.308c-0.945-0.154-2.373-0.309-3.391-0.617
		c-0.336-0.104-0.318-0.04-0.771-0.152c-0.136-0.035-0.263-0.107-0.462-0.152c-0.125-0.033-0.111-0.145-0.154-0.156
		c-0.328-0.096-0.72-0.045-1.077-0.152c-0.022-0.01-0.051-0.13-0.153-0.155c-0.096-0.024-0.217,0.031-0.309,0
		c-0.055-0.018,0-0.146-0.154-0.155c-0.043-0.002-0.113,0.017-0.154,0c-0.572-0.188-1.16-0.422-1.693-0.614
		c-0.611-0.218-1.154-0.402-1.693-0.616c-0.601-0.236-1.145-0.503-1.692-0.771c-0.188-0.09-0.306-0.06-0.464-0.152
		c-0.133-0.077-0.061-0.063-0.153-0.155c-0.164-0.165-0.603-0.291-0.923-0.462c-0.58-0.303-1.155-0.563-1.696-0.924
		c-0.028-0.02-0.127,0.025-0.153,0c-0.02-0.018,0.021-0.143,0-0.153c-0.178-0.095-0.308-0.063-0.463-0.153
		c-0.07-0.041-0.246-0.093-0.308-0.154c-0.021-0.022,0.024-0.135,0-0.153c-0.056-0.038-0.269,0.05-0.31,0
		c-0.016-0.021,0.023-0.14,0-0.153c-0.164-0.099-0.313-0.063-0.461-0.154c-0.033-0.021-0.094-0.112-0.153-0.153
		c-0.154-0.104-0.499-0.281-0.771-0.462c-0.179-0.117-0.632-0.424-0.924-0.616c-0.075-0.05-0.241-0.091-0.308-0.153
		c-0.023-0.022,0.022-0.136,0-0.154c-0.057-0.037-0.269,0.051-0.309,0c-0.019-0.022,0.024-0.139,0-0.153
		c-0.275-0.188-0.503-0.269-0.771-0.462c-0.197-0.143-0.425-0.317-0.617-0.462c-0.21-0.16-0.413-0.261-0.615-0.462
		c-0.024-0.024,0.025-0.135,0-0.153c-0.129-0.106-0.346-0.047-0.462-0.155c-0.072-0.066-0.081-0.246-0.154-0.307
		c-0.205-0.173-0.554-0.281-0.77-0.462c-0.027-0.022,0.021-0.134,0-0.155c-0.027-0.025-0.13,0.025-0.154,0
		c-0.025-0.025,0.024-0.13,0-0.152c-0.154-0.158-0.394-0.315-0.615-0.463c-0.146-0.097-0.343-0.188-0.461-0.309
		c-0.082-0.081-0.39-0.542-0.619-0.771c-0.132-0.132-0.302-0.201-0.462-0.308c-0.129-0.087-0.551-0.392-0.771-0.616
		c-0.194-0.199-0.264-0.544-0.461-0.771c-0.023-0.024-0.129,0.025-0.154,0c-0.024-0.024,0.027-0.127,0-0.152
		c-0.024-0.025-0.127,0.025-0.154,0c-0.024-0.025,0.027-0.129,0-0.154c-0.068-0.062-0.252-0.087-0.307-0.154
		c-0.169-0.2-0.291-0.547-0.463-0.771c-0.021-0.024-0.129,0.026-0.154,0c-0.083-0.083-0.077-0.209-0.153-0.307
		c-0.06-0.078-0.084-0.238-0.154-0.31c-0.129-0.13-0.333-0.18-0.462-0.309c-0.025-0.023,0.025-0.13,0-0.153
		c-0.025-0.024-0.129,0.023-0.154,0c-0.025-0.024,0.025-0.13,0-0.153c-0.022-0.021-0.135,0.023-0.153,0
		c-0.048-0.064,0.031-0.233,0-0.309c0,0-0.127-0.104-0.154-0.152c-0.046-0.084-0.145,0.021-0.154-0.155
		c-0.009-0.183-0.335-0.429-0.462-0.616c-0.095-0.143-0.186-0.339-0.308-0.462c-0.022-0.022-0.136,0.026-0.154,0
		c-0.038-0.058,0.05-0.267,0-0.31c-0.024-0.019-0.138,0.026-0.153,0c-0.089-0.125-0.057-0.313-0.154-0.459
		c-0.016-0.025-0.133,0.019-0.154,0c-0.085-0.086-0.083-0.203-0.153-0.31c-0.05-0.074-0.09-0.245-0.154-0.31
		c-0.022-0.021-0.135,0.026-0.153,0c-0.039-0.057,0.049-0.268,0-0.307c-0.023-0.02-0.141,0.022-0.154,0
		c-0.123-0.193-0.145-0.373-0.308-0.617c-0.021-0.031,0.024-0.13,0-0.152c-0.021-0.021-0.141,0.021-0.154,0
		c-0.116-0.197-0.145-0.374-0.308-0.616c-0.021-0.032,0.025-0.129,0-0.154c-0.021-0.021-0.14,0.022-0.154,0
		c-0.115-0.196-0.145-0.372-0.308-0.616c-0.021-0.029,0.025-0.129,0-0.152c-0.021-0.021-0.143,0.021-0.154,0
		c-0.082-0.145-0.072-0.273-0.154-0.465c-0.031-0.069-0.145,0.012-0.153-0.153c-0.002-0.045-0.118-0.254-0.154-0.31
		c-0.047-0.068-0.129-0.111-0.154-0.153c-0.12-0.192-0.145-0.37-0.308-0.615c-0.021-0.028,0.025-0.127,0-0.155
		c-0.021-0.017-0.143,0.024-0.154,0c-0.031-0.055,0.048-0.269,0-0.307c-0.018-0.014-0.145,0.021-0.153,0
		c-0.041-0.084,0.036-0.223,0-0.309c-0.017-0.034-0.118-0.053-0.154-0.153c-0.077-0.209-0.08-0.286-0.154-0.462
		c-0.057-0.131-0.079-0.288-0.154-0.463c-0.032-0.07-0.147,0.011-0.154-0.152c-0.001-0.04,0.014-0.119,0-0.154
		c-0.043-0.102-0.138-0.113-0.153-0.154c-0.084-0.194-0.05-0.305-0.154-0.461c-0.1-0.15-0.1-0.244-0.154-0.463
		c-0.041-0.156-0.117-0.074-0.156-0.153c-0.025-0.058,0.045-0.272,0-0.31c-0.014-0.014-0.147,0.016-0.154,0
		c-0.031-0.088,0.039-0.222,0-0.309c-0.02-0.051-0.117-0.03-0.154-0.153c-0.025-0.095,0.025-0.212,0-0.309
		c-0.029-0.124-0.14-0.111-0.154-0.153c-0.079-0.279-0.057-0.65-0.154-0.922c-0.011-0.035-0.124-0.042-0.153-0.154
		c-0.054-0.226-0.107-0.277-0.154-0.463c-0.034-0.142-0.054-0.518-0.154-0.615c-0.018-0.021-0.14,0.021-0.153,0
		c-0.029-0.058,0.047-0.27,0-0.308c-0.025-0.021-0.134,0.024-0.154,0c-0.428-0.555-0.852-0.929-1.386-0.924
		c-0.128,0-0.337-0.039-0.462,0c-0.163,0.047-0.061,0.095-0.153,0.153c-0.299,0.187-0.508,0.375-0.771,0.771
		c-0.02,0.029,0.025,0.126,0,0.153c-0.018,0.018-0.142-0.022-0.153,0c-0.114,0.209-0.073,0.382-0.154,0.615
		c-0.052,0.149-0.104,0.246-0.154,0.463c-0.084,0.359-0.091,0.798-0.154,1.076c-0.029,0.127-0.126,0.155-0.154,0.308
		c-0.052,0.284-0.059,0.401-0.153,0.771c-0.086,0.34-0.042,0.317-0.154,0.771c-0.029,0.119-0.145,0.119-0.154,0.154
		c-0.083,0.315-0.056,0.717-0.153,1.076c-0.002,0.012-0.132,0.06-0.154,0.155c-0.065,0.265-0.029,0.419-0.154,0.769
		c-0.104,0.293-0.333,0.627-0.462,0.924c-0.146,0.346-0.179,0.627-0.308,0.926c-0.156,0.365-0.311,0.577-0.462,0.926
		c-0.063,0.143-0.083,0.268-0.154,0.462c-0.042,0.12-0.131,0.101-0.153,0.154c-0.036,0.083,0.041,0.226,0,0.308
		c-0.039,0.075-0.145-0.018-0.154,0.155c-0.004,0.067-0.115,0.222-0.153,0.308c-0.043,0.09-0.141,0.118-0.154,0.154
		c-0.077,0.174-0.035,0.342-0.154,0.462c-0.09,0.089-0.081,0.024-0.153,0.153c-0.123,0.209-0.299,0.486-0.462,0.771
		c-0.123,0.207-0.299,0.485-0.462,0.769c-0.034,0.058-0.15,0.144-0.154,0.153c-0.036,0.08,0.046,0.235,0,0.309
		c-0.039,0.059-0.285,0.104-0.308,0.154c-0.036,0.076,0.047,0.242,0,0.309c-0.021,0.025-0.132-0.021-0.154,0
		c-0.088,0.086-0.083,0.201-0.154,0.309c-0.049,0.073-0.09,0.241-0.153,0.308c-0.022,0.022-0.138-0.024-0.154,0
		c-0.104,0.155-0.057,0.323-0.154,0.462c-0.063,0.086-0.145-0.023-0.156,0.154c-0.008,0.205-0.452,0.523-0.615,0.77
		c-0.096,0.145-0.186,0.344-0.309,0.462c-0.022,0.026-0.131-0.024-0.153,0c-0.043,0.056,0.052,0.269,0,0.31
		c-0.028,0.023-0.129-0.025-0.154,0c-0.025,0.027,0.027,0.13,0,0.152c-0.025,0.026-0.129-0.022-0.154,0
		c-0.025,0.027,0.027,0.131,0,0.155c-0.025,0.026-0.127-0.024-0.153,0c-0.025,0.026,0.026,0.128,0,0.153
		c-0.025,0.027-0.129-0.025-0.154,0c-0.025,0.027,0.027,0.13,0,0.152c-0.025,0.028-0.127-0.022-0.154,0
		c-0.024,0.028,0.027,0.131,0,0.155c-0.024,0.026-0.127-0.024-0.154,0c-0.025,0.026,0.027,0.128,0,0.153
		c-0.025,0.027-0.126-0.025-0.154,0c-0.025,0.027,0.028,0.13,0,0.152c-0.025,0.028-0.126-0.022-0.154,0
		c-0.024,0.028,0.028,0.131,0,0.155c-0.024,0.026-0.126-0.024-0.153,0c-0.025,0.026,0.027,0.128,0,0.153
		c-0.025,0.027-0.126-0.025-0.154,0c-0.025,0.027,0.028,0.13,0,0.154c-0.025,0.026-0.126-0.024-0.153,0
		c-0.025,0.026,0.027,0.129,0,0.153c-0.025,0.026-0.127-0.024-0.154,0c-0.025,0.026,0.027,0.128,0,0.154
		c-0.025,0.026-0.127-0.026-0.154,0c-0.025,0.026,0.027,0.129,0,0.153c-0.025,0.026-0.127-0.024-0.153,0
		c-0.025,0.026,0.026,0.129,0,0.152c-0.025,0.027-0.128-0.023-0.154,0c-0.025,0.027,0.026,0.129,0,0.155
		c-0.025,0.026-0.127-0.026-0.154,0c-0.131,0.129-0.181,0.327-0.308,0.464c-0.025,0.025-0.129-0.027-0.154,0
		c-0.025,0.025,0.025,0.127,0,0.153c-0.025,0.024-0.129-0.026-0.154,0c-0.025,0.022,0.027,0.129,0,0.155
		c-0.247,0.217-0.519,0.25-0.771,0.461c-0.024,0.021,0.025,0.129,0,0.154c-0.024,0.022-0.128-0.027-0.153,0
		c-0.025,0.022,0.025,0.127,0,0.152c-0.134,0.133-0.313,0.191-0.462,0.309c-0.078,0.062-0.238,0.082-0.308,0.153
		c-0.034,0.034-0.122,0.295-0.154,0.31c-0.075,0.03-0.245-0.051-0.308,0c-0.129,0.097-0.179,0.369-0.309,0.461
		c-0.149,0.103-0.328,0.053-0.462,0.153c-0.027,0.021,0.023,0.13,0,0.155c-0.085,0.083-0.21,0.076-0.308,0.152
		c-0.077,0.06-0.238,0.086-0.308,0.154c-0.023,0.021,0.025,0.137,0,0.154c-0.071,0.047-0.231-0.034-0.309,0
		c0.012-0.005-0.12,0.131-0.154,0.152c-0.032,0.019-0.093,0.115-0.154,0.154c-0.156,0.102-0.498,0.28-0.77,0.461
		c-0.071,0.045-0.116,0.131-0.154,0.155c-0.365,0.222-0.713,0.371-1.08,0.616c-0.029,0.021-0.126-0.025-0.154,0
		c-0.018,0.018,0.023,0.143,0,0.152c-0.174,0.096-0.306,0.065-0.461,0.154c-0.555,0.313-1.105,0.619-1.694,0.924
		c-0.315,0.164-0.586,0.291-0.924,0.461c-0.2,0.104-0.374,0.148-0.616,0.31c-0.149,0.101-0.243,0.101-0.462,0.153
		c-0.152,0.039-0.347,0.193-0.616,0.309c-0.204,0.086-0.337,0.238-0.616,0.309c-0.091,0.022-0.224-0.035-0.308,0
		c-0.072,0.031,0.011,0.146-0.154,0.153c-0.072,0.007-0.224,0.116-0.308,0.153c-0.202,0.094-0.378,0.15-0.616,0.309
		c-0.149,0.102-0.243,0.102-0.462,0.153c-0.147,0.037-0.088,0.13-0.154,0.155c-0.134,0.052-0.333-0.055-0.462,0
		c-0.039,0.018-0.05,0.117-0.154,0.152c-0.912,0.317-2.257,0.738-3.389,1.078c-0.423,0.129-0.897,0.329-1.387,0.463
		c-0.096,0.026-0.211-0.022-0.309,0c-0.121,0.031-0.116,0.145-0.154,0.154c-0.352,0.098-0.833,0.055-1.232,0.155
		c-0.003,0-0.063,0.131-0.154,0.153c-0.263,0.063-0.411,0.074-0.77,0.154c-0.419,0.09-0.824,0.067-1.232,0.153
		c0.009-0.002-0.074,0.134-0.154,0.153c-0.098,0.023-0.211-0.022-0.308,0c-0.227,0.05-0.274,0.115-0.462,0.154
		c-0.745,0.146-1.516,0.205-2.311,0.307c-0.131,0.019-0.255,0.129-0.462,0.156c-0.347,0.045-0.744-0.065-1.231,0
		c-0.386,0.049-1.021,0.195-1.695,0.307c-0.335,0.056-0.738,0.099-1.078,0.154c-0.718,0.117-1.436,0.201-2.156,0.308
		c-0.166,0.024-0.334,0.135-0.616,0.155c-4.224,0.3-9.821,0.152-14.478,0.152c-1.785,0-3.569,0.131-5.237,0
		c-0.117-0.009-0.169-0.129-0.308-0.152c-0.177-0.034-0.56,0.045-0.924,0c-0.13-0.017-0.256-0.129-0.463-0.155
		c-0.202-0.024-0.415,0.028-0.616,0c0.029,0.006-0.088-0.138-0.154-0.153c-0.192-0.05-0.422,0.049-0.616,0
		c-0.179-0.045-0.291-0.119-0.77-0.152c-0.095-0.008-0.215,0.021-0.308,0c-0.094-0.025-0.153-0.155-0.153-0.155
		c-0.25-0.038-0.521,0.047-0.771,0c-0.139-0.025-0.25-0.122-0.462-0.153c-0.2-0.031-0.416,0.034-0.616,0
		c-0.143-0.023-0.245-0.129-0.462-0.152c-0.337-0.043-0.676,0.1-1.078,0c-0.179-0.047-0.292-0.121-0.77-0.156
		c-0.098-0.006-0.215,0.024-0.308,0c-0.098-0.023-0.15-0.152-0.154-0.152c-0.431-0.072-0.794-0.074-1.233-0.152
		c-0.37-0.072-0.749-0.089-1.078-0.156c0.011,0.004-0.076-0.135-0.154-0.152c-0.194-0.051-0.422,0.048-0.617,0
		c-0.106-0.027-0.136-0.152-0.154-0.153c-0.367-0.077-0.711-0.071-1.078-0.155c-0.126-0.028-0.156-0.125-0.308-0.152
		c-0.098-0.021-0.211,0.021-0.308,0c-0.316-0.076-0.553-0.205-0.924-0.311c-0.095-0.024-0.211,0.024-0.308,0
		c-0.136-0.035-0.264-0.104-0.462-0.154c-0.136-0.034-0.264-0.104-0.462-0.152c-0.123-0.031-0.117-0.145-0.154-0.155
		c-0.315-0.086-0.745-0.052-1.078-0.153c-0.048-0.014-0.007-0.146-0.154-0.152c-0.041-0.004-0.116,0.015-0.154,0
		c-0.154-0.063-0.247-0.102-0.462-0.155c-0.134-0.03-0.104-0.137-0.154-0.153c-0.332-0.106-0.494,0.03-0.771-0.153
		c-0.149-0.099-0.243-0.099-0.462-0.154c-0.159-0.038-0.337-0.205-0.617-0.308c-0.306-0.111-0.651-0.191-0.923-0.309
		c-0.322-0.139-0.648-0.318-0.924-0.463c-0.2-0.102-0.375-0.146-0.617-0.309c-0.05-0.032-0.137-0.145-0.154-0.153
		c-0.21-0.108-0.398-0.043-0.616-0.153c-0.003-0.002-0.113-0.127-0.154-0.154c-0.029-0.02-0.128,0.027-0.154,0
		c-0.018-0.018,0.023-0.141,0-0.153c-0.172-0.097-0.311-0.06-0.462-0.153c-0.031-0.019-0.093-0.113-0.154-0.154
		c-0.031-0.02-0.128,0.025-0.154,0c-0.019-0.019,0.022-0.141,0-0.153c-0.205-0.114-0.401-0.043-0.616-0.153
		c-0.004-0.004-0.113-0.128-0.154-0.154c-0.031-0.02-0.128,0.024-0.154,0c-0.02-0.02,0.022-0.141,0-0.153
		c-0.197-0.11-0.372-0.146-0.616-0.31c-0.155-0.104-0.498-0.279-0.77-0.461c-0.287-0.189-0.951-0.589-1.386-0.924
		c-0.059-0.046-0.069-0.098-0.154-0.154c-0.144-0.096-0.341-0.187-0.462-0.308c-0.022-0.022,0.025-0.14,0-0.155
		c-0.155-0.104-0.328-0.045-0.462-0.152c-0.027-0.021,0.023-0.131,0-0.153c-0.027-0.026-0.129,0.024-0.154,0
		c-0.027-0.026,0.025-0.129,0-0.155c-0.132-0.131-0.319-0.185-0.462-0.307c-0.138-0.119-0.335-0.182-0.463-0.309
		c-0.026-0.027,0.026-0.129,0-0.153c-0.026-0.027-0.127,0.024-0.154,0c-0.025-0.026,0.026-0.134,0-0.155
		c-0.134-0.126-0.327-0.181-0.462-0.307c-0.026-0.026,0.026-0.131,0-0.155c-0.026-0.026-0.128,0.024-0.154,0
		c-0.026-0.026,0.026-0.129,0-0.153c-0.077-0.078-0.231-0.078-0.308-0.152c-0.026-0.028,0.026-0.131,0-0.155
		c-0.034-0.033-0.294-0.122-0.308-0.153c-0.03-0.072,0.049-0.252,0-0.309c-0.021-0.026-0.13,0.023-0.154,0
		c-0.026-0.026,0.026-0.128,0-0.153c-0.026-0.028-0.127,0.025-0.154,0c-0.146-0.146-0.309-0.389-0.462-0.618
		c-0.046-0.07-0.129-0.113-0.154-0.154c-0.028-0.045-0.153-0.149-0.155-0.152c-0.033-0.078,0.047-0.238,0-0.309
		c-0.038-0.059-0.285-0.104-0.308-0.153c-0.086-0.19-0.049-0.308-0.154-0.463c-0.043-0.065-0.131-0.117-0.154-0.153
		c-0.117-0.193-0.145-0.372-0.308-0.617c-0.122-0.183-0.045-0.361-0.154-0.615c-0.011-0.028-0.118-0.062-0.154-0.152
		c-0.082-0.209-0.238-0.336-0.309-0.617c-0.081-0.327-0.022-0.336-0.154-0.77c-0.014-0.049-0.146-0.006-0.154-0.154
		c-0.023-0.462-0.058-0.428-0.154-0.924c-0.071-0.371-0.09-0.709-0.154-1.078c0.004,0.021-0.136-0.082-0.154-0.153
		c-0.048-0.192,0.049-0.424,0-0.614c-0.021-0.086-0.154-0.164-0.154-0.156c-0.138-1.142-0.029-2.44,0.154-3.696
		c0.035-0.238,0.12-0.267,0.154-0.463c0.075-0.417,0.027-0.656,0.154-1.077c0.121-0.395,0.273-1.023,0.462-1.539
		c0.05-0.137,0.087-0.277,0.154-0.462c0.044-0.121,0.131-0.101,0.154-0.155c0.066-0.152,0.041-0.5,0.154-0.615
		c0.019-0.02,0.143,0.021,0.154,0c0.095-0.177,0.06-0.31,0.154-0.463c0.045-0.072,0.093-0.246,0.154-0.309
		c0.023-0.021,0.136,0.025,0.154,0c0.096-0.124,0.053-0.316,0.154-0.462c0.018-0.022,0.133,0.024,0.154,0
		c0.086-0.086,0.079-0.207,0.154-0.308c0.06-0.076,0.085-0.237,0.155-0.309c0.077-0.077,0.231-0.077,0.308-0.152
		c0.026-0.026-0.026-0.13,0-0.156c0.021-0.021,0.137,0.026,0.154,0c0.103-0.15,0.04-0.33,0.154-0.459
		c0.023-0.028,0.129,0.024,0.154,0c0.026-0.028-0.026-0.131,0-0.153c0.026-0.028,0.128,0.022,0.154,0
		c0.026-0.028-0.026-0.13,0-0.155c0.026-0.025,0.128,0.025,0.154,0c0.026-0.025-0.026-0.128,0-0.152
		c0.026-0.028,0.128,0.024,0.154,0c0.026-0.028-0.026-0.131,0-0.153c0.026-0.028,0.128,0.022,0.154,0
		c0.025-0.028-0.026-0.13,0-0.155c0.025-0.025,0.128,0.025,0.154,0s-0.026-0.128,0-0.152c0.026-0.028,0.128,0.024,0.154,0
		c0.026-0.028-0.026-0.131,0-0.154c0.026-0.027,0.128,0.023,0.154,0c0.026-0.027-0.026-0.129,0-0.153
		c0.026-0.026,0.127,0.024,0.154,0c0.026-0.026-0.026-0.129,0-0.155s0.128,0.026,0.154,0c0.026-0.026-0.026-0.129,0-0.152
		c0.026-0.027,0.128,0.023,0.154,0c0.026-0.027-0.026-0.129,0-0.153c0.026-0.026,0.128,0.024,0.154,0
		c0.078-0.077,0.078-0.229,0.155-0.31c0.025-0.026,0.126,0.024,0.154,0c0.033-0.033,0.121-0.295,0.154-0.309
		c0.072-0.031,0.247,0.049,0.308,0c0.025-0.021-0.025-0.131,0-0.152c0.131-0.135,0.302-0.203,0.462-0.31
		c0.086-0.06,0.095-0.112,0.154-0.153c0.024-0.019,0.169-0.16,0.154-0.156c0.075-0.03,0.243,0.051,0.308,0
		c0.065-0.047,0.09-0.27,0.154-0.307c0.076-0.044,0.225,0.035,0.308,0c0.007-0.004,0.094-0.123,0.154-0.156
		c0.208-0.104,0.557-0.307,0.924-0.461c0.055-0.022,0.273,0.043,0.308,0c0.015-0.018-0.019-0.146,0-0.153
		c0.057-0.024,0.272,0.045,0.308,0c0.014-0.017-0.017-0.146,0-0.153c0.258-0.1,0.539-0.083,0.77-0.154
		c1.261-0.387,2.564-0.621,3.851-0.77c1.108-0.128,1.994-0.238,3.235-0.155c0.462,0.032,0.874,0.068,1.54,0.155
		c0.24,0.031,0.265,0.122,0.462,0.152c0.197,0.031,0.421-0.045,0.616,0c0.128,0.031,0.156,0.127,0.308,0.154
		c0.401,0.075,0.671,0.053,1.078,0.154c0.228,0.057,0.276,0.083,0.462,0.152c0.054,0.021,0.274-0.041,0.308,0
		c0.011,0.015-0.014,0.15,0,0.154c0.095,0.028,0.213-0.022,0.308,0c0.136,0.033,0.265,0.106,0.461,0.154
		c0.136,0.032,0.265,0.105,0.462,0.153c0.158,0.041,0.076,0.116,0.154,0.153c0.056,0.026,0.271-0.043,0.308,0
		c0.175,0.215,0.451,0.295,0.771,0.461c0.071,0.041,0.134,0.148,0.154,0.155c0.075,0.033,0.244-0.048,0.308,0
		c0.067,0.052,0.09,0.271,0.154,0.308c0.191,0.115,0.423,0.033,0.616,0.156c0.024,0.014-0.021,0.131,0,0.153
		c0.141,0.138,0.5,0.254,0.771,0.462c0.059,0.047,0.068,0.096,0.154,0.155c0.093,0.062,0.086,0.103,0.154,0.153
		c0.521,0.402,1.048,0.766,1.539,1.23c0.247,0.234,0.365,0.52,0.617,0.771c0.129,0.129,0.327,0.181,0.462,0.309
		c0.026,0.023-0.025,0.127,0,0.15c0.024,0.026,0.127-0.024,0.154,0c0.025,0.026-0.026,0.129,0,0.156
		c0.139,0.137,0.542,0.473,0.77,0.769c0.062,0.077,0.084,0.237,0.154,0.309c0.034,0.035,0.294,0.123,0.308,0.153
		c0.032,0.076-0.048,0.245,0,0.309c0.102,0.135,0.361,0.18,0.462,0.31c0.094,0.118,0.053,0.325,0.154,0.462
		c0.039,0.052,0.288,0.109,0.308,0.154c0.034,0.076-0.047,0.242,0,0.309c0.018,0.023,0.131-0.023,0.154,0
		c0.138,0.138,0.259,0.498,0.462,0.77c0.075,0.1,0.077,0.076,0.154,0.154c0.129,0.127,0.208,0.383,0.308,0.615
		c0.043,0.102,0.137,0.113,0.154,0.152c0.037,0.086-0.045,0.232,0,0.31c0.037,0.063,0.286,0.103,0.308,0.153
		c0.087,0.193,0.051,0.306,0.154,0.462c0.136,0.204,0.437,0.75,0.616,1.077c0.057,0.104,0.088,0.205,0.155,0.31
		c0.046,0.074,0.13,0.115,0.154,0.156c0.115,0.194,0.145,0.37,0.308,0.614c0.099,0.147,0.099,0.244,0.154,0.463
		c0.04,0.16,0.113,0.07,0.154,0.154c0.104,0.213,0.042,0.396,0.154,0.616c0.003,0.001,0.127,0.111,0.154,0.153
		c0.033,0.046,0.148,0.14,0.154,0.152c0.105,0.215,0.043,0.398,0.154,0.617c0.002,0.004,0.127,0.112,0.154,0.153
		c0.149,0.224,0.265,0.703,0.462,1.229c0.024,0.063,0.146-0.002,0.154,0.155c0.002,0.04-0.015,0.116,0,0.153
		c0.062,0.154,0.1,0.247,0.154,0.463c0.035,0.143,0.131,0.093,0.154,0.152c0.128,0.347,0.178,0.68,0.309,1.08
		c0.041,0.125,0.125,0.154,0.154,0.307c0.043,0.236,0.104,0.271,0.154,0.462c0.023,0.095-0.031,0.217,0,0.31
		c0.02,0.057,0.145,0,0.154,0.152c0.002,0.042-0.016,0.119,0,0.155c0.061,0.153,0.1,0.246,0.154,0.462
		c0.044,0.182,0.322,0.669,0.462,1.077c0.217,0.644,0.374,1.396,0.616,2.159c0.04,0.125,0.125,0.152,0.154,0.307
		c0.043,0.236,0.105,0.268,0.154,0.462c0.079,0.317,0.216,0.558,0.308,0.924c0.023,0.095-0.029,0.214,0,0.31
		c0.016,0.05,0.146,0.005,0.154,0.152c0.018,0.338,0.095,0.383,0.154,0.617c0.022,0.096-0.032,0.215,0,0.307
		c0.018,0.057,0.145,0,0.154,0.155c0.002,0.04-0.016,0.116,0,0.153c0.068,0.173,0.274,0.63,0.462,0.925
		c0.021,0.03-0.025,0.129,0,0.153c0.206,0.207,0.478,0.379,0.77,0.615c0.066,0.055,0.063,0.093,0.154,0.154
		c0.031,0.021,0.129-0.025,0.154,0c0.02,0.021-0.023,0.143,0,0.153c0.056,0.03,0.269-0.048,0.308,0c0.016,0.019-0.019,0.146,0,0.153
		c0.084,0.041,0.222-0.036,0.308,0c0.05,0.023,0.032,0.121,0.154,0.154c0.097,0.025,0.212-0.021,0.31,0
		c0.095,0.024,0.149,0.153,0.154,0.153c0.958,0.157,1.97-0.054,3.08-0.153c0.666-0.059,1.333-0.092,2.001-0.154
		c0.535-0.053,0.849-0.055,1.54-0.153c0.047-0.007,0.282,0.03,0.308,0c0.011-0.011-0.01-0.151,0-0.153
		c0.43-0.083,0.68-0.035,1.08-0.154c0.239-0.069,0.515-0.231,0.77-0.308c0.61-0.185,1.17-0.297,1.695-0.462
		c1.18-0.374,2.163-0.802,3.08-1.232c0.188-0.088,0.299-0.07,0.462-0.153c0.153-0.079,0.278-0.3,0.462-0.31
		c0.127-0.007,0.154-0.146,0.308-0.152c0.048-0.002,0.253-0.117,0.308-0.153c0.245-0.164,0.449-0.255,0.77-0.462
		c0.086-0.057-0.024-0.145,0.154-0.155c0.131-0.007,0.342-0.231,0.462-0.307c0.136-0.085,0.291-0.3,0.462-0.31
		c0.197-0.012,0.197-0.223,0.308-0.309c0.079-0.061,0.237-0.083,0.308-0.152c0.063-0.063,0.087-0.256,0.154-0.31
		c0.054-0.043,0.267,0.05,0.309,0c0.197-0.241,0.457-0.603,0.77-0.925c0.076-0.079,0.23-0.075,0.308-0.152
		c0.078-0.08,0.076-0.229,0.154-0.311c0.178-0.183,0.473-0.299,0.616-0.463c0.085-0.095,0.3-0.318,0.308-0.461
		c0.015-0.26,0.446-0.312,0.463-0.617c0.009-0.195,0.223-0.193,0.308-0.309c0.041-0.053-0.052-0.264,0-0.307
		c0.023-0.02,0.138,0.023,0.154,0c0.117-0.178,0.186-0.406,0.308-0.617c0.047-0.081,0.145,0.021,0.154-0.152
		c0.007-0.125,0.146-0.154,0.154-0.31c0.006-0.131,0.233-0.34,0.308-0.462c0.337-0.549,0.768-1.496,1.078-2.311
		c0.214-0.563,0.37-1.232,0.616-1.847c0.023-0.056-0.042-0.274,0-0.31c0.014-0.012,0.149,0.015,0.154,0
		c0.043-0.142-0.032-0.318,0-0.461c0.027-0.125,0.119-0.166,0.154-0.31c0.27-1.114,0.426-2.327,0.462-3.543
		c0.047-1.569-0.163-3.255-0.616-4.62c-0.042-0.128-0.126-0.156-0.154-0.307c-0.044-0.236-0.106-0.271-0.154-0.462
		c-0.022-0.095,0.036-0.224,0-0.31c-0.028-0.066-0.145,0.008-0.154-0.152c-0.005-0.073-0.116-0.226-0.154-0.31
		c-0.093-0.202-0.149-0.378-0.308-0.616c-0.021-0.031,0.025-0.129,0-0.152c-0.02-0.021-0.143,0.02-0.154,0
		c-0.095-0.178-0.063-0.309-0.154-0.463c-0.307-0.523-0.672-1.045-1.078-1.543c-0.071-0.086-0.145,0.027-0.154-0.152
		c-0.014-0.238-0.453-0.451-0.616-0.617c-0.027-0.023,0.025-0.126,0-0.152c-0.027-0.024-0.129,0.026-0.154,0
		c-0.027-0.024,0.025-0.129,0-0.153c-0.027-0.026-0.129,0.024-0.154,0c-0.027-0.026,0.025-0.128,0-0.155
		c-0.027-0.023-0.129,0.027-0.154,0c-0.027-0.023,0.025-0.126,0-0.152c-0.214-0.219-0.568-0.418-0.771-0.615
		c-0.026-0.026,0.026-0.129,0-0.155c-0.026-0.024-0.128,0.026-0.154,0c-0.026-0.024,0.026-0.126,0-0.153
		c-0.131-0.132-0.32-0.183-0.461-0.309c-0.026-0.021,0.024-0.128,0-0.153c-0.085-0.083-0.209-0.077-0.308-0.153
		c-0.078-0.06-0.239-0.084-0.308-0.153c-0.024-0.023,0.026-0.136,0-0.155c-0.216-0.16-0.537-0.301-0.771-0.462
		c-0.086-0.06,0.026-0.146-0.154-0.153c-0.125-0.007-0.349-0.231-0.462-0.309c-0.154-0.104-0.499-0.281-0.77-0.462
		c-0.067-0.046-0.117-0.132-0.154-0.153c-0.281-0.171-0.639-0.298-0.924-0.462c-0.283-0.164-0.496-0.317-0.77-0.462
		c-0.313-0.166-0.588-0.29-0.924-0.462c-0.199-0.103-0.374-0.146-0.616-0.31c-0.202-0.135-0.598-0.27-1.078-0.461
		c-0.208-0.084-0.335-0.238-0.616-0.309c-0.091-0.021-0.225,0.036-0.308,0c-0.07-0.029,0.01-0.145-0.154-0.154
		c-0.072-0.004-0.224-0.115-0.308-0.154c-0.197-0.088-0.342-0.238-0.617-0.309c-0.209-0.052-0.309-0.052-0.462-0.152
		c-0.389-0.261-1.502-0.551-2.157-0.771c-0.125-0.041-0.154-0.126-0.308-0.153c-0.235-0.045-0.267-0.106-0.462-0.153
		c-0.317-0.078-0.557-0.217-0.924-0.309c-0.317-0.078-0.558-0.217-0.924-0.307c-0.317-0.083-0.559-0.219-0.924-0.311
		c-0.093-0.024-0.218,0.032-0.308,0c-0.062-0.021,0.004-0.146-0.154-0.156c-0.139-0.006-0.512-0.205-0.771-0.307
		c-0.754-0.295-1.825-0.59-2.773-0.924c-0.088-0.029-0.217-0.097-0.308-0.154c-0.031-0.019-0.129,0.026-0.154,0
		c-0.016-0.017,0.02-0.146,0-0.154c-0.086-0.035-0.217,0.022-0.308,0c-0.136-0.034-0.264-0.104-0.462-0.152
		c-0.136-0.035-0.264-0.105-0.462-0.154c-0.136-0.033-0.265-0.104-0.462-0.154c-0.156-0.037-0.342-0.199-0.616-0.309
		c-0.294-0.115-0.661-0.197-0.924-0.308c-0.067-0.027,0.009-0.146-0.154-0.154c-0.041-0.002-0.117,0.017-0.154,0
		c-0.217-0.087-0.339-0.194-0.616-0.308c-0.276-0.111-0.66-0.198-0.925-0.309c-0.303-0.127-0.638-0.339-0.924-0.463
		c-0.272-0.119-0.668-0.188-0.924-0.309c-0.073-0.032,0.015-0.145-0.154-0.153c-0.071-0.003-0.223-0.114-0.308-0.153
		c-0.201-0.093-0.377-0.149-0.617-0.309c-0.03-0.021-0.127,0.025-0.154,0c-0.018-0.018,0.023-0.145,0-0.152
		c-0.173-0.094-0.306-0.072-0.462-0.154c-0.199-0.104-0.374-0.147-0.616-0.309c-0.03-0.021-0.128,0.023-0.154,0
		c-0.02-0.021,0.024-0.142,0-0.152c-0.196-0.114-0.372-0.146-0.616-0.31c-0.066-0.043-0.118-0.135-0.154-0.153
		c-0.555-0.33-1.162-0.606-1.694-0.925c-0.083-0.05,0.023-0.145-0.154-0.155c-0.05,0-0.251-0.116-0.308-0.152
		c-0.075-0.049-0.245-0.092-0.308-0.153c-0.021-0.021,0.022-0.141,0-0.155c-0.075-0.045-0.227,0.035-0.308,0
		c0.004,0-0.111-0.129-0.154-0.152c-0.07-0.041-0.249-0.096-0.308-0.153c-0.13-0.131-0.14-0.2-0.308-0.31
		c-0.073-0.047-0.115-0.131-0.154-0.152c-0.054-0.034-0.147-0.15-0.154-0.154c-0.077-0.033-0.241,0.049-0.308,0
		c-0.026-0.018,0.021-0.134,0-0.154c-0.131-0.133-0.303-0.202-0.461-0.311c-0.182-0.119-0.633-0.396-0.925-0.615
		c-0.056-0.041-0.071-0.099-0.154-0.154c-0.144-0.096-0.341-0.186-0.462-0.307c-0.038-0.037-0.272-0.32-0.462-0.463
		c-0.077-0.057-0.239-0.085-0.308-0.152c-0.077-0.078-0.077-0.231-0.154-0.31c-0.026-0.026-0.128,0.027-0.154,0
		c-0.021-0.021,0.023-0.137,0-0.153c-0.154-0.104-0.332-0.039-0.463-0.154c-0.135-0.117-0.183-0.328-0.308-0.463
		c-0.024-0.023-0.128,0.025-0.154,0c-0.025-0.023,0.027-0.127,0-0.152c-0.025-0.025-0.127,0.025-0.154,0
		c-0.025-0.025,0.025-0.128,0-0.154c-0.025-0.025-0.128,0.024-0.154,0c-0.025-0.025,0.027-0.129,0-0.154
		c-0.025-0.023-0.126,0.025-0.154,0c-0.024-0.023,0.028-0.129,0-0.153c-0.024-0.022-0.127,0.024-0.154,0
		c-0.025-0.022,0.026-0.129,0-0.153c-0.025-0.025-0.128,0.024-0.154,0c-0.025-0.025,0.026-0.129,0-0.154
		c-0.231-0.23-0.536-0.387-0.77-0.615c-0.024-0.023,0.026-0.129,0-0.153c-0.024-0.024-0.128,0.024-0.154,0
		c-0.025-0.024,0.026-0.129,0-0.155c-0.025-0.024-0.128,0.026-0.154,0c-0.025-0.024,0.026-0.129,0-0.152
		c-0.025-0.025-0.128,0.023-0.154,0c-0.025-0.025,0.026-0.129,0-0.153c-0.025-0.024-0.129,0.026-0.154,0
		c-0.208-0.229-0.281-0.556-0.462-0.771c-0.021-0.027-0.129,0.023-0.154,0c-0.025-0.026,0.026-0.129,0-0.153
		c-0.025-0.026-0.128,0.024-0.154,0c-0.133-0.136-0.19-0.313-0.308-0.462c-0.215-0.272-0.405-0.483-0.616-0.771
		c-0.205-0.281-0.399-0.599-0.616-0.925c-0.048-0.069-0.129-0.112-0.154-0.153c-0.12-0.193-0.145-0.371-0.308-0.617
		c-0.048-0.069-0.129-0.112-0.154-0.152c-0.082-0.131-0.061-0.303-0.154-0.462c-0.049-0.083-0.145,0.021-0.154-0.155
		c-0.002-0.048-0.118-0.251-0.154-0.307c-0.079-0.121-0.067-0.067-0.154-0.155c-0.129-0.127-0.208-0.383-0.308-0.616
		c-0.086-0.199-0.151-0.378-0.308-0.616c-0.1-0.148-0.1-0.242-0.154-0.462c-0.043-0.17-0.311-0.667-0.462-1.077
		c-0.082-0.22-0.24-0.493-0.308-0.771c-0.226-0.903-0.633-2.199-0.925-3.233c-0.036-0.128-0.126-0.155-0.154-0.309
		c-0.077-0.412-0.258-1.198-0.308-1.848c-0.06-0.78,0.042-1.57,0-2.464c0.001,0.023-0.148-0.061-0.154-0.154
		c-0.036-0.676-0.169-2.153,0-3.081c0.026-0.146,0.136-0.239,0.154-0.462c0.034-0.421-0.035-0.828,0-1.233
		c0.069-0.809,0.11-1.539,0.308-2.31c0.071-0.274,0.206-0.625,0.308-0.924c0.115-0.333,0.212-0.604,0.308-0.924
		c0.208-0.684,0.384-1.318,0.617-2.002c0.042-0.127,0.125-0.156,0.154-0.308c0.043-0.236,0.104-0.27,0.154-0.462
		c0.052-0.21,0.052-0.31,0.154-0.463c0.099-0.148,0.099-0.242,0.154-0.462c0.038-0.152,0.12-0.078,0.154-0.154
		c0.137-0.313,0.107-0.47,0.308-0.77c0.12-0.182,0.195-0.352,0.308-0.616c0.043-0.101,0.136-0.112,0.154-0.154
		c0.075-0.175,0.034-0.341,0.154-0.463c0.088-0.088,0.079-0.025,0.154-0.154c0.12-0.208,0.299-0.487,0.462-0.77
		c0.033-0.057,0.15-0.143,0.154-0.154c0.034-0.082-0.045-0.233,0-0.308c0.051-0.084,0.146,0.022,0.154-0.154
		c0.007-0.125,0.233-0.35,0.308-0.461c0.118-0.175,0.376-0.605,0.616-0.924c0.02-0.025,0.131,0.022,0.154,0
		c0.086-0.085,0.079-0.208,0.154-0.308c0.059-0.077,0.084-0.238,0.154-0.308c0.077-0.077,0.231-0.077,0.308-0.154
		c0.026-0.025-0.025-0.129,0-0.154c0.021-0.021,0.139,0.025,0.154,0c0.103-0.154,0.041-0.331,0.154-0.462
		c0.118-0.136,0.331-0.184,0.462-0.309c0.026-0.024-0.025-0.128,0-0.154c0.026-0.026,0.129,0.025,0.154,0
		c0.026-0.026-0.025-0.129,0-0.154s0.131,0.026,0.154,0c0.22-0.25,0.256-0.543,0.462-0.77c0.025-0.027,0.129,0.025,0.154,0
		c0.026-0.026-0.025-0.129,0-0.154c0.026-0.026,0.129,0.025,0.154,0c0.026-0.026-0.025-0.129,0-0.154
		c0.026-0.026,0.129,0.025,0.154,0c0.026-0.026-0.025-0.129,0-0.154c0.026-0.026,0.129,0.025,0.154,0
		c0.026-0.026-0.025-0.129,0-0.154c0.026-0.026,0.129,0.025,0.154,0c0.028-0.026-0.024-0.129,0-0.154
		c0.028-0.026,0.129,0.025,0.154,0c0.027-0.026-0.025-0.129,0-0.154c0.027-0.026,0.129,0.025,0.154,0
		c0.027-0.026-0.025-0.129,0-0.154c0.027-0.026,0.129,0.025,0.154,0c0.186-0.186,0.537-0.666,0.925-0.924
		c0.144-0.096,0.341-0.188,0.462-0.309c0.141-0.141,0.481-0.524,0.77-0.77c0.202-0.171,0.414-0.258,0.616-0.462
		c0.13-0.13,0.14-0.2,0.309-0.308c0.029-0.019,0.128,0.026,0.154,0c0.077-0.077,0.077-0.231,0.154-0.308
		c0.025-0.026,0.126,0.026,0.154,0c0.022-0.023-0.028-0.135,0-0.154c0.063-0.049,0.233,0.032,0.308,0
		c0.089-0.038,0.086-0.241,0.154-0.308c0.086-0.086,0.205-0.081,0.308-0.155c0.076-0.054,0.24-0.085,0.308-0.154
		c0.022-0.023-0.026-0.134,0-0.154c0.127-0.097,0.31-0.052,0.461-0.154c0.025-0.016-0.022-0.131,0-0.154
		c0.086-0.086,0.195-0.088,0.309-0.154c0.056-0.031,0.143-0.149,0.154-0.154c0.079-0.034,0.236,0.047,0.308,0
		c0.058-0.038,0.104-0.286,0.154-0.308c0.076-0.034,0.241,0.048,0.308,0c0.025-0.018-0.023-0.131,0-0.154
		c0.086-0.086,0.202-0.083,0.308-0.154c0.322-0.213,0.594-0.396,0.924-0.616c0.032-0.021,0.129,0.026,0.154,0
		c0.019-0.018-0.023-0.142,0-0.154c0.175-0.094,0.305-0.067,0.461-0.154c0.066-0.035,0.138-0.147,0.154-0.154
		c0.079-0.034,0.237,0.047,0.308,0c0.025-0.016-0.02-0.133,0-0.154c0.085-0.083,0.193-0.095,0.308-0.154
		c0.27-0.134,0.505-0.131,0.77-0.308c0.115-0.077,0.36-0.198,0.616-0.308c0.102-0.043,0.113-0.136,0.154-0.154
		c0.155-0.066,0.502-0.04,0.617-0.154c0.019-0.018-0.023-0.143,0-0.154c0.174-0.094,0.306-0.07,0.462-0.154
		c0.143-0.077,0.058-0.059,0.154-0.154c0.121-0.122,0.26-0.103,0.462-0.154c0.158-0.04,0.075-0.118,0.154-0.154
		c0.226-0.104,0.374-0.068,0.616-0.154c0.035-0.013,0.04-0.126,0.154-0.154c0.209-0.052,0.309-0.052,0.463-0.154
		c0.148-0.1,0.242-0.1,0.462-0.154c0.142-0.036,0.092-0.131,0.154-0.154c0.134-0.05,0.331,0.056,0.462,0
		c0.039-0.017,0.049-0.118,0.154-0.154c0.362-0.127,0.902-0.286,1.386-0.462c0.125-0.046,0.156-0.126,0.308-0.154
		c0.208-0.04,0.314-0.056,0.462-0.154c0.15-0.1,0.242-0.1,0.462-0.154c0.136-0.034,0.264-0.105,0.462-0.154
		c0.133-0.034,0.103-0.138,0.154-0.154c0.325-0.106,0.713-0.054,1.079-0.154c0.011-0.004,0.057-0.131,0.154-0.154
		c0.337-0.086,0.32-0.039,0.77-0.154c0.127-0.034,0.155-0.127,0.308-0.154c0.283-0.054,0.4-0.061,0.77-0.154
		c0.34-0.088,0.317-0.042,0.77-0.155c0.111-0.028,0.129-0.148,0.154-0.154c0.354-0.081,0.692-0.08,1.078-0.154
		c0.34-0.065,0.727-0.08,1.078-0.154c0.027-0.006,0.024-0.147,0.154-0.154c0.457-0.024,0.915-0.178,1.386-0.308
		c0.097-0.026,0.213,0.024,0.308,0c0.114-0.028,0.129-0.148,0.154-0.154c0.352-0.083,0.689-0.069,1.08-0.154
		c0.135-0.029,0.263-0.11,0.462-0.154c0.097-0.021,0.211,0.024,0.308,0c0.094-0.024,0.152-0.154,0.154-0.154
		c0.891-0.138,1.876-0.015,2.927-0.154c0.238-0.032,0.267-0.128,0.462-0.154c0.088-0.013,0.825,0.122,0.924,0
		c0.009-0.01-0.009-0.153,0-0.154c0.284-0.041,0.559,0.091,0.924,0c0.091-0.024,0.156-0.155,0.154-0.154
		c0.202-0.028,0.415,0.026,0.616,0c0.38-0.051,0.902-0.196,1.54-0.308c0.196-0.035,0.426,0.051,0.616,0
		c0.04-0.01,0.014-0.146,0.154-0.154c0.819-0.044,2.336,0.125,3.39,0c0.045-0.006,0.281,0.03,0.308,0
		c0.007-0.009-0.007-0.154,0-0.155c2.348-0.111,4.885-0.118,7.393,0c-0.024,0,0.06,0.149,0.154,0.155
		c0.891,0.046,2.268-0.074,3.389,0c1.286,0.085,2.518,0.409,3.85,0.616c0.354,0.056,0.731,0.093,1.078,0.154
		c0.195,0.035,0.426-0.051,0.616,0c0.041,0.01,0.014,0.146,0.154,0.154c0.165,0.008,0.833-0.034,1.232,0
		c0.518,0.044,0.829,0.103,1.542,0.154c0.095,0.007,0.213-0.023,0.308,0c0.09,0.023,0.156,0.155,0.154,0.154
		c0.088,0.012,0.821-0.124,0.923,0c0.01,0.012-0.011,0.152,0,0.154c0.311,0.067,0.584,0.063,0.924,0.154
		c0.133,0.036,0.27,0.1,0.462,0.154c0.053,0.015,0.277-0.037,0.309,0c0.009,0.012-0.014,0.15,0,0.154
		c0.34,0.087,0.706,0.08,1.078,0.154c0.147,0.029,0.24,0.13,0.462,0.154c0.394,0.042,0.491,0.024,0.924,0.154
		c0.127,0.037,0.161,0.116,0.308,0.154c0.783,0.196,1.542,0.326,2.31,0.617c0.054,0.02,0.274-0.043,0.308,0
		c0.011,0.013-0.013,0.149,0,0.154c0.247,0.077,0.661,0.065,0.924,0.154c0.118,0.039,0.304,0.084,0.462,0.154
		c0.071,0.029-0.011,0.145,0.156,0.154c0.042,0.002,0.115-0.016,0.154,0c0.108,0.043,0.104,0.132,0.154,0.154
		c0.195,0.084,0.303,0.05,0.462,0.154c0.146,0.098,0.242,0.098,0.462,0.154c0.156,0.039,0.074,0.118,0.154,0.154
		c0.054,0.025,0.272-0.045,0.309,0c0.013,0.016-0.019,0.145,0,0.154c0.085,0.037,0.219-0.037,0.308,0
		c0.032,0.014,0.057,0.118,0.154,0.154c0.054,0.02,0.273-0.042,0.308,0c0.17,0.207,0.448,0.305,0.77,0.462
		c0.584,0.285,1.164,0.57,1.694,0.923c0.166,0.11,0.292,0.195,0.462,0.308c0.075,0.05,0.242,0.088,0.309,0.154
		c0.022,0.023-0.025,0.136,0,0.154c0.056,0.039,0.268-0.05,0.308,0c0.018,0.022-0.022,0.138,0,0.154
		c0.269,0.179,0.516,0.294,0.77,0.462c0.075,0.049,0.245,0.089,0.308,0.154c0.023,0.023-0.025,0.137,0,0.154
		c0.057,0.039,0.267-0.05,0.309,0c0.098,0.118,0.344,0.401,0.616,0.616c0.476,0.378,0.989,0.788,1.386,1.386
		c0.059,0.086,0.145-0.024,0.154,0.154c0.004,0.083,0.244,0.404,0.308,0.462c0.064,0.057,0.261,0.09,0.308,0.154
		c0.05,0.063-0.031,0.234,0,0.309c0-0.001,0.126,0.104,0.154,0.154c0.045,0.081,0.145-0.02,0.156,0.154
		c0.007,0.131,0.234,0.34,0.309,0.462c0.102,0.168,0.195,0.293,0.308,0.462c0.021,0.03-0.027,0.128,0,0.154
		c0.018,0.019,0.141-0.023,0.154,0c0.029,0.056-0.048,0.269,0,0.308c0.018,0.017,0.14-0.021,0.154,0
		c0.079,0.144,0.07,0.274,0.154,0.462c0.029,0.07,0.145-0.011,0.153,0.154c0.009,0.193,0.197,0.506,0.309,0.771
		c0.108,0.26,0.229,0.515,0.308,0.77c0.039,0.126,0.12,0.156,0.154,0.308c0.031,0.146-0.036,0.316,0,0.462
		c0,0,0.131,0.065,0.153,0.154c0.06,0.24-0.038,0.524,0,0.771c0,0.009,0.147,0.037,0.154,0.154c0.022,0.437,0.034,0.652,0.154,1.078
		c0.013,0.052-0.039,0.276,0,0.308c0.016,0.014,0.146-0.017,0.153,0c0.021,0.055-0.043,0.274,0,0.308
		c0.018,0.015,0.145-0.019,0.154,0c0.025,0.057-0.045,0.272,0,0.308c0.022,0.018,0.138-0.022,0.154,0
		c0.102,0.155,0.037,0.335,0.154,0.462c0.078,0.083,0.333,0.301,0.462,0.308c0.097,0.005,0.292,0.118,0.462,0.154
		c0.041,0.009,0.356,0.261,0.462,0.154c0.011-0.012-0.014-0.151,0-0.154c0.098-0.022,0.21,0.025,0.308,0
		c0.159-0.039,0.073-0.116,0.154-0.154c0.057-0.026,0.272,0.045,0.308,0c0.023-0.027-0.027-0.129,0-0.154
		c0.027-0.025,0.129,0.027,0.154,0c0.025-0.025-0.025-0.129,0-0.154c0.027-0.025,0.129,0.027,0.154,0
		c0.025-0.025-0.025-0.128,0-0.154c0.025-0.025,0.128,0.026,0.153,0c0.025-0.025-0.025-0.128,0-0.154
		c0.036-0.036,0.292-0.117,0.309-0.154c0.034-0.076-0.048-0.241,0-0.308c0.018-0.025,0.131,0.023,0.153,0
		c0.086-0.086,0.083-0.199,0.154-0.308c0.027-0.042,0.154-0.154,0.154-0.154c0.034-0.079-0.048-0.238,0-0.308
		c0.016-0.025,0.134,0.021,0.153,0c0.086-0.086,0.091-0.195,0.154-0.308c0.532-0.96,0.852-1.803,1.386-2.772
		c0.146-0.265,0.322-0.525,0.463-0.77c0.176-0.306,0.253-0.589,0.461-0.925c0.055-0.085,0.146,0.023,0.154-0.154
		c0.007-0.125,0.234-0.35,0.309-0.462c0.109-0.167,0.199-0.289,0.308-0.462c0.048-0.073,0.131-0.114,0.154-0.154
		c0.121-0.205,0.301-0.488,0.464-0.77c0.03-0.058,0.146-0.144,0.153-0.155c0.033-0.079-0.047-0.233,0-0.308
		c0.037-0.059,0.283-0.102,0.309-0.154c0.086-0.191,0.05-0.306,0.154-0.462c0.109-0.166,0.195-0.289,0.308-0.462
		c0.045-0.073,0.129-0.114,0.154-0.154c0.03-0.054,0.147-0.145,0.153-0.154c0.033-0.079-0.049-0.234,0-0.308
		c0.053-0.083,0.146,0.024,0.153-0.154c0.007-0.125,0.233-0.35,0.308-0.462c0.119-0.177,0.414-0.639,0.617-0.924
		c0.062-0.086,0.146,0.025,0.152-0.154c0.008-0.125,0.234-0.351,0.309-0.462c0.092-0.138,0.271-0.357,0.463-0.616
		c0.057-0.077,0.084-0.239,0.152-0.308c0.023-0.023,0.135,0.025,0.154,0c0.041-0.054-0.051-0.267,0-0.308
		c0.027-0.024,0.13,0.026,0.154,0c0.024-0.027-0.027-0.129,0-0.154c0.033-0.034,0.295-0.123,0.309-0.154
		c0.031-0.073-0.048-0.249,0-0.309c0.021-0.027,0.129,0.023,0.154,0c0.023-0.026-0.025-0.128,0-0.154
		c0.023-0.026,0.128,0.025,0.152,0c0.213-0.213,0.357-0.588,0.616-0.924c0.046-0.06,0.099-0.07,0.154-0.154
		c0.11-0.168,0.196-0.29,0.308-0.463c0.021-0.031-0.023-0.128,0-0.154c0.077-0.077,0.231-0.077,0.309-0.154
		c0.025-0.026-0.025-0.128,0-0.154c0.021-0.022,0.137,0.026,0.154,0c0.041-0.054-0.051-0.266,0-0.308
		c0.028-0.024,0.129,0.025,0.152,0c0.025-0.026-0.023-0.128,0-0.154c0.034-0.034,0.295-0.121,0.309-0.154
		c0.031-0.072-0.047-0.248,0-0.308c0.021-0.026,0.133,0.024,0.153,0c0.024-0.026-0.024-0.128,0-0.154
		c0.024-0.026,0.129,0.026,0.154,0c0.134-0.132,0.188-0.313,0.31-0.462c0.215-0.266,0.396-0.508,0.614-0.771
		c0.076-0.086,0.146,0.027,0.153-0.154c0.017-0.285,0.599-0.433,0.615-0.77c0.016-0.238,0.455-0.451,0.617-0.616
		c0.131-0.131,0.203-0.302,0.309-0.462c0.145-0.215,0.5-0.604,0.77-0.923c0.174-0.202,0.262-0.413,0.465-0.617
		c0.022-0.023,0.131,0.026,0.154,0c0.042-0.053-0.053-0.265,0-0.308c0.025-0.023,0.126,0.026,0.152,0
		c0.025-0.027-0.026-0.128,0-0.154c0.025-0.024,0.13,0.026,0.154,0c0.025-0.027-0.026-0.127,0-0.154
		c0.025-0.026,0.127,0.025,0.153,0c0.024-0.025-0.026-0.129,0-0.154c0.022-0.024,0.132,0.026,0.154,0
		c0.188-0.236,0.261-0.553,0.462-0.77c0.123-0.134,0.328-0.184,0.463-0.308c0.023-0.025-0.025-0.129,0-0.154
		c0.023-0.026,0.126,0.025,0.154,0c0.023-0.026-0.028-0.129,0-0.154c0.023-0.026,0.125,0.025,0.152,0
		c0.23-0.233,0.393-0.529,0.615-0.77c0.109-0.118,0.374-0.183,0.463-0.308c0.104-0.15,0.043-0.333,0.154-0.462
		c0.021-0.027,0.128,0.023,0.152,0c0.024-0.027-0.024-0.129,0-0.154c0.024-0.027,0.129,0.025,0.154,0
		c0.024-0.027-0.025-0.129,0-0.154c0.024-0.027,0.129,0.025,0.153,0c0.024-0.027-0.024-0.129,0-0.155
		c0.024-0.026,0.129,0.026,0.153,0c0.025-0.026-0.024-0.127,0-0.154c0.224-0.234,0.541-0.386,0.771-0.616
		c0.231-0.231,0.386-0.539,0.616-0.77c0.23-0.232,0.537-0.386,0.77-0.616c0.025-0.026-0.023-0.128,0-0.154
		c0.025-0.026,0.131,0.026,0.154,0c0.025-0.026-0.023-0.128,0-0.154c0.025-0.026,0.131,0.026,0.154,0s-0.023-0.128,0-0.154
		c0.023-0.026,0.129,0.026,0.152,0c0.025-0.026-0.023-0.128,0-0.155c0.025-0.025,0.131,0.027,0.154,0
		c0.211-0.211,0.405-0.559,0.616-0.771c0.237-0.236,0.552-0.413,0.771-0.616c0.041-0.036,0.115-0.29,0.153-0.308
		c0.077-0.034,0.242,0.049,0.31,0c0.025-0.018-0.023-0.131,0-0.154c0.08-0.082,0.222-0.076,0.308-0.154
		c0.026-0.023-0.024-0.129,0-0.154c0.026-0.025,0.129,0.026,0.153,0c0.027-0.025-0.024-0.128,0-0.154
		c0.132-0.132,0.322-0.184,0.462-0.308c0.472-0.415,0.911-0.824,1.389-1.232c0.259-0.221,0.511-0.396,0.771-0.616
		c0.201-0.171,0.412-0.258,0.615-0.462c0.022-0.025-0.027-0.133,0-0.154c0.053-0.044,0.266,0.052,0.31,0
		c0.021-0.03-0.027-0.129,0-0.154c0.024-0.024,0.126,0.025,0.153,0c0.024-0.024-0.027-0.13,0-0.154c0.026-0.025,0.127,0.025,0.153,0
		c0.024-0.026-0.026-0.129,0-0.154c0.024-0.026,0.127,0.025,0.154,0c0.129-0.13,0.138-0.202,0.308-0.308
		c0.03-0.021,0.129,0.025,0.154,0c0.076-0.077,0.076-0.231,0.154-0.308c0.023-0.026,0.125,0.024,0.152,0
		c0.039-0.039,0.272-0.321,0.463-0.462c0.076-0.059,0.237-0.086,0.309-0.154c0.076-0.077,0.076-0.23,0.152-0.308
		c0.025-0.027,0.129,0.025,0.154,0c0.021-0.023-0.025-0.138,0-0.154c0.153-0.104,0.326-0.048,0.463-0.154
		c0.127-0.102,0.178-0.374,0.307-0.463c0.15-0.103,0.33-0.049,0.463-0.154c0.127-0.1,0.18-0.372,0.308-0.461
		c0.15-0.104,0.329-0.05,0.464-0.154c0.125-0.1,0.178-0.373,0.309-0.462c0.148-0.103,0.328-0.051,0.462-0.154
		c0.026-0.02-0.022-0.13,0-0.154c0.085-0.084,0.21-0.078,0.308-0.154c0.076-0.06,0.237-0.083,0.309-0.154
		c0.132-0.13,0.141-0.2,0.308-0.308c0.032-0.02,0.129,0.026,0.153,0c0.078-0.077,0.078-0.231,0.154-0.31
		c0.026-0.024,0.129,0.027,0.153,0c0.022-0.022-0.024-0.134,0-0.154c0.058-0.038,0.269,0.052,0.31,0
		c0.024-0.027-0.025-0.128,0-0.154c0.025-0.025,0.129,0.027,0.152,0c0.034-0.033,0.123-0.293,0.154-0.308
		c0.076-0.031,0.244,0.049,0.308,0c0.132-0.095,0.183-0.372,0.31-0.462c0.148-0.103,0.328-0.052,0.462-0.154
		c0.057-0.041,0.073-0.1,0.155-0.154c0.144-0.095,0.34-0.186,0.463-0.308c0.021-0.022-0.027-0.136,0-0.154
		c0.055-0.039,0.265,0.051,0.308,0c0.022-0.028-0.026-0.129,0-0.154c0.024-0.024,0.127,0.026,0.153,0
		c0.021-0.02-0.023-0.139,0-0.154c0.162-0.1,0.316-0.059,0.463-0.154c0.037-0.023,0.088-0.11,0.154-0.154
		c0.069-0.046,0.112-0.129,0.153-0.154c0.046-0.029,0.151-0.152,0.154-0.154c0.075-0.034,0.235,0.047,0.308,0
		c0.057-0.038,0.104-0.285,0.154-0.308c0.074-0.034,0.238,0.048,0.309,0c0.023-0.018-0.022-0.131,0-0.154
		c0.086-0.086,0.198-0.083,0.308-0.154c0.223-0.147,0.546-0.311,0.771-0.462c0.057-0.039,0.104-0.286,0.153-0.309
		c0.075-0.034,0.242,0.048,0.308,0c0.025-0.018-0.021-0.131,0-0.154c0.127-0.128,0.375-0.154,0.616-0.308
		c0.072-0.046,0.113-0.131,0.154-0.154c0.055-0.031,0.146-0.15,0.153-0.154c0.08-0.034,0.237,0.046,0.309,0
		c0.134-0.088,0.182-0.374,0.309-0.462c0.067-0.047,0.23,0.033,0.309,0c-0.016,0.007,0.125-0.136,0.154-0.154
		c0.035-0.023,0.09-0.111,0.152-0.154c0.031-0.021,0.129,0.025,0.154,0c0.018-0.019-0.021-0.143,0-0.154
		c0.177-0.095,0.308-0.063,0.462-0.154c0.083-0.05-0.022-0.146,0.153-0.154c0.072-0.004,0.225-0.116,0.309-0.154
		c0.091-0.043,0.12-0.14,0.154-0.154c0.084-0.036,0.229,0.043,0.308,0c0.082-0.045-0.021-0.145,0.154-0.154
		c0.124-0.006,0.351-0.234,0.462-0.308c0.031-0.02,0.129,0.025,0.152,0c0.021-0.02-0.021-0.143,0-0.154
		c0.197-0.111,0.425-0.032,0.617-0.154c0.024-0.016-0.021-0.134,0-0.154c0.086-0.086,0.194-0.092,0.308-0.154
		c0.198-0.111,0.374-0.147,0.616-0.31c0.031-0.02,0.129,0.026,0.153,0c0.021-0.019-0.022-0.14,0-0.154
		c0.3-0.171,0.625-0.296,0.927-0.462c0.176-0.099,0.275-0.208,0.463-0.308c0.131-0.071,0.295-0.066,0.461-0.154
		c0.08-0.042-0.021-0.145,0.154-0.154c0.069-0.003,0.223-0.114,0.309-0.154c0.199-0.092,0.376-0.148,0.615-0.308
		c0.028-0.02,0.127,0.026,0.153,0c0.019-0.019-0.022-0.141,0-0.154c0.175-0.094,0.306-0.071,0.462-0.154
		c0.079-0.042-0.021-0.145,0.154-0.154c0.07-0.003,0.225-0.116,0.309-0.154c0.198-0.093,0.375-0.148,0.614-0.309
		c0.032-0.021,0.13,0.027,0.154,0c0.019-0.018-0.022-0.141,0-0.154c0.08-0.042,0.226,0.037,0.31,0
		c0.012-0.004,0.088-0.121,0.153-0.154c0.308-0.152,0.617-0.306,0.924-0.462c0.199-0.102,0.373-0.146,0.616-0.308
		c0.049-0.032,0.141-0.147,0.152-0.154c0.213-0.107,0.399-0.043,0.617-0.154c0.004-0.002,0.112-0.126,0.152-0.154
		c0.051-0.032,0.145-0.147,0.154-0.154c0.213-0.105,0.398-0.042,0.615-0.154c0.006-0.002,0.113-0.126,0.153-0.154
		c0.134-0.088,0.589-0.378,0.925-0.462c0.144-0.035,0.52-0.056,0.616-0.154c0.021-0.018-0.021-0.142,0-0.154
		c0.081-0.043,0.224,0.036,0.308,0c0.022-0.009,0.076-0.119,0.156-0.154c0.117-0.052,0.158-0.127,0.31-0.154
		c0.207-0.039,0.312-0.055,0.462-0.154c0.029-0.022,0.162-0.158,0.152-0.154c0.36-0.149,0.752-0.158,1.078-0.308
		c0.072-0.034-0.014-0.145,0.153-0.154c0.07-0.004,0.224-0.115,0.31-0.154c0.199-0.093,0.375-0.149,0.615-0.308
		c0.029-0.02,0.127,0.025,0.153,0c0.019-0.018-0.022-0.143,0-0.154c0.079-0.043,0.226,0.036,0.308,0
		c0.025-0.011,0.068-0.118,0.154-0.154c0.314-0.131,0.762-0.182,1.079-0.308c0.065-0.027-0.008-0.145,0.153-0.154
		c0.041-0.002,0.115,0.015,0.154,0c0.217-0.087,0.336-0.2,0.614-0.308c0.236-0.092,0.37-0.067,0.616-0.154
		c0.036-0.014,0.039-0.125,0.154-0.154c0.315-0.079,0.56-0.217,0.924-0.308c0.093-0.023,0.219,0.034,0.308,0
		c0.063-0.025-0.004-0.146,0.154-0.154c0.139-0.008,0.512-0.207,0.771-0.308c0.285-0.113,0.644-0.21,0.924-0.308
		c0.223-0.079,0.494-0.24,0.771-0.308c0.317-0.08,0.56-0.217,0.926-0.308c0.093-0.025,0.216,0.03,0.31,0
		c0.054-0.019,0-0.147,0.152-0.154c0.041-0.002,0.115,0.014,0.154,0c0.216-0.086,0.333-0.213,0.616-0.309
		c0.134-0.045,0.329,0.055,0.462,0c0.038-0.018,0.048-0.117,0.152-0.154c0.498-0.173,1.313-0.343,2.004-0.617
		c0.045-0.018,0.029-0.123,0.152-0.154c0.096-0.023,0.219,0.033,0.309,0c0.057-0.02,0-0.146,0.154-0.154
		c0.041-0.002,0.114,0.015,0.153,0c0.154-0.061,0.246-0.101,0.462-0.154c0.131-0.033,0.105-0.139,0.154-0.154
		c0.136-0.043,0.333,0.056,0.462,0c0.052-0.021,0.026-0.121,0.153-0.154c0.098-0.026,0.213,0.023,0.308,0
		c0.494-0.124,1.466-0.563,2.157-0.77c0.494-0.148,1.109-0.261,1.695-0.463c0.088-0.031,0.22,0.038,0.309,0
		c0.049-0.021,0.029-0.121,0.152-0.154c0.135-0.037,0.334,0.055,0.463,0c0.05-0.022,0.027-0.121,0.154-0.154
		c0.094-0.025,0.209,0.025,0.308,0c0.118-0.03,0.12-0.145,0.153-0.154c0.328-0.086,0.738-0.07,1.078-0.154
		c0.034-0.008,0.016-0.146,0.154-0.154c0.382-0.02,0.514-0.07,0.924-0.154c0.314-0.063,0.743-0.074,1.077-0.154
		c0.032-0.007,0.019-0.147,0.154-0.154c0.599-0.031,1.214-0.285,1.848-0.461c0.544-0.149,1.058-0.324,1.694-0.462
		c0.098-0.021,0.213,0.024,0.308,0c0.106-0.026,0.142-0.151,0.154-0.154c0.249-0.049,0.522,0.045,0.771,0
		c0.137-0.025,0.258-0.118,0.465-0.154c0.33-0.059,0.727-0.074,1.076-0.154c0.029-0.007,0.021-0.147,0.154-0.154
		c0.041-0.002,0.116,0.016,0.154,0c0.205-0.082,0.297-0.056,0.77-0.154c0.127-0.026,0.156-0.125,0.309-0.154
		c0.194-0.036,0.422,0.049,0.617,0c0.094-0.023,0.147-0.154,0.152-0.154c0.249-0.041,0.52,0.036,0.771,0
		c0.336-0.05,0.504-0.079,1.076-0.154c0.242-0.031,0.267-0.12,0.463-0.154c0.4-0.07,0.836-0.067,1.231-0.154
		c0.127-0.028,0.158-0.126,0.31-0.154c0.281-0.052,0.399-0.08,0.77-0.154c0.428-0.085,0.806-0.088,1.23-0.154
		c0.139-0.021,0.252-0.127,0.463-0.154c0.201-0.027,0.416,0.03,0.615,0c0.166-0.025,0.336-0.134,0.618-0.154
		c0.202-0.015,0.415,0.025,0.615,0c-0.037,0.004,0.094-0.14,0.153-0.154c0.174-0.043,0.563,0.047,0.926,0
		c0.002,0,0.04-0.148,0.154-0.154c0.269-0.015,0.646,0.046,1.076,0c0.127-0.014,0.26-0.127,0.463-0.154
		c0.201-0.027,0.416,0.034,0.615,0c0.221-0.036,0.285-0.149,0.463-0.154C300.285,107.205,300.48,107.267,301.107,107.375z
		 M186.514,216.73c0.009-0.017,0.139,0.015,0.154,0c0.043-0.031-0.022-0.252,0-0.307c0.222-0.554,0.145-1.507,0.154-2.31
		c0.013-1.321-0.075-2.753,0-4.007c0.018-0.303,0.113-0.61,0.153-0.924c0.032-0.246-0.059-0.531,0-0.771
		c0.014-0.054,0.159-0.203,0.154-0.154c0.062-0.694-0.043-1.416,0-2.155c0-0.006,0.145,0.008,0.154,0
		c0.217-0.178-0.009-1.826,0-2.002c0.018-0.307,0.128-0.619,0.153-0.926c0.066-0.757,0.068-1.156,0.154-1.539
		c0.022-0.099-0.022-0.212,0-0.309c0.022-0.084,0.156-0.157,0.154-0.155c0.095-0.414,0.074-0.838,0.154-1.231
		c0.039-0.186,0.102-0.239,0.154-0.461c0.025-0.097-0.018-0.211,0-0.308c0.029-0.149,0.131-0.184,0.154-0.309
		c0.074-0.396,0.083-0.833,0.153-1.233c0.107-0.592,0.22-1.166,0.309-1.54c0.024-0.097-0.019-0.209,0-0.309
		c0.029-0.146,0.131-0.181,0.153-0.309c0.072-0.398,0.082-0.828,0.154-1.231c0.09-0.5,0.131-0.457,0.153-0.924
		c0.007-0.129,0.15-0.129,0.154-0.154c0.075-0.35,0.08-0.709,0.154-1.077c0.083-0.41,0.135-0.542,0.153-0.924
		c0.01-0.136,0.147-0.123,0.154-0.154c0.091-0.377,0.052-0.845,0.154-1.232c0.009-0.035,0.125-0.034,0.154-0.154
		c0.025-0.095-0.029-0.215,0-0.308c0.036-0.113,0.15-0.215,0.154-0.308c0.009-0.149,0.14-0.105,0.156-0.154
		c0.132-0.431,0.071-0.444,0.154-0.771c0.022-0.094,0.149-0.144,0.154-0.154c0.049-0.191-0.036-0.42,0-0.616
		c0-0.011,0.142,0.011,0.153,0c0.271-0.272-0.095-1.711-0.153-1.849c0,0.004-0.132-0.116-0.154-0.154
		c-0.072-0.106-0.068-0.221-0.154-0.308c-0.025-0.024-0.133,0.027-0.156,0c-0.064-0.077-0.064-0.262-0.154-0.309
		c-0.29-0.146-1.112-0.123-1.54,0c-0.014,0.005,0.011,0.141,0,0.154c-0.036,0.045-0.252-0.026-0.308,0
		c-0.018,0.009,0.015,0.136,0,0.154c-0.039,0.047-0.252-0.032-0.309,0c-0.02,0.013,0.018,0.133,0,0.154
		c-0.041,0.052-0.253-0.041-0.308,0c-0.111,0.085-0.111,0.299-0.308,0.308c-0.17,0.009-0.328,0.225-0.462,0.309
		c-0.175,0.108-0.184,0.157-0.309,0.308c-0.038,0.046-0.251-0.032-0.308,0c-0.021,0.012,0.016,0.133,0,0.154
		c-0.036,0.044-0.251-0.026-0.308,0c-0.019,0.009,0.015,0.136,0,0.154c-0.037,0.045-0.252-0.028-0.308,0
		c-0.021,0.01,0.016,0.135,0,0.154c-0.037,0.044-0.251-0.026-0.309,0c-0.018,0.009,0.017,0.136,0,0.154
		c-0.033,0.042-0.253-0.021-0.308,0c-0.509,0.197-1.078,0.376-1.54,0.462c-0.152,0.028-0.181,0.127-0.308,0.154
		c-0.147,0.032-0.314-0.032-0.462,0c-0.148,0.032-0.184,0.128-0.308,0.154c-0.924,0.191-1.989,0.391-3.083,0.462
		c-1.275,0.084-2.33-0.021-3.233-0.154c-0.1-0.015-0.209,0.019-0.309,0c-0.149-0.029-0.181-0.128-0.308-0.154
		c-0.142-0.029-0.317,0.008-0.462,0c-0.123-0.006-0.138-0.15-0.154-0.154c-0.468-0.083-0.926-0.058-1.385-0.154
		c-0.141-0.028-0.096-0.129-0.154-0.154c-0.126-0.054-0.328,0.035-0.462,0c-0.143-0.036-0.186-0.128-0.308-0.154
		c-0.143-0.03-0.327,0.047-0.462,0c-0.017-0.005,0.011-0.139,0-0.154c-0.036-0.044-0.254,0.026-0.309,0
		c-0.08-0.036,0.002-0.114-0.154-0.154c-0.09-0.023-0.224,0.037-0.309,0c-0.018-0.008,0.014-0.137,0-0.154
		c-0.038-0.045-0.253,0.026-0.308,0c-0.02-0.009,0.014-0.136,0-0.154c-0.038-0.046-0.253,0.028-0.308,0
		c-0.021-0.01,0.014-0.136,0-0.154c-0.039-0.045-0.253,0.026-0.308,0c-0.021-0.009,0.013-0.136,0-0.154
		c-0.042-0.048-0.254,0.03-0.309,0c-0.022-0.013,0.018-0.135,0-0.154c-0.027-0.026-0.124,0.021-0.153,0
		c-0.062-0.041-0.125-0.135-0.154-0.154c-0.037-0.021-0.167-0.16-0.154-0.154c-0.08-0.034-0.24,0.046-0.311,0
		c-0.022-0.018,0.023-0.133,0-0.155c-0.067-0.069-0.229-0.094-0.308-0.154c-0.098-0.075-0.222-0.068-0.308-0.154
		c-0.023-0.022,0.027-0.135,0-0.154c-0.213-0.155-0.55-0.299-0.771-0.462c-0.061-0.045-0.065-0.095-0.154-0.154
		c-0.292-0.195-0.523-0.523-0.616-0.616c-0.025-0.024-0.127,0.026-0.154,0c-0.024-0.024,0.027-0.127,0-0.154
		c-0.024-0.025-0.127,0.026-0.154,0c-0.025-0.025,0.027-0.128,0-0.154c-0.025-0.025-0.127,0.026-0.154,0
		c-0.025-0.025,0.027-0.128,0-0.154c-0.025-0.025-0.127,0.026-0.154,0c-0.025-0.025,0.027-0.128,0-0.154
		c-0.025-0.025-0.127,0.026-0.154,0c-0.025-0.025,0.027-0.128,0-0.154c-0.025-0.025-0.127,0.026-0.154,0
		c-0.025-0.025,0.027-0.128,0-0.154c-0.025-0.025-0.127,0.026-0.154,0c-0.025-0.025,0.027-0.128,0-0.154
		c-0.025-0.025-0.129,0.026-0.154,0c-0.025-0.026,0.027-0.128,0-0.154c-0.025-0.025-0.128,0.026-0.154,0
		c-0.025-0.025,0.025-0.128,0-0.154c-0.025-0.025-0.129,0.026-0.154,0c-0.025-0.025,0.025-0.128,0-0.154
		c-0.025-0.024-0.129,0.026-0.154,0c-0.024-0.024,0.025-0.127,0-0.154c-0.165-0.165-0.602-0.378-0.616-0.616
		c-0.009-0.18-0.083-0.068-0.154-0.154c-0.19-0.236-0.276-0.519-0.462-0.77c-0.018-0.026-0.132,0.022-0.154,0
		c-0.07-0.07-0.096-0.231-0.154-0.308c-0.075-0.1-0.068-0.223-0.154-0.308c-0.022-0.023-0.136,0.025-0.154,0
		c-0.231-0.31-0.489-0.733-0.616-0.924c-0.075-0.112-0.301-0.337-0.308-0.462c-0.009-0.177-0.104-0.071-0.154-0.154
		c-0.093-0.156-0.075-0.334-0.154-0.462c-0.025-0.041-0.106-0.083-0.154-0.155c-0.104-0.156-0.07-0.266-0.154-0.462
		c-0.016-0.035-0.114-0.063-0.154-0.154c-0.039-0.085-0.152-0.236-0.154-0.308c-0.009-0.173-0.11-0.073-0.154-0.154
		c-0.093-0.168-0.07-0.326-0.154-0.462c-0.025-0.041-0.109-0.083-0.154-0.154c-0.104-0.157-0.07-0.268-0.154-0.462
		c-0.016-0.035-0.113-0.064-0.154-0.154c-0.041-0.085-0.152-0.236-0.154-0.309c-0.009-0.17-0.118-0.077-0.154-0.154
		c-0.079-0.16-0.102-0.338-0.154-0.462c-0.072-0.167-0.07-0.267-0.154-0.462c-0.036-0.082-0.145-0.13-0.154-0.154
		c-0.036-0.083,0.043-0.228,0-0.308c-0.014-0.021-0.136,0.02-0.154,0c-0.027-0.024,0.02-0.122,0-0.154
		c-0.268-0.401-0.457-1.191-0.617-1.54c-0.04-0.083-0.15-0.235-0.154-0.308c-0.008-0.164-0.126-0.086-0.154-0.154
		c-0.113-0.271-0.194-0.623-0.308-0.924c-0.125-0.331-0.202-0.606-0.308-0.923c-0.445-1.348-0.859-2.6-1.233-3.851
		c-0.106-0.356-0.086-0.504-0.154-0.77c-0.093-0.372-0.246-0.594-0.308-0.925c-0.027-0.152-0.114-0.18-0.154-0.308
		c-0.029-0.093,0.025-0.212,0-0.308c-0.091-0.365-0.229-0.607-0.308-0.924c-0.07-0.281-0.186-0.521-0.308-0.77
		c-0.032-0.065-0.148-0.142-0.154-0.154c-0.037-0.084,0.043-0.228,0-0.308c-0.012-0.022-0.135,0.018-0.154,0
		c-0.025-0.025,0.021-0.124,0-0.154c-0.152-0.23-0.316-0.471-0.462-0.616c-0.023-0.025-0.131,0.026-0.154,0
		c-0.07-0.084-0.061-0.249-0.154-0.308c-0.072-0.046-0.228,0.034-0.308,0c-0.041-0.018-0.053-0.111-0.154-0.154
		c-0.403-0.173-1.191-0.319-1.694-0.308c-0.168,0.003-0.084,0.125-0.154,0.154c-0.208,0.088-0.546-0.042-0.77,0
		c-0.151,0.027-0.181,0.125-0.308,0.154c-0.098,0.021-0.21-0.018-0.308,0c-0.153,0.028-0.182,0.12-0.308,0.154
		c-0.096,0.025-0.211-0.018-0.308,0c-0.153,0.028-0.181,0.121-0.308,0.154c-0.098,0.025-0.211-0.018-0.308,0
		c-0.154,0.029-0.181,0.121-0.309,0.154c-0.096,0.025-0.209-0.018-0.308,0c-0.153,0.028-0.18,0.117-0.308,0.154
		c-0.259,0.075-0.368,0.077-0.616,0.154c-0.115,0.037-0.11,0.135-0.154,0.154c-0.13,0.057-0.329-0.052-0.462,0
		c-0.018,0.007,0.015,0.138,0,0.154c-0.026,0.025-0.124-0.021-0.154,0c-0.208,0.131-0.481,0.301-0.617,0.308
		c-0.168,0.009-0.08,0.12-0.154,0.154c-0.227,0.105-0.39,0.065-0.616,0.154c-0.097,0.038-0.225,0.149-0.308,0.154
		c-0.167,0.009-0.079,0.12-0.154,0.154c-0.224,0.106-0.398,0.049-0.616,0.154c-0.014,0.007-0.1,0.12-0.154,0.154
		c-0.206,0.133-0.48,0.301-0.616,0.308c-0.17,0.009-0.078,0.118-0.154,0.154c-0.217,0.106-0.415,0.037-0.616,0.154
		c-0.023,0.014,0.021,0.135,0,0.154c-0.026,0.027-0.127-0.025-0.154,0c-0.026,0.025,0.023,0.126,0,0.154
		c-0.041,0.051-0.252-0.039-0.308,0c-0.113,0.081-0.109,0.299-0.308,0.308c-0.179,0.01-0.068,0.096-0.154,0.154
		c-0.177,0.12-0.411,0.171-0.616,0.308c-0.024,0.016,0.018,0.131,0,0.154c-0.042,0.052-0.253-0.041-0.308,0
		c-0.074,0.057-0.074,0.251-0.154,0.308c-0.215,0.157-0.417,0.165-0.616,0.309c-0.113,0.08-0.111,0.298-0.308,0.308
		c-0.357,0.02-0.519,0.603-0.77,0.616c-0.179,0.009-0.07,0.099-0.154,0.154c-0.421,0.273-0.6,0.544-0.925,0.924
		c-0.122,0.144-0.175,0.331-0.308,0.462c-0.266,0.266-0.907,0.599-0.924,0.925c-0.01,0.179-0.087,0.065-0.154,0.154
		c-0.237,0.311-0.422,0.632-0.616,0.924c-0.379,0.57-0.749,1.218-1.079,1.848c-0.038,0.073-0.149,0.244-0.154,0.308
		c-0.009,0.17-0.117,0.078-0.154,0.154c-0.106,0.222-0.046,0.403-0.154,0.616c-0.009,0.021-0.118,0.098-0.154,0.154
		c-0.131,0.208-0.301,0.481-0.308,0.616c-0.008,0.158-0.13,0.093-0.154,0.154c-0.034,0.089,0.023,0.215,0,0.308
		c-0.058,0.233-0.136,0.281-0.154,0.616c-0.007,0.142-0.143,0.116-0.154,0.154c-0.05,0.192,0.044,0.422,0,0.616
		c0.002-0.011-0.128,0.091-0.154,0.154c-0.015,0.038,0.002,0.113,0,0.154c-0.007,0.14-0.144,0.117-0.154,0.155
		c-0.105,0.406-0.067,0.835-0.154,1.232c-0.002,0.012-0.143-0.012-0.154,0c-0.077,0.077,0.025,0.501,0,0.616
		c-0.047,0.229-0.123,0.289-0.154,0.616c-0.082,0.894,0.124,2.648,0.154,3.235c0.007,0.129,0.149,0.131,0.154,0.154
		c0.094,0.467,0.047,0.962,0.154,1.386c0-0.002,0.127,0.084,0.154,0.154c0.016,0.039-0.002,0.113,0,0.154
		c0.008,0.147,0.141,0.108,0.154,0.154c0.039,0.13-0.007,0.326,0,0.462c0.008,0.145,0.142,0.11,0.154,0.154
		c0.132,0.454,0.159,1.015,0.308,1.386c0.008,0.019,0.138-0.015,0.154,0c0.026,0.026-0.02,0.125,0,0.154
		c0.132,0.208,0.301,0.482,0.308,0.617c0.009,0.173,0.112,0.074,0.154,0.154c0.113,0.212,0.042,0.411,0.154,0.616
		c0.013,0.023,0.136-0.019,0.154,0c0.027,0.026-0.025,0.128,0,0.154c0.026,0.026,0.127-0.024,0.154,0c0.05,0.04-0.035,0.252,0,0.308
		c0.016,0.024,0.134-0.021,0.154,0c0.027,0.026-0.025,0.128,0,0.154c0.026,0.026,0.127-0.024,0.154,0
		c0.05,0.041-0.036,0.252,0,0.308c0.017,0.025,0.134-0.021,0.154,0c0.027,0.026-0.024,0.128,0,0.154
		c0.026,0.026,0.127-0.024,0.154,0c0.052,0.042-0.04,0.253,0,0.308c0.096,0.129,0.356,0.184,0.463,0.308
		c0.165,0.192,0.176,0.465,0.308,0.617c0.064,0.072,0.237,0.082,0.308,0.154c0.078,0.077,0.076,0.231,0.154,0.308
		c0.19,0.184,0.431,0.295,0.616,0.462c0.075,0.068,0.082,0.236,0.154,0.308c0.072,0.071,0.23,0.091,0.308,0.154
		c0.264,0.213,0.506,0.482,0.617,0.616c0.041,0.051,0.252-0.041,0.308,0c0.111,0.084,0.11,0.297,0.308,0.308
		c0.174,0.009,0.073,0.108,0.154,0.154c0.048,0.027,0.154,0.154,0.154,0.154c0.078,0.034,0.238-0.048,0.308,0
		c0.068,0.046,0.082,0.253,0.154,0.308c0.063,0.048,0.233-0.031,0.308,0c0.025,0.012,0.129,0.279,0.154,0.309
		c0.041,0.049,0.251-0.039,0.308,0c0.025,0.018-0.023,0.131,0,0.153c0.059,0.06,0.238,0.113,0.308,0.154
		c0.483,0.276,1.135,0.465,1.386,0.77c0.039,0.048,0.251-0.031,0.308,0c0.022,0.014-0.02,0.136,0,0.154
		c0.024,0.026,0.124-0.021,0.154,0c0.27,0.18,0.517,0.139,0.77,0.309c0.055,0.036,0.261,0.151,0.308,0.153
		c0.154,0.009,0.182,0.147,0.308,0.154c0.154,0.009,0.182,0.147,0.308,0.154c0.153,0.009,0.1,0.136,0.154,0.153
		c0.093,0.032,0.214-0.022,0.308,0c0.126,0.032,0.205,0.149,0.308,0.154c0.154,0.009,0.101,0.136,0.154,0.154
		c0.092,0.031,0.214-0.023,0.308,0c0.125,0.031,0.205,0.148,0.308,0.154c0.154,0.009,0.101,0.135,0.154,0.153
		c0.093,0.031,0.214-0.022,0.309,0c0.261,0.065,0.608,0.193,0.924,0.309c0.016,0.007-0.013,0.139,0,0.153
		c0.034,0.043,0.253-0.021,0.308,0c0.185,0.07,0.348,0.169,0.462,0.309c0.034,0.043,0.254-0.021,0.309,0
		c0.45,0.169,0.845,0.316,1.233,0.462c0.12,0.046,0.401,0.151,0.462,0.155c0.154,0.007,0.181,0.146,0.308,0.153
		c0.152,0.008,0.1,0.136,0.154,0.153c0.092,0.031,0.213-0.023,0.309,0c0.125,0.031,0.204,0.148,0.308,0.154
		c0.151,0.008,0.099,0.137,0.154,0.154c0.092,0.031,0.213-0.024,0.308,0c0.118,0.029,0.115,0.14,0.154,0.153
		c0.27,0.1,0.427,0.029,0.616,0.154c0.263,0.175,0.582,0.189,0.924,0.308c0.314,0.11,0.621,0.279,0.77,0.462
		c0.034,0.043,0.254-0.02,0.308,0c0.433,0.164,0.881,0.353,1.232,0.463c0.243,0.077,0.534,0.085,0.77,0.154
		c0.308,0.089,0.733,0.297,0.925,0.309c0.153,0.007,0.1,0.137,0.154,0.154c0.091,0.029,0.214-0.024,0.308,0
		c0.108,0.025,0.128,0.145,0.154,0.154c0.291,0.092,0.676,0.059,0.925,0.154c-0.021-0.009,0.126,0.135,0.154,0.153
		c0.151,0.101,0.251,0.101,0.462,0.153c0.274,0.068,0.419,0.217,0.616,0.308c0.084,0.039,0.236,0.15,0.308,0.154
		c0.165,0.009,0.084,0.124,0.154,0.153c0.17,0.075,0.333,0.104,0.462,0.154c0.317,0.127,0.632,0.273,0.77,0.308
		c0.09,0.023,0.222-0.033,0.308,0c0.018,0.01-0.016,0.139,0,0.154c0.025,0.025,0.123-0.02,0.154,0
		c0.256,0.162,0.58,0.232,0.771,0.308c0.09,0.036,0.125,0.144,0.154,0.155c0.254,0.107,0.433,0.031,0.616,0.152
		c0.299,0.201,0.458,0.17,0.77,0.31c0.67,0.299,1.252,0.615,1.848,0.924c0.387,0.2,1.044,0.429,1.232,0.616
		c0.022,0.021-0.023,0.141,0,0.154c0.195,0.123,0.421,0.044,0.616,0.154c0.025,0.012-0.018,0.133,0,0.152
		c0.118,0.117,0.462,0.084,0.618,0.155c0.052,0.021,0.09,0.271,0.154,0.309c0.075,0.044,0.227-0.036,0.308,0
		c0.018,0.007,0.086,0.115,0.154,0.153c0.184,0.1,0.288,0.201,0.462,0.309c0.036,0.022,0.163,0.156,0.153,0.153
		c0.082,0.034,0.234-0.047,0.309,0c0.022,0.015-0.021,0.134,0,0.153c0.025,0.024,0.127-0.026,0.154,0
		c0.025,0.024-0.024,0.125,0,0.154c0.039,0.047,0.251-0.035,0.309,0c0.038,0.023,0.083,0.106,0.153,0.153
		c0.111,0.074,0.338,0.302,0.462,0.31c0.177,0.008,0.068,0.1,0.154,0.152c0.072,0.045,0.227-0.033,0.308,0
		c0.007,0.002,0.1,0.122,0.154,0.153c0.039,0.024,0.081,0.108,0.154,0.155c0.172,0.107,0.294,0.195,0.462,0.307
		c0.085,0.057,0.095,0.107,0.154,0.154c0.27,0.209,0.63,0.32,0.77,0.463c0.068,0.064,0.064,0.27,0.154,0.307
		c0.075,0.033,0.245-0.046,0.308,0c0.025,0.021-0.022,0.133,0,0.155c0.025,0.024,0.129-0.025,0.154,0
		c0.077,0.075,0.077,0.231,0.154,0.307c0.025,0.026,0.123-0.021,0.154,0c0.169,0.109,0.179,0.181,0.309,0.31
		c0.069,0.07,0.231,0.097,0.308,0.154c0.258,0.191,0.478,0.369,0.616,0.461c0.262,0.174,0.527,0.527,0.615,0.617
		c0.028,0.025,0.129-0.025,0.154,0c0.027,0.025-0.025,0.127,0,0.153c0.027,0.026,0.127-0.026,0.154,0
		c0.027,0.022-0.024,0.129,0,0.153c0.027,0.026,0.129-0.024,0.154,0c0.027,0.024-0.022,0.127,0,0.154
		c0.043,0.053,0.256-0.047,0.308,0c0.027,0.022-0.025,0.127,0,0.153c0.027,0.026,0.129-0.026,0.154,0
		c0.027,0.026-0.025,0.129,0,0.153c0.027,0.026,0.131-0.024,0.154,0c0.126,0.136,0.178,0.332,0.308,0.461
		c0.027,0.027,0.129-0.023,0.154,0c0.027,0.027-0.025,0.13,0,0.154c0.027,0.026,0.128-0.024,0.153,0
		c0.028,0.026-0.025,0.133,0,0.154c0.134,0.124,0.345,0.173,0.462,0.307c0.05,0.059-0.029,0.241,0,0.31
		c-0.008-0.022,0.145,0.142,0.156,0.153c0.1,0.133,0.354,0.18,0.462,0.311c0.078,0.093,0.071,0.225,0.154,0.309
		c0.022,0.022,0.134-0.026,0.154,0c0.047,0.065-0.036,0.231,0,0.31c0.02,0.045,0.269,0.103,0.308,0.153
		c0.102,0.135,0.05,0.313,0.154,0.461c0.088,0.129,0.372,0.176,0.462,0.31c0.047,0.067-0.035,0.228,0,0.308
		c0.001,0.008,0.122,0.101,0.153,0.154c0.023,0.038,0.107,0.081,0.154,0.154c0.154,0.238,0.178,0.488,0.308,0.615
		c0.021,0.021,0.138-0.024,0.154,0c0.123,0.192,0.041,0.422,0.154,0.617c0.013,0.021,0.134-0.021,0.153,0
		c0.116,0.114,0.083,0.461,0.154,0.614c0.022,0.052,0.269,0.095,0.308,0.153c0.046,0.072-0.033,0.229,0,0.309
		c0.003,0.01,0.123,0.1,0.154,0.153c0.022,0.042,0.106,0.081,0.154,0.153c0.446,0.703,1.388,1.259,2.156,1.078
		c0.011-0.002-0.009-0.141,0-0.153c0.038-0.048,0.251,0.032,0.308,0c0.022-0.011-0.019-0.134,0-0.154
		c0.077-0.077,0.337,0.029,0.308-0.153C186.49,217.266,186.43,216.92,186.514,216.73z M246.43,178.227
		c-0.299,0.063-0.656,0.082-0.924,0.154c-0.014,0.002,0.01,0.141,0,0.154c-0.033,0.041-0.253-0.021-0.308,0
		c-0.185,0.068-0.245,0.086-0.462,0.154c-0.219,0.065-0.321,0.079-0.616,0.154c-0.312,0.077-0.558,0.221-0.925,0.308
		c-0.271,0.064-0.653,0.075-0.926,0.154c-0.015,0.003,0.012,0.141,0,0.154c-0.035,0.041-0.254-0.021-0.309,0
		c-0.453,0.171-0.891,0.337-1.232,0.462c-0.123,0.045-0.397,0.149-0.461,0.154c-0.164,0.009-0.086,0.126-0.154,0.154
		c-0.258,0.106-0.43,0.029-0.615,0.154c-0.27,0.18-0.514,0.138-0.77,0.308c-0.056,0.037-0.262,0.151-0.31,0.154
		c-0.175,0.009-0.071,0.108-0.153,0.154c-0.182,0.1-0.338,0.156-0.463,0.308c-0.035,0.045-0.251-0.027-0.308,0
		c-0.019,0.009,0.016,0.136,0,0.154c-0.038,0.047-0.251-0.032-0.31,0c-0.02,0.011,0.018,0.134,0,0.154
		c-0.039,0.05-0.252-0.039-0.308,0c-0.024,0.018,0.022,0.131,0,0.154c-0.062,0.061-0.237,0.111-0.308,0.154
		c-0.115,0.068-0.204,0.089-0.31,0.154c-0.12,0.075-0.329,0.301-0.462,0.308c-0.174,0.009-0.072,0.109-0.152,0.154
		c-0.051,0.027-0.154,0.154-0.154,0.154c-0.079,0.034-0.239-0.048-0.309,0c-0.115,0.079-0.107,0.297-0.308,0.308
		c-0.183,0.009-0.067,0.083-0.153,0.154c-0.434,0.354-0.897,0.641-1.232,0.924c-0.077,0.065-0.07,0.246-0.154,0.308
		c-0.141,0.104-0.342,0.054-0.462,0.154c-0.072,0.059-0.088,0.242-0.154,0.308c-0.071,0.073-0.229,0.092-0.308,0.154
		c-0.186,0.149-0.438,0.296-0.618,0.462c-0.181,0.17-0.285,0.439-0.462,0.617c-0.18,0.18-0.436,0.282-0.616,0.461
		c-0.344,0.346-0.571,0.725-0.924,1.078c-0.179,0.18-0.438,0.282-0.615,0.462c-0.182,0.181-0.284,0.431-0.462,0.617
		c-0.072,0.075-0.234,0.079-0.309,0.154c-0.074,0.073-0.084,0.229-0.153,0.308c-0.067,0.077-0.242,0.068-0.31,0.154
		c-0.047,0.064,0.031,0.233,0,0.308c-0.045,0.106-0.385,0.204-0.461,0.308c-0.047,0.063,0.03,0.233,0,0.308
		c-0.012,0.025-0.278,0.129-0.31,0.154c-0.047,0.039,0.032,0.251,0,0.308c-0.013,0.022-0.133-0.021-0.153,0
		c-0.093,0.092-0.129,0.481-0.154,0.616c-0.028,0.152-0.114,0.182-0.153,0.308c-0.079,0.256-0.085,0.367-0.153,0.616
		c-0.033,0.125-0.134,0.104-0.154,0.154c-0.053,0.126,0.029,0.328,0,0.462c-0.28,1.226-0.49,2.347-0.77,3.543
		c-0.086,0.372-0.225,0.831-0.309,1.231c-0.021,0.1,0.019,0.21,0,0.308c-0.026,0.148-0.131,0.184-0.153,0.309
		c-0.036,0.196,0.009,0.418,0,0.617c-0.007,0.123-0.151,0.137-0.153,0.154c-0.089,0.498-0.06,1.021-0.154,1.539
		c-0.084,0.459-0.201,0.92-0.309,1.387c-0.031,0.135-0.131,0.099-0.152,0.154c-0.056,0.129,0.035,0.326,0,0.463
		c-0.035,0.126-0.135,0.102-0.154,0.152c-0.055,0.125,0.023,0.33,0,0.463c-0.088,0.444-0.133,0.785-0.154,1.232
		c-0.007,0.115-0.152,0.145-0.152,0.153c-0.039,0.25,0.02,0.517,0,0.771c-0.037,0.441-0.138,0.865-0.154,1.232
		c-0.008,0.133-0.149,0.124-0.154,0.152c-0.033,0.146,0.031,0.315,0,0.463c-0.033,0.146-0.127,0.183-0.154,0.309
		c-0.021,0.098,0.02,0.209,0,0.307c-0.029,0.152-0.119,0.183-0.154,0.31c-0.025,0.096,0.02,0.211,0,0.309
		c-0.028,0.15-0.129,0.183-0.152,0.308c-0.111,0.537-0.096,1.009-0.154,1.541c-0.033,0.285-0.119,0.346-0.154,0.615
		c-0.092,0.707,0.104,1.678,0,2.158c-0.028,0.131-0.146,0.197-0.152,0.307c-0.066,1.017-0.075,2.072-0.154,3.082
		c-0.064,0.814-0.082,1.625-0.154,2.311c-0.025,0.253-0.141,0.484-0.152,0.77c-0.115,2.238,0,4.42,0,6.625
		c0,2.109-0.098,4.479,0,6.313c0.005,0.101,0.152,0.168,0.152,0.155c0.039,0.516-0.051,1.002,0,1.539c0,0.009,0.146-0.008,0.154,0
		c0.154,0.153-0.021,0.985,0,1.076c0.029,0.14,0.141,0.19,0.154,0.309c0.122,1.041,0.102,2.054,0.309,3.081
		c0.026,0.14,0.127,0.095,0.153,0.153c0.052,0.125-0.03,0.326,0,0.461c0.062,0.271,0.084,0.525,0.153,0.77
		c0.003,0.014,0.141-0.009,0.154,0c0.041,0.036-0.022,0.256,0,0.309c0.133,0.338,0.217,0.738,0.309,1.078
		c0.124,0.477,0.181,0.915,0.308,1.389c0.259,0.972,0.625,1.813,0.925,2.617c0.086,0.231,0.065,0.543,0.153,0.771
		c0.007,0.016,0.138-0.014,0.154,0c0.045,0.036-0.027,0.252,0,0.309c0.009,0.019,0.135-0.017,0.153,0
		c0.043,0.035-0.022,0.254,0,0.309c0.039,0.093,0.149,0.229,0.153,0.309c0.007,0.153,0.147,0.182,0.154,0.307
		c0.006,0.155,0.146,0.182,0.153,0.31c0.01,0.153,0.146,0.181,0.153,0.31c0.009,0.152,0.147,0.183,0.153,0.307
		c0.01,0.154,0.146,0.185,0.154,0.309c0.01,0.153,0.146,0.184,0.154,0.309c0.008,0.175,0.107,0.072,0.152,0.153
		c0.043,0.079-0.038,0.226,0,0.31c0.025,0.054,0.271,0.09,0.309,0.152c0.017,0.029-0.002,0.121,0,0.153
		c0.01,0.155,0.147,0.185,0.153,0.31c0.011,0.18,0.101,0.07,0.154,0.152c0.11,0.178,0.198,0.454,0.308,0.617
		c0.018,0.023,0.133-0.02,0.154,0c0.052,0.042-0.04,0.254,0,0.309c0.059,0.074,0.25,0.074,0.309,0.153
		c0.034,0.047,0.151,0.269,0.154,0.308c0.018,0.358,0.604,0.52,0.616,0.772c0.018,0.321,0.54,0.541,0.614,0.614
		c0.076,0.072,0.086,0.229,0.154,0.31c0.266,0.304,0.459,0.608,0.77,0.925c0.078,0.076,0.234,0.076,0.309,0.152
		c0.078,0.077,0.078,0.23,0.154,0.309c0.076,0.077,0.23,0.077,0.308,0.153c0.079,0.078,0.071,0.233,0.154,0.31
		c0.058,0.049,0.239-0.031,0.308,0c0.045,0.018,0.111,0.27,0.154,0.309c0.199,0.164,0.439,0.452,0.618,0.462
		c0.17,0.009,0.329,0.226,0.462,0.308c0.175,0.108,0.184,0.156,0.309,0.309c0.039,0.047,0.252-0.032,0.309,0
		c0.021,0.011-0.018,0.133,0,0.154c0.037,0.043,0.251-0.029,0.309,0c0.021,0.012-0.016,0.133,0,0.153
		c0.036,0.045,0.251-0.026,0.309,0c0.018,0.009-0.017,0.136,0,0.154c0.035,0.043,0.25-0.026,0.309,0
		c0.018,0.007-0.014,0.136,0,0.153c0.033,0.041,0.253-0.021,0.309,0c0.184,0.069,0.346,0.166,0.461,0.309
		c0.033,0.043,0.254-0.021,0.309,0c0.177,0.07,0.229,0.143,0.462,0.152c0.151,0.01,0.101,0.137,0.153,0.154
		c0.094,0.031,0.214-0.022,0.309,0c0.275,0.069,0.585,0.211,0.924,0.309c0.143,0.041,0.184,0.117,0.309,0.152
		c0.096,0.031,0.213-0.021,0.309,0c0.079,0.021,0.165,0.157,0.154,0.155c0.33,0.065,0.742-0.036,1.078,0
		c0.009,0.002-0.008,0.146,0,0.153c0.146,0.18,2.102,0.007,2.154,0c0.211-0.027,0.329-0.137,0.463-0.153
		c0.201-0.026,0.414,0.027,0.615,0c0.221-0.028,0.319-0.124,0.465-0.155c0.354-0.074,0.73-0.059,1.077-0.152
		c0.036-0.01,0.031-0.122,0.154-0.153c0.196-0.05,0.325-0.121,0.462-0.155c0.096-0.023,0.21,0.027,0.309,0
		c0.715-0.195,1.58-0.471,2.154-0.615c0.281-0.07,0.411-0.225,0.617-0.308c0.352-0.141,0.665-0.198,0.924-0.309
		c0.018-0.009-0.014-0.138,0-0.153c0.038-0.048,0.251,0.029,0.309,0c0.018-0.01,0.102-0.12,0.153-0.154
		c0.271-0.182,0.615-0.361,0.771-0.463c0.062-0.039,0.121-0.136,0.154-0.152c0.032-0.022,0.166-0.158,0.152-0.153
		c0.079-0.034,0.238,0.045,0.309,0c0.025-0.019-0.021-0.136,0-0.155c0.07-0.068,0.231-0.095,0.309-0.152
		c0.102-0.078,0.225-0.07,0.309-0.153c0.022-0.024-0.025-0.136,0-0.155c0.139-0.102,0.342-0.061,0.461-0.152
		c0.028-0.021-0.021-0.131,0-0.153c0.071-0.07,0.231-0.097,0.31-0.155c0.153-0.115,0.329-0.176,0.463-0.307
		c0.026-0.027-0.024-0.131,0-0.155c0.026-0.026,0.128,0.024,0.153,0c0.023-0.024-0.025-0.133,0-0.153
		c0.059-0.05,0.236,0.029,0.309,0c0.033-0.014,0.121-0.273,0.152-0.309c0.027-0.026,0.13,0.025,0.156,0
		c0.077-0.076,0.077-0.23,0.154-0.307c0.023-0.028,0.126,0.022,0.154,0c0.023-0.028-0.028-0.131,0-0.155
		c0.023-0.026,0.126,0.024,0.152,0c0.024-0.026-0.026-0.128,0-0.153c0.024-0.027,0.127,0.025,0.154,0
		c0.024-0.027-0.027-0.13,0-0.152c0.024-0.028,0.126,0.022,0.154,0c0.213-0.222,0.395-0.552,0.615-0.772
		c0.023-0.026,0.127,0.026,0.154,0c0.023-0.026-0.027-0.128,0-0.155c0.023-0.023,0.127,0.027,0.153,0
		c0.024-0.023-0.026-0.126,0-0.152c0.024-0.024,0.127,0.026,0.153,0c0.025-0.024-0.026-0.127,0-0.153
		c0.025-0.026,0.127,0.026,0.154,0c0.024-0.026-0.027-0.128,0-0.154c0.024-0.024,0.127,0.026,0.152,0
		c0.025-0.024-0.025-0.127,0-0.153c0.025-0.024,0.128,0.026,0.154,0c0.025-0.024-0.026-0.127,0-0.154
		c0.025-0.025,0.127,0.027,0.154,0c0.024-0.025-0.027-0.127,0-0.153c0.024-0.024,0.127,0.026,0.152,0
		c0.025-0.024-0.025-0.127,0-0.155c0.025-0.022,0.131,0.028,0.154,0c0.025-0.022-0.025-0.125,0-0.152
		c0.025-0.025,0.127,0.027,0.154,0c0.024-0.025-0.027-0.127,0-0.153c0.024-0.024,0.127,0.026,0.152,0
		c0.025-0.024-0.025-0.127,0-0.155c0.025-0.022,0.129,0.028,0.154,0c0.025-0.022-0.023-0.126,0-0.152
		c0.025-0.025,0.13,0.023,0.154,0c0.123-0.12,0.213-0.317,0.308-0.463c0.063-0.095,0.095-0.084,0.154-0.152
		c0.381-0.444,0.727-0.928,1.077-1.387c0.074-0.101,0.067-0.223,0.154-0.309c0.067-0.064,0.271-0.064,0.309-0.152
		c0.031-0.076-0.049-0.246,0-0.31c0.021-0.024,0.132,0.022,0.154,0c0.023-0.024-0.025-0.13,0-0.153
		c0.075-0.078,0.229-0.078,0.308-0.154c0.024-0.024-0.021-0.123,0-0.153c0.11-0.173,0.196-0.297,0.308-0.463
		c0.041-0.06,0.137-0.122,0.154-0.153c0.021-0.033,0.158-0.165,0.154-0.154c0.033-0.08-0.049-0.235,0-0.308
		c0.019-0.024,0.134,0.021,0.152,0c0.07-0.069,0.096-0.229,0.154-0.31c0.077-0.1,0.07-0.223,0.154-0.307
		c0.021-0.023,0.138,0.024,0.152,0c0.049-0.074-0.033-0.229,0-0.309c0.004-0.002,0.125-0.107,0.154-0.153
		c0.025-0.041,0.107-0.085,0.154-0.155c0.162-0.244,0.188-0.422,0.308-0.614c0.024-0.042,0.109-0.085,0.154-0.153
		c0.222-0.331,0.411-0.597,0.614-0.925c0.146-0.229,0.317-0.539,0.463-0.771c0.221-0.353,0.5-0.75,0.617-0.927
		c0.025-0.041,0.152-0.149,0.152-0.153c0.111-0.215,0.043-0.408,0.154-0.617c0.014-0.021,0.136,0.021,0.154,0
		c0.025-0.022-0.021-0.121,0-0.152c0.162-0.239,0.205-0.417,0.308-0.615c0.032-0.061,0.151-0.146,0.155-0.154
		c0.035-0.084-0.045-0.227,0-0.308c0.012-0.024,0.134,0.019,0.154,0c0.024-0.026-0.021-0.122,0-0.155
		c0.155-0.233,0.223-0.414,0.309-0.615c0.072-0.17,0.07-0.268,0.154-0.461c0.209-0.493,0.682-1.191,0.77-1.541
		c0.055-0.221,0.055-0.313,0.154-0.461c0.102-0.155,0.102-0.254,0.152-0.463c0.03-0.125,0.135-0.105,0.154-0.154
		c0.115-0.289,0.195-0.617,0.309-0.922c0.065-0.181,0.082-0.254,0.153-0.463c0.036-0.106,0.138-0.115,0.154-0.152
		c0.055-0.133-0.05-0.33,0-0.463c0.022-0.063,0.116-0.014,0.153-0.153c0.055-0.221,0.055-0.315,0.153-0.462
		c0.103-0.155,0.103-0.255,0.154-0.462c0.045-0.188,0.098-0.241,0.153-0.462c0.028-0.122,0.137-0.112,0.153-0.155
		c0.113-0.297,0.19-0.615,0.308-0.926c0.121-0.315,0.215-0.612,0.31-0.925c0.093-0.301,0.228-0.62,0.31-0.924
		c0.09-0.338,0.068-0.759,0.152-1.078c0.01-0.031,0.125-0.033,0.154-0.152c0.111-0.453,0.066-0.432,0.154-0.771
		c0.095-0.369,0.102-0.486,0.152-0.771c0.027-0.151,0.122-0.181,0.154-0.308c0.38-1.498,0.795-3.36,1.078-4.619
		c0.021-0.102-0.025-0.215,0-0.312c0.02-0.081,0.156-0.159,0.152-0.153c0.043-0.193-0.033-0.416,0-0.617
		c0.034-0.193,0.121-0.221,0.154-0.461c0.111-0.781,0.063-1.598,0.154-2.465c0.076-0.709,0.191-1.424,0.308-2.153
		c0.065-0.414,0.091-0.675,0.153-1.079c0.031-0.197,0.123-0.221,0.154-0.463c0.027-0.203-0.022-0.413,0-0.615
		c0.021-0.193,0.123-0.227,0.154-0.462c0.09-0.685-0.035-1.257,0-1.851c0.014-0.228,0.129-0.314,0.152-0.461
		c0.035-0.195-0.012-0.418,0-0.615c0.13-2.205,0-4.324,0-6.471c0-1.007,0.104-2.311,0-3.081c-0.023-0.199-0.143-0.337-0.152-0.46
		c-0.046-0.488,0.059-0.937,0-1.389c-0.021-0.153-0.125-0.088-0.154-0.153c-0.053-0.124,0.027-0.329,0-0.462
		c-0.158-0.805-0.303-1.453-0.463-2.156c-0.213-0.945-0.348-1.926-0.614-2.772c-0.036-0.113-0.136-0.111-0.154-0.154
		c-0.058-0.13,0.056-0.331,0-0.462c-0.007-0.018-0.138,0.014-0.153,0c-0.045-0.036,0.026-0.251,0-0.308
		c-0.01-0.02-0.137,0.015-0.154,0c-0.043-0.034,0.022-0.254,0-0.308c-0.038-0.098-0.149-0.226-0.153-0.308
		c-0.01-0.163-0.125-0.086-0.153-0.154c-0.103-0.242-0.063-0.555-0.154-0.77c-0.019-0.045-0.11-0.048-0.153-0.154
		c-0.017-0.038,0.002-0.113,0-0.154c-0.011-0.154-0.147-0.184-0.154-0.308c-0.009-0.154-0.146-0.183-0.153-0.308
		c-0.01-0.17-0.117-0.081-0.153-0.154c-0.106-0.226-0.056-0.398-0.154-0.617c-0.009-0.02-0.136,0.015-0.153,0
		c-0.045-0.036,0.026-0.252,0-0.308c-0.01-0.021-0.137,0.015-0.153,0c-0.048-0.039,0.03-0.251,0-0.308
		c-0.021-0.034-0.111-0.085-0.154-0.154c-0.11-0.173-0.155-0.184-0.31-0.308c-0.051-0.042,0.041-0.252,0-0.308
		c-0.057-0.075-0.252-0.071-0.307-0.154c-0.048-0.07,0.033-0.23,0-0.308c-0.022-0.051-0.271-0.096-0.309-0.154
		c-0.018-0.026,0.002-0.124,0-0.154c-0.018-0.293-0.346-0.344-0.462-0.462c-0.024-0.026,0.019-0.124,0-0.155
		c-0.161-0.249-0.45-0.396-0.462-0.616c-0.018-0.279-0.568-0.577-0.616-0.616c-0.052-0.041,0.04-0.253,0-0.308
		c-0.056-0.07-0.246-0.084-0.308-0.154c-0.231-0.26-0.469-0.468-0.616-0.616c-0.263-0.26-0.666-0.91-0.927-0.924
		c-0.375-0.02-0.67-0.756-0.924-0.77c-0.283-0.015-0.357-0.335-0.463-0.462c-0.041-0.05-0.251,0.038-0.309,0
		c-0.112-0.08-0.108-0.298-0.309-0.308c-0.177-0.009-0.068-0.102-0.152-0.154c-0.479-0.294-1.129-0.457-1.387-0.77
		c-0.039-0.048-0.252,0.032-0.309,0c-0.021-0.014,0.021-0.136,0-0.154c-0.016-0.016-0.484-0.156-0.462-0.154
		c-0.151-0.009-0.101-0.136-0.153-0.154c-0.094-0.032-0.213,0.022-0.308,0c-0.128-0.032-0.104-0.134-0.154-0.154
		c-0.223-0.093-0.515-0.06-0.771-0.154c-0.016-0.007,0.012-0.139,0-0.154c-0.036-0.045-0.252,0.025-0.309,0
		c-0.08-0.036,0.002-0.116-0.154-0.154c-0.096-0.025-0.217,0.031-0.309,0c-0.016-0.007,0.014-0.14,0-0.154
		c-0.035-0.045-0.253,0.025-0.308,0c-0.079-0.037,0.003-0.116-0.154-0.154c-0.097-0.025-0.213,0.027-0.308,0
		c-0.014-0.004,0.012-0.14,0-0.154c-0.063-0.075-0.514,0.025-0.616,0c-0.077-0.021-0.167-0.158-0.153-0.154
		c-0.246-0.049-0.521,0.037-0.77,0c-0.152-0.022-0.092-0.126-0.154-0.154c-0.111-0.047-0.343,0.007-0.462,0
		c-1.604-0.111-3.556-0.088-4.931,0c-0.098,0.005-0.17,0.154-0.153,0.154C247.788,178.132,246.984,178.107,246.43,178.227z"/>
</g>
</svg>
