<?xml version="1.0" encoding="utf-8"?>
<!-- Generator: Adobe Illustrator 15.0.2, SVG Export Plug-In . SVG Version: 6.00 Build 0)  -->
<!DOCTYPE svg PUBLIC "-//W3C//DTD SVG 1.1//EN" "http://www.w3.org/Graphics/SVG/1.1/DTD/svg11.dtd">
<svg version="1.1" id="Layer_1" xmlns="http://www.w3.org/2000/svg" xmlns:xlink="http://www.w3.org/1999/xlink" x="0px" y="0px"
	 width="400px" height="400px" viewBox="0 0 400 400" enable-background="new 0 0 400 400" xml:space="preserve">
<circle fill="#5759A2" cx="200.227" cy="199.591" r="193.864"/>
<path fill="#EBF2F4" d="M208.055,93.5h-30.322c-0.495,0-1.371,0.441-1.488,1.546c-1.77,16.152-9.329,44.469-40.727,55.786v26.738
	h20.942v67.643c0,22.876,16.697,55.287,60.631,55.287c0.521,0,1.031,0,1.558-0.014c15.201-0.264,32.102-6.623,35.834-12.115
	l-9.959-29.527c-3.849,1.84-11.213,3.43-16.697,3.578h-0.883c-15.789,0-18.9-11.805-19.035-20.402v-64.45h41.561v-31.333h-41.414
	V93.5"/>
</svg>
