<?xml version="1.0" encoding="utf-8"?>
<!-- Generator: Adobe Illustrator 15.0.2, SVG Export Plug-In . SVG Version: 6.00 Build 0)  -->
<!DOCTYPE svg PUBLIC "-//W3C//DTD SVG 1.1//EN" "http://www.w3.org/Graphics/SVG/1.1/DTD/svg11.dtd">
<svg version="1.1" id="Layer_1" xmlns="http://www.w3.org/2000/svg" xmlns:xlink="http://www.w3.org/1999/xlink" x="0px" y="0px"
	 width="400px" height="400px" viewBox="0 0 400 400" enable-background="new 0 0 400 400" xml:space="preserve">
<circle fill="#5759A2" cx="200.227" cy="199.591" r="193.864"/>
<path fill="#EBF2F4" d="M306.646,155.389c0,0-2.096-14.681-8.478-21.145c-8.103-8.487-17.188-8.528-21.351-9.028
	c-29.826-2.15-74.537-2.15-74.537-2.15h-0.098c0,0-44.74,0-74.551,2.15c-4.162,0.5-13.234,0.542-21.351,9.028
	c-6.381,6.464-8.462,21.145-8.462,21.145s-2.136,17.248-2.136,34.497v16.162c0,17.244,2.136,34.487,2.136,34.487
	s2.081,14.691,8.462,21.156c8.117,8.488,18.771,8.213,23.5,9.101c17.05,1.636,72.442,2.144,72.442,2.144s44.768-0.076,74.594-2.229
	c4.162-0.484,13.248-0.525,21.351-9.016c6.382-6.465,8.478-21.156,8.478-21.156s2.121-17.243,2.121-34.487v-16.162
	C308.769,172.636,306.646,155.389,306.646,155.389 M180.24,225.645l-0.015-59.879l57.57,30.056L180.24,225.645z"/>
</svg>
